<svg width="24" height="18" viewBox="0 0 24 18" fill="none" xmlns="http://www.w3.org/2000/svg">
<path d="M23.4375 15.75C23.5938 15.75 23.7188 15.8125 23.8125 15.9375C23.9375 16.0312 24 16.1562 24 16.3125V17.4375C24 17.5938 23.9375 17.7344 23.8125 17.8594C23.7188 17.9531 23.5938 18 23.4375 18H0.5625C0.40625 18 0.265625 17.9531 0.140625 17.8594C0.046875 17.7344 0 17.5938 0 17.4375V0.5625C0 0.40625 0.046875 0.28125 0.140625 0.1875C0.265625 0.0625 0.40625 0 0.5625 0H1.6875C1.84375 0 1.96875 0.0625 2.0625 0.1875C2.1875 0.28125 2.25 0.40625 2.25 0.5625V15.75H23.4375ZM21.9375 1.5H15.5625C15.3125 1.5 15.1406 1.625 15.0469 1.875C14.9531 2.09375 14.9844 2.28125 15.1406 2.4375L17.625 4.875L13.5 9L10.5 6L3.70312 12.6562L5.29688 14.25L10.5 9.0938L13.5 12L19.1719 6.46875L21.5625 8.8125C21.7188 9 21.9062 9.0469 22.125 8.9531C22.375 8.8594 22.5 8.6875 22.5 8.4375V2.0625C22.5 1.90625 22.4375 1.78125 22.3125 1.6875C22.2188 1.5625 22.0938 1.5 21.9375 1.5Z" fill="#FF7F00"/>
</svg>
