<svg width="27" height="24" viewBox="0 0 27 24" fill="none" xmlns="http://www.w3.org/2000/svg"><path d="M15.75 21c.188 0 .375.094.516.234.14.141.234.328.234.516v1.5a.776.776 0 01-.234.563c-.141.14-.328.187-.516.187h-15c-.234 0-.422-.047-.563-.188-.14-.14-.187-.328-.187-.562v-1.5c0-.188.047-.375.188-.516A.776.776 0 01.75 21h15zM25.5 6h.75c.188 0 .375.094.516.234.14.141.234.329.234.516v1.5c0 .844-.281 1.547-.75 2.203a3.624 3.624 0 01-1.875 1.36v5.624c0 1.032-.422 1.922-1.172 2.625-.797.75-1.734 1.032-2.765.938-.938-.094-1.688-.469-2.297-1.219-.61-.703-.891-1.547-.891-2.484v-1.172c0-.516-.188-.938-.563-1.313-.375-.374-.796-.562-1.312-.562H15v5.25H1.5V3c0-.844.281-1.547.844-2.11A3.01 3.01 0 014.5 0H12c.844 0 1.547.328 2.11.89.562.563.89 1.266.89 2.11v9h.375c1.125 0 2.063.422 2.906 1.219.797.844 1.219 1.781 1.219 2.906v1.313c0 .421.14.75.469 1.03.281.282.656.376 1.078.282.281-.047.562-.188.75-.469.187-.281.328-.562.328-.937v-5.532a3.56 3.56 0 01-1.922-1.359A3.634 3.634 0 0119.5 8.25v-1.5c0-.188.047-.375.188-.516A.776.776 0 0120.25 6H21V3.75c0-.188.047-.375.188-.516A.776.776 0 0121.75 3c.188 0 .375.094.516.234.14.141.234.329.234.516V6H24V3.75c0-.188.047-.375.188-.516A.776.776 0 0124.75 3c.188 0 .375.094.516.234.14.141.234.329.234.516V6zM12.187 8.25c.094-.14.094-.281 0-.469a.516.516 0 00-.468-.281H9l.563-2.39a.756.756 0 00-.141-.423A.594.594 0 009 4.5H5.812c-.187 0-.28.047-.375.14-.093.094-.187.188-.187.282L4.5 9.938c-.047.187 0 .328.14.421.094.094.235.141.423.141h2.765L6.75 14.39c-.047.188 0 .329.094.422.093.141.281.188.468.188.188 0 .375-.047.47-.234l4.405-6.516z" fill="#FFD500"/></svg>