<svg width="30" height="21" viewBox="0 0 30 21" fill="none" xmlns="http://www.w3.org/2000/svg"><path d="M15 6.047c1.031 0 1.875.469 2.625 1.312.75.891 1.125 1.97 1.125 3.188 0 1.265-.375 2.344-1.125 3.187-.75.891-1.594 1.313-2.625 1.313s-1.922-.422-2.672-1.313c-.75-.843-1.078-1.921-1.078-3.187 0-1.219.328-2.297 1.078-3.188.75-.843 1.64-1.312 2.672-1.312zM29.11 1.03c.28.14.468.328.656.563.14.281.234.562.234.843v14.86c0 .469-.188.797-.469 1.078a1.454 1.454 0 01-1.031.422c-.188 0-.328 0-.516-.094a16.242 16.242 0 00-4.312-.61c-1.313 0-2.766.141-4.36.423-.937.187-2.39.562-4.312 1.03-1.969.47-3.375.798-4.313.985-1.64.328-3.093.469-4.359.469-1.969 0-3.797-.328-5.437-1.031a1.109 1.109 0 01-.657-.563C.047 19.172 0 18.891 0 18.563V3.703c0-.422.14-.797.422-1.078.281-.281.656-.422 1.078-.422.14 0 .328.047.516.094 1.312.422 2.765.61 4.312.61 1.266 0 2.719-.141 4.36-.423.937-.187 2.343-.515 4.312-.984 1.922-.469 3.375-.844 4.313-1.031C20.905.188 22.358 0 23.672 0c1.969 0 3.75.375 5.437 1.031zm-1.36 15.281V2.954c-1.266-.469-2.625-.703-4.078-.703-1.172 0-2.485.14-3.985.422-.937.187-2.296.515-4.125.984-2.015.516-3.515.844-4.546 1.031a25.618 25.618 0 01-4.735.47c-1.406 0-2.765-.141-4.031-.47v13.36c1.219.469 2.578.703 4.078.703 1.125 0 2.484-.14 3.984-.422.891-.187 2.25-.515 4.126-.984 1.968-.469 3.515-.844 4.546-1.032 1.688-.28 3.282-.468 4.688-.468 1.406 0 2.765.187 4.078.469z" fill="red"/></svg>