<svg width="80" height="80" viewBox="0 0 80 80" fill="none" xmlns="http://www.w3.org/2000/svg"><circle cx="40.001" cy="40" r="40" fill="#0079FD"/><path d="M50.001 33.333h-1.667V30c0-4.6-3.733-8.334-8.333-8.334A8.336 8.336 0 0031.668 30v3.333H30a3.343 3.343 0 00-3.333 3.333v16.667c0 1.833 1.5 3.333 3.333 3.333h20c1.833 0 3.333-1.5 3.333-3.333V36.666c0-1.833-1.5-3.333-3.333-3.333zm-10 15A3.343 3.343 0 0136.668 45c0-1.834 1.5-3.334 3.333-3.334 1.833 0 3.333 1.5 3.333 3.334 0 1.833-1.5 3.333-3.333 3.333zm5.167-15H34.834V30a5.171 5.171 0 015.167-5.167A5.171 5.171 0 0145.168 30v3.333z" fill="#fff"/></svg>