<svg width="80" height="80" viewBox="0 0 80 80" fill="none" xmlns="http://www.w3.org/2000/svg"><circle cx="40.001" cy="40" r="40" fill="#0079FD"/><path d="M36.668 46.666h6.666c.917 0 1.667-.75 1.667-1.666v-5c0-.917-.75-1.667-1.667-1.667v-1.667a3.332 3.332 0 10-6.666 0v1.667c-.917 0-1.667.75-1.667 1.667v5c0 .916.75 1.666 1.667 1.666zm1.333-10c0-1.1.9-2 2-2s2 .9 2 2v1.667h-4v-1.667zm10.333-15H31.668A3.343 3.343 0 0028.334 25v30c0 1.833 1.5 3.333 3.334 3.333h16.666c1.834 0 3.334-1.5 3.334-3.333V25c0-1.834-1.5-3.334-3.334-3.334zm0 30H31.668V28.333h16.666v23.333z" fill="#fff"/></svg>