<svg width="56" height="56" viewBox="0 0 56 56" fill="none" xmlns="http://www.w3.org/2000/svg"><g filter="url(#filter0_d)" fill-rule="evenodd" clip-rule="evenodd" fill="#000"><path d="M28 0c13.218 0 24 10.781 24 24S41.218 48 28 48C14.78 48 4 37.218 4 24 4 10.78 14.781 0 28 0zm0 4.328c10.835 0 19.672 8.837 19.672 19.672S38.835 43.672 28 43.672 8.328 34.835 8.328 24 17.165 4.328 28 4.328z"/><path d="M39.485 36.957h-9.592V18.015h4.584v15.083h5.008v3.86zm-11.43-12.152c0 3.454-2.285 5.334-5.556 5.334h-.672c-3.245 0-5.606-1.677-5.606-5.183v-14.06h4.584v14.301c0 1.002.399 1.503 1.196 1.503h.25c1.02 0 1.22-.981 1.22-1.804v-14h4.584v13.909zm-8.61 9.198c0 1.484 1.2 2.691 2.675 2.691a2.676 2.676 0 002.675-2.69 2.676 2.676 0 00-2.675-2.691 2.686 2.686 0 00-2.675 2.69zm.504 0c0-1.268.978-2.282 2.17-2.282 1.2 0 2.171 1.014 2.171 2.282 0 1.261-.963 2.283-2.17 2.283-1.193 0-2.171-1.022-2.171-2.283zm1.192 1.323h.497V34.21h.405c.566 0 .581.254.588.5.016.446.008.507.1.615h.512c-.107-.146-.084-.223-.107-.638-.016-.27-.039-.577-.382-.646v-.016c.397-.16.45-.43.45-.615 0-.699-.596-.776-.878-.776H21.14v2.69zm.497-2.322h.52c.32 0 .542.085.542.407 0 .193-.076.431-.489.431h-.573v-.838z"/></g><defs><filter id="filter0_d" x="0" y="0" width="56" height="56" filterUnits="userSpaceOnUse" color-interpolation-filters="sRGB"><feFlood flood-opacity="0" result="BackgroundImageFix"/><feColorMatrix in="SourceAlpha" values="0 0 0 0 0 0 0 0 0 0 0 0 0 0 0 0 0 0 127 0"/><feOffset dy="4"/><feGaussianBlur stdDeviation="2"/><feColorMatrix values="0 0 0 0 0 0 0 0 0 0 0 0 0 0 0 0 0 0 0.25 0"/><feBlend in2="BackgroundImageFix" result="effect1_dropShadow"/><feBlend in="SourceGraphic" in2="effect1_dropShadow" result="shape"/></filter></defs></svg>