<svg width="48" height="40" viewBox="0 0 48 40" fill="none" xmlns="http://www.w3.org/2000/svg"><path d="M47.269 15.375c-.457-1.2-1.395-2.27-2.537-3.042-3.297-2.093-8.32-2.242-11.718-.35-1.852.944-3.07 2.813-3.449 4.738-.687 3.162-.51 6.924 1.927 9.295 2.84 2.49 6.975 3.04 10.652 2.017.175-.034.728-.173 1.11-.376l.108-.046c1.142-.474 2.23-1.247 3.044-2.293 1.876-2.743 2.005-6.854.863-9.943zm-5.986 7.1c-.13.6-.534 1.222-1.17 1.447-1.012.445-2.383.322-3.32-.2-.788-.55-.889-1.47-.99-2.342-.077-1.718-.201-3.538.28-5.108.378-.973 1.418-1.224 2.36-1.297.988 0 1.95.15 2.56.948.38.571.357 1.32.432 1.993-.027 1.42.1 3.113-.152 4.56zm-30.058 1.548c-.837-.051-1.775.022-2.586-.077l.025-8.75.051-.072 2.51-.024c.027-1.42.052-2.944-.026-4.238l-9.56-.027-1.575.028c-.025 1.32-.025 2.863 0 4.21.863.027 1.674 0 2.511.078v8.473l-.024.349-2.512.05a53.86 53.86 0 000 4.113h11.186v-4.113zm28.153 5.98c-1.064 1.522-2.408 2.992-3.876 4.136-.054.078-.206.048-.254-.024-.636-.397-1.32-.723-1.93-1.12.812-.97 1.599-1.943 2.208-3.018h-.79c-.63.925-1.291 1.896-2.127 2.716-1.117-.448-2.131-.846-3.273-1.147l-.127-.095c.178-.504.507-.977.608-1.476h-.685l-.684 1.347c-1.495-.324-3.145-.5-4.666-.598-.077-.224.023-.548-.077-.749h-.66c-.052.3.076.526-.076.775a29.32 29.32 0 00-4.564.55l-.687-1.325c-.251 0-.533-.047-.709.027l.633 1.47-.075.074c-1.137.329-2.255.72-3.348 1.173l-.101-.051a19.846 19.846 0 01-1.956-2.465c-.125-.426-.633-.176-.912-.226.606 1.098 1.42 2.068 2.23 3.067-.684.4-1.366.846-2.08 1.173a18.287 18.287 0 01-4.006-4.213c-.305-.049-.505-.026-.812 0 1.826 2.842 4.668 5.333 7.636 6.804 0 0 0-.023.027-.023.022 0 .072.047.022.073 2.005.972 4.137 1.67 6.392 1.97 7.788 1.02 15.22-2.292 19.53-8.824a4.01 4.01 0 00-.81 0zm-10.574 2.243l.074-.05c1.094.25 2.132.598 3.096 1.07-.812.92-1.852 1.72-2.815 2.392-.583.348-1.168.726-1.778 1.023l-1.088-.473.075-.173a29.83 29.83 0 002.436-3.789zm-4.999-.748c1.447.027 2.894.176 4.236.499l.027.075c-.71 1.345-1.6 2.644-2.561 3.862-.434.052-.838-.12-1.269-.148l-.433-.05c-.05-1.471-.076-2.767 0-4.238zm-4.893.448c1.32-.249 2.688-.448 4.108-.448l.026 4.216c-.534.12-1.117.12-1.625.249-1.04-1.224-1.901-2.546-2.636-3.918l.127-.099zm-4.086 1.347c.992-.475 2.03-.826 3.095-1.098l.102.026c.734 1.372 1.648 2.667 2.56 3.963-.351.2-.785.32-1.139.523a17.086 17.086 0 01-4.617-3.34v-.074zm3.274 4.262c-2.131-.55-4.111-1.497-5.937-2.79v-.078c.609-.37 1.22-.77 1.877-1.048 1.447 1.425 2.942 2.497 4.566 3.516-.127.15-.33.3-.506.4zm9.409.322c-2.688.577-5.683.599-8.37-.048-.051-.124.127-.15.203-.224 2.359-1.522 6.035-1.522 8.346.122.075.15-.128.102-.18.15zm2.436-.696l-1.192.373c-.204-.1-.38-.25-.56-.4l.052-.076c1.623-.943 3.094-2.093 4.49-3.463.684.273 1.344.65 1.955 1.071-1.422 1.127-3.071 1.871-4.745 2.495zm-22.6-28.24a23.392 23.392 0 012.054-2.465c.657-.623 1.268-1.221 1.98-1.672.66.423 1.394.776 2.028 1.173-.786.967-1.598 1.944-2.181 2.988.176.078.507.053.762 0 .633-.92 1.316-1.843 2.13-2.666 1.088.4 2.155.822 3.273 1.123l.098.099-.631 1.444c.28.053.457.027.734 0 .228-.421.404-.894.658-1.32 1.473.326 3.02.5 4.593.548.202.177.05.549.127.772h.684c.075-.245-.026-.523.075-.745 1.472-.077 3.019-.227 4.444-.576l.123.026.685 1.294c.23 0 .533.053.71-.052l-.635-1.441.053-.05c1.164-.3 2.257-.748 3.373-1.196.788.822 1.522 1.794 2.183 2.738.278 0 .557.027.76-.051a10.08 10.08 0 00-1.09-1.57 10.61 10.61 0 00-1.118-1.341v-.13l1.776-1.02.256-.1a18.523 18.523 0 014.005 4.16c.304 0 .558.105.813-.02C36.664 3.81 31.06.542 25 .07l-.027.049-.052-.048a11.563 11.563 0 00-2.259-.03 5.94 5.94 0 00-.937.03c-6.086.47-11.691 3.587-15.194 8.894.254-.024.559.077.813-.024zm10.528-2.189l-.102.022a20.253 20.253 0 01-3.02-1.021l.049-.15c1.395-1.32 2.866-2.418 4.489-3.263.382.15.762.273 1.142.45l-.074.195c-.966 1.199-1.725 2.492-2.484 3.767zm5.045.67c-.708.1-1.342-.021-2.055-.077-.682-.1-1.546-.172-2.23-.4.735-1.364 1.599-2.687 2.638-3.905l1.623.221c.076 1.294.024 2.79.024 4.162zm.786.028c-.05-1.325-.024-2.794 0-4.165.51-.073 1.065-.15 1.573-.224.99 1.245 1.955 2.52 2.615 3.885a17.98 17.98 0 01-4.188.504zm8.094-1.748c-.991.422-2.007.821-3.096 1.05a42.16 42.16 0 00-2.614-3.918c.355-.195.789-.344 1.168-.543 1.652.822 3.248 1.992 4.59 3.333l-.048.078zm-3.249-4.26a18.078 18.078 0 015.961 2.79l-.05.1-1.749.97h-.13a22.104 22.104 0 00-4.513-3.436c.05-.175.305-.3.481-.425zm-1.013-.251v.053c-2.209 1.59-5.784 1.74-8.116.27-.131-.1-.382-.148-.409-.323 2.69-.62 5.859-.67 8.525 0zM12.062 4.283a18.234 18.234 0 015.252-2.641c.077-.078.126-.151.226-.151v.05c.202.05.355-.176.532-.028.153.129.333.227.458.351-1.572.97-3.12 2.12-4.54 3.512-.686-.245-1.317-.62-1.928-1.044v-.05zm10.883 19.935c-2.384.649-4.973.154-6.697-1.643-.202-.25-.33-.546-.534-.795l-3.423.024c-.054 2.018-.078 4.337 0 6.331l3.803-.024.05-1.197c.434.2.866.448 1.296.671 2.637 1.098 6.033 1.348 8.646 0 1.904-1.044 2.92-3.062 2.64-5.235-.278-2.115-2.308-4.036-4.361-4.557l-6.14-1.771-.454-.226c-.203-.173-.33-.396-.281-.672.482-.82 1.6-.571 2.436-.55 1.775.25 3.601.849 4.642 2.47 1.114 0 2.408.021 3.624-.027.052-2.043-.02-3.836-.05-5.905a57.34 57.34 0 00-3.677.026c-.05.296.05.719-.078 1.019l-1.165-.624c-2.792-1.17-6.698-1.293-9.234.527-1.65 1.194-2.155 3.34-1.724 5.233.329 1.791 2.053 3.114 3.703 3.735 2.257.796 4.615 1.373 6.901 2.145.227.1.53.327.482.6 0 .222-.23.35-.405.445z" fill="#000"/></svg>