<svg width="48" height="35" viewBox="0 0 48 35" fill="none" xmlns="http://www.w3.org/2000/svg"><path fill-rule="evenodd" clip-rule="evenodd" d="M18.723 28.932v5.048c-.551.055-1.115.085-1.685.085C7.653 34.065 0 26.412 0 17.032 0 7.653 7.653 0 17.038 0c.57 0 1.133.03 1.685.085v5.048a11.87 11.87 0 00-1.685-.122c-6.623 0-12.027 5.405-12.027 12.022 0 6.623 5.404 12.021 12.027 12.021.57 0 1.134-.043 1.685-.122zm15.85-14.5h9.84v5.205h-9.84c1.194 5.375 6.005 9.416 11.736 9.416.57 0 1.14-.042 1.691-.12v5.047c-.558.055-1.12.085-1.69.085-9.386 0-17.033-7.653-17.033-17.032C29.277 7.653 36.924 0 46.31 0c.57 0 1.133.03 1.69.085v5.048a11.87 11.87 0 00-1.69-.122c-5.732 0-10.543 4.042-11.737 9.421z" fill="#000"/></svg>