<svg width="48" height="35" viewBox="0 0 48 35" fill="none" xmlns="http://www.w3.org/2000/svg">
<path fill-rule="evenodd" clip-rule="evenodd" d="M18.7227 28.9323V33.9799C18.1715 34.0346 17.6076 34.0649 17.0379 34.0649C7.653 34.0641 0 26.4119 0 17.032C0 7.65301 7.653 0 17.0379 0C17.6076 0 18.1706 0.0302956 18.7227 0.084996V5.13258C18.1715 5.05348 17.6076 5.0114 17.0379 5.0114C10.415 5.0114 5.01055 10.4158 5.01055 17.0329C5.01055 23.6558 10.415 29.0543 17.0379 29.0543C17.6076 29.0535 18.1715 29.0106 18.7227 28.9323Z" fill="black"/>
<path fill-rule="evenodd" clip-rule="evenodd" d="M34.5732 14.4325H44.4133V19.6374H34.5732C35.7665 25.0116 40.5776 29.0535 46.3093 29.0535C46.8791 29.0535 47.4488 29.0106 48 28.9323V33.9799C47.4421 34.0346 46.8791 34.0649 46.3093 34.0649C36.9236 34.0649 29.2773 26.4119 29.2773 17.0329C29.2773 7.65301 36.9244 0 46.3102 0C46.8799 0 47.4429 0.0302956 48.0008 0.084996V5.13258C47.4429 5.05348 46.8799 5.0114 46.3102 5.0114C40.5776 5.01056 35.7673 9.0525 34.5732 14.4325Z" fill="black"/>
</svg>
