<svg width="48" height="48" viewBox="0 0 48 48" fill="none" xmlns="http://www.w3.org/2000/svg">
<path fill-rule="evenodd" clip-rule="evenodd" d="M23.9997 0C37.2185 0 48 10.7813 48 23.9999C48 37.2187 37.2185 48 23.9997 48C10.7812 48 0 37.2185 0 23.9999C0 10.7813 10.7812 0 23.9997 0ZM23.9997 4.32763C34.835 4.32763 43.6724 13.1648 43.6724 23.9999C43.6724 34.8352 34.835 43.6724 23.9997 43.6724C13.1647 43.6724 4.32787 34.8349 4.32787 23.9999C4.32787 13.1648 13.165 4.32763 23.9997 4.32763Z" fill="black"/>
<path fill-rule="evenodd" clip-rule="evenodd" d="M35.4846 36.9571H25.8927V18.015H30.4769V33.0982H35.4846V36.9571ZM24.0553 24.805C24.0553 28.2585 21.7702 30.1389 18.4994 30.1389H17.8268C14.5816 30.1389 12.2208 28.4625 12.2208 24.9558V10.8958H16.8053V25.1971C16.8053 26.1992 17.2038 26.7002 18.001 26.7002H18.2502C19.2715 26.7002 19.4712 25.719 19.4712 24.8964V10.8958H24.0553V24.805ZM15.4445 34.0034C15.4445 35.4872 16.6445 36.6944 18.1197 36.6944C19.6101 36.6944 20.7947 35.4872 20.7947 34.0034C20.7947 32.5195 19.6099 31.3129 18.1197 31.3129C16.6445 31.3132 15.4445 32.5195 15.4445 34.0034ZM15.949 34.0034C15.949 32.7351 16.9272 31.7205 18.1197 31.7205C19.3197 31.7205 20.2901 32.7351 20.2901 34.0034C20.2901 35.2644 19.3271 36.2863 18.1197 36.2863C16.9272 36.2866 15.949 35.2644 15.949 34.0034ZM17.1413 35.3257H17.6381V34.2112H18.043C18.6088 34.2112 18.624 34.4648 18.6314 34.7106C18.6469 35.1567 18.6392 35.2181 18.7307 35.3257H19.2427C19.1357 35.1798 19.1586 35.1029 19.1357 34.6876C19.1203 34.4187 19.0974 34.1113 18.7536 34.0422V34.0264C19.1509 33.8652 19.2044 33.5961 19.2044 33.4113C19.2044 32.7121 18.6083 32.6352 18.3255 32.6352H17.1407V35.3257H17.1413ZM17.6381 33.004H18.1578C18.4789 33.004 18.7004 33.0886 18.7004 33.4113C18.7004 33.6038 18.624 33.8422 18.2113 33.8422H17.6381V33.004Z" fill="black"/>
</svg>
