<svg width="80" height="80" viewBox="0 0 80 80" fill="none" xmlns="http://www.w3.org/2000/svg"><circle cx="40" cy="40" r="40" fill="#006AFF"/><path d="M40.769 23.02c.244.04.498.08.743.11a9.66 9.66 0 014.594 1.914c1.858 1.425 3.03 3.33 3.685 5.573.294.997.45 2.014.538 3.04.088.968.098 1.935.03 2.892a20.539 20.539 0 01-1.115 5.364 25.294 25.294 0 01-3.294 6.34c-.108.15-.186.17-.352.1-1.173-.468-2.317-.997-3.333-1.784-.284-.22-.538-.469-.822-.688-.136-.11-.146-.21-.058-.369a27.374 27.374 0 002.2-5.075c.44-1.375.781-2.781.996-4.217.196-1.256.293-2.532.264-3.808-.049-1.795-.303-3.56-.968-5.235-.694-1.764-1.779-3.19-3.45-4.087-.04-.02-.059-.06-.088-.09.156.02.293.02.43.02z" fill="#fff"/><path d="M36.105 40.367c.44.747.831 1.495 1.3 2.183 1.877 2.822 4.301 4.995 7.38 6.37 1.135.5 2.308.838 3.54.978.967.12 1.935.11 2.912.06 1.466-.07 2.816-.519 4.076-1.266.02-.01.04-.01.088-.02-.097.319-.185.618-.283.907-.47 1.316-1.114 2.532-2.043 3.57a8.238 8.238 0 01-4.506 2.641 9.952 9.952 0 01-3.392.15c-2.757-.35-5.22-1.406-7.37-3.2-1.81-1.506-3.236-3.33-4.458-5.345a35.213 35.213 0 01-1.897-3.619c-.02-.05-.02-.16.02-.189 1.104-1.047 2.277-1.994 3.617-2.722.322-.18.684-.339 1.016-.498z" fill="#fff"/><path d="M25.588 51.623c-.264-.538-.547-1.066-.782-1.615-.635-1.505-.87-3.08-.791-4.706.127-2.87 1.055-5.463 2.785-7.746 1.672-2.213 3.832-3.709 6.413-4.616a21.259 21.259 0 014.31-1.037c1.31-.18 2.63-.26 3.95-.19.83.04 1.652.17 2.483.26.117.01.137.07.127.18-.069.867-.098 1.734-.196 2.601-.097.868-.273 1.735-.4 2.602-.02.15-.079.17-.206.17-2.962.01-5.718.807-8.309 2.233A21.705 21.705 0 0030.79 42.8a22.018 22.018 0 00-3.363 3.858c-.87 1.286-1.456 2.682-1.681 4.228-.03.229-.04.468-.059.707-.049.01-.068.02-.098.03z" fill="#fff"/><path d="M35.92 53.965c-.342.22-.674.459-1.036.658-.938.509-1.935.778-2.991.868-1.134.09-2.21-.08-3.216-.658-.987-.569-1.642-1.426-2.053-2.483a1.405 1.405 0 01-.068-.459 9.43 9.43 0 011.818-5.682l.078-.08c.157.778.362 1.515.665 2.213.84 1.954 2.082 3.56 3.91 4.646.88.519 1.818.838 2.835.907.029.03.049.05.058.07zm-3.45-24.394a7.614 7.614 0 01.147-1.814c.225-1.027.665-1.924 1.427-2.642.949-.897 2.063-1.456 3.353-1.635 1.633-.23 3.06.23 4.282 1.336.45.409.762.927 1.026 1.465.274.549.518 1.127.772 1.685-.02.01-.029.03-.048.04-.215-.09-.43-.19-.655-.27a10.671 10.671 0 00-2.992-.667c-1.69-.13-3.313.1-4.877.788a7.276 7.276 0 00-2.239 1.555c-.059.06-.098.13-.137.2-.02-.01-.039-.03-.058-.04zm20.625 9.61a5.559 5.559 0 011.466 1.456c.694.997 1.105 2.114 1.32 3.31.108.618.147 1.246.098 1.864-.03.39-.108.788-.215 1.167-.05.17-.206.319-.343.448-.889.878-1.984 1.346-3.176 1.586-.773.16-1.545.229-2.327.239h-.166c2.698-2.812 3.793-6.171 3.343-10.07zM31.904 32.23c-.87.46-1.71.908-2.561 1.357-.352-1.596 1.495-6.361 2.746-7.04-.38 1.895-.684 3.78-.185 5.684zm19.53 5.195c.039-.638.097-1.226.117-1.824.02-.588 0-1.176 0-1.805 1.72 1.586 2.678 3.59 3.216 5.863-.919-1.077-2.092-1.755-3.333-2.234zM37.172 53.757c.85.528 1.672 1.026 2.493 1.535-1.154.797-4.458 1.456-6.706.967.098-.04.156-.06.225-.08.792-.259 1.583-.508 2.307-.927a5.122 5.122 0 001.613-1.406c.029-.04.068-.08.068-.09z" fill="#fff"/></svg>