<svg width="80" height="80" viewBox="0 0 80 80" fill="none" xmlns="http://www.w3.org/2000/svg">
<circle cx="40" cy="40" r="40" fill="#006AFF"/>
<path d="M50.667 26.6666H29.3337C27.867 26.6666 26.6803 27.8666 26.6803 29.3333L26.667 53.3333L32.0003 48H50.667C52.1337 48 53.3337 46.8 53.3337 45.3333V29.3333C53.3337 27.8666 52.1337 26.6666 50.667 26.6666ZM34.667 42.6666H32.0003V40H34.667V42.6666ZM34.667 38.6666H32.0003V36H34.667V38.6666ZM34.667 34.6666H32.0003V32H34.667V34.6666ZM44.0003 42.6666H37.3337V40H44.0003V42.6666ZM48.0003 38.6666H37.3337V36H48.0003V38.6666ZM48.0003 34.6666H37.3337V32H48.0003V34.6666Z" fill="white"/>
</svg>
