<svg width="24" height="18" viewBox="0 0 24 18" fill="none" xmlns="http://www.w3.org/2000/svg">
<path d="M23.4373 15.75C23.5936 15.75 23.7186 15.8125 23.8123 15.9375C23.9373 16.0312 23.9998 16.1562 23.9998 16.3125V17.4375C23.9998 17.5938 23.9373 17.7344 23.8123 17.8594C23.7186 17.9531 23.5936 18 23.4373 18H0.562317C0.406067 18 0.265442 17.9531 0.140442 17.8594C0.0466919 17.7344 -0.000183105 17.5938 -0.000183105 17.4375V0.5625C-0.000183105 0.40625 0.0466919 0.28125 0.140442 0.1875C0.265442 0.0625 0.406067 0 0.562317 0H1.68732C1.84357 0 1.96857 0.0625 2.06232 0.1875C2.18732 0.28125 2.24982 0.40625 2.24982 0.5625V15.75H23.4373ZM21.9373 1.5H15.5623C15.3123 1.5 15.1404 1.625 15.0467 1.875C14.9529 2.09375 14.9842 2.28125 15.1404 2.4375L17.6248 4.875L13.4998 9L10.4998 6L3.70294 12.6562L5.2967 14.25L10.4998 9.0938L13.4998 12L19.1717 6.46875L21.5623 8.8125C21.7186 9 21.906 9.0469 22.1248 8.9531C22.3748 8.8594 22.4998 8.6875 22.4998 8.4375V2.0625C22.4998 1.90625 22.4373 1.78125 22.3123 1.6875C22.2186 1.5625 22.0936 1.5 21.9373 1.5Z" fill="url(#paint0_linear)"/>
<defs>
<linearGradient id="paint0_linear" x1="-2.50018" y1="8.99121" x2="21.4998" y2="8.99121" gradientUnits="userSpaceOnUse">
<stop stop-color="#BB33FF"/>
<stop offset="1" stop-color="#F7761D"/>
</linearGradient>
</defs>
</svg>
