<svg width="18" height="24" viewBox="0 0 18 24" fill="none" xmlns="http://www.w3.org/2000/svg">
<path d="M16.8748 6.75H1.12482C0.812317 6.75 0.546692 6.85937 0.327942 7.07812C0.109192 7.29688 -0.000183105 7.5625 -0.000183105 7.875V11.625C-0.000183105 11.9375 0.109192 12.2031 0.327942 12.4219C0.546692 12.6406 0.812317 12.75 1.12482 12.75H1.49982C1.49982 13.9688 1.78107 15.125 2.34357 16.2188C2.90607 17.2812 3.6717 18.1562 4.64044 18.8438C5.6092 19.5312 6.68732 19.9688 7.87482 20.1562V24H10.1248V20.1562C11.3123 19.9688 12.3904 19.5312 13.3592 18.8438C14.3279 18.1562 15.0936 17.2812 15.656 16.2188C16.2186 15.125 16.4998 13.9688 16.4998 12.75H16.8748C17.1873 12.75 17.4529 12.6406 17.6717 12.4219C17.8904 12.2031 17.9998 11.9375 17.9998 11.625V7.875C17.9998 7.5625 17.8904 7.29688 17.6717 7.07812C17.4529 6.85937 17.1873 6.75 16.8748 6.75ZM15.7498 10.5H14.2498V12.75C14.2498 13.6875 14.0154 14.5625 13.5467 15.375C13.0779 16.1875 12.4373 16.8281 11.6248 17.2969C10.8123 17.7656 9.93732 18 8.99982 18C8.06232 18 7.18732 17.7656 6.37482 17.2969C5.56232 16.8281 4.9217 16.1875 4.45294 15.375C3.9842 14.5625 3.74982 13.6875 3.74982 12.75V10.5H2.24982V9H15.7498V10.5ZM12.3748 6V1.125C12.3748 0.8125 12.4842 0.546875 12.7029 0.328125C12.9217 0.109375 13.1873 0 13.4998 0C13.8123 0 14.0779 0.109375 14.2967 0.328125C14.5154 0.546875 14.6248 0.8125 14.6248 1.125V6H12.3748ZM3.37482 6V1.125C3.37482 0.8125 3.4842 0.546875 3.70294 0.328125C3.9217 0.109375 4.18732 0 4.49982 0C4.81232 0 5.07794 0.109375 5.2967 0.328125C5.51544 0.546875 5.62482 0.8125 5.62482 1.125V6H3.37482Z" fill="url(#paint0_linear)"/>
<defs>
<linearGradient id="paint0_linear" x1="-0.000182793" y1="10.5" x2="17.9998" y2="10.5" gradientUnits="userSpaceOnUse">
<stop stop-color="#C33CE3"/>
<stop offset="1" stop-color="#F7761D"/>
</linearGradient>
</defs>
</svg>
