<svg width="14" height="9" viewBox="0 0 14 9" fill="none" xmlns="http://www.w3.org/2000/svg"><path d="M13.14 1.406c.094.422.188 1.078.235 1.922l.023 1.172-.023 1.172c-.047.89-.14 1.523-.234 1.945a1.766 1.766 0 01-.422.703 1.53 1.53 0 01-.727.422c-.422.117-1.36.188-2.86.235L7 9l-2.133-.023c-1.5-.047-2.46-.118-2.86-.235-.28-.07-.538-.21-.726-.422a1.36 1.36 0 01-.422-.703C.742 7.195.672 6.563.625 5.672L.602 4.5c0-.328 0-.727.023-1.172.047-.844.117-1.5.234-1.922.07-.281.211-.515.422-.726.188-.188.446-.328.727-.422.398-.094 1.36-.188 2.86-.235L7 0l2.133.023c1.5.047 2.437.141 2.86.235.28.094.515.234.726.422.187.21.328.445.422.726zM5.688 6.422L9.04 4.5 5.688 2.602v3.82z" fill="#fff"/></svg>