<svg width="11" height="11" viewBox="0 0 11 11" fill="none" xmlns="http://www.w3.org/2000/svg">
<path d="M10.9669 3.23239C10.9402 2.64694 10.8472 2.24713 10.7112 1.89734C10.5732 1.53034 10.3566 1.19792 10.0768 0.923157C9.80216 0.643356 9.46966 0.42675 9.10266 0.288612C8.75278 0.15274 8.35306 0.0598373 7.76761 0.0332336C7.18107 0.00637817 6.99367 0 5.5 0C4.00633 0 3.81893 0.00637817 3.23239 0.0330658C2.64694 0.0598373 2.24722 0.152824 1.89734 0.28878C1.53034 0.426834 1.19792 0.643356 0.923157 0.923157C0.643356 1.19784 0.42675 1.53026 0.288612 1.89725C0.15274 2.24713 0.0598373 2.64694 0.0332336 3.23231C0.00637817 3.81893 0 4.00625 0 5.49992C0 6.99367 0.00637817 7.18107 0.0332336 7.76761C0.0599213 8.35297 0.152908 8.75278 0.288864 9.10266C0.426918 9.46957 0.64344 9.80208 0.923241 10.0768C1.19792 10.3566 1.53043 10.5731 1.89742 10.7111C2.24722 10.8472 2.64703 10.9401 3.23248 10.9669C3.8191 10.9936 4.00642 10.9999 5.50008 10.9999C6.99375 10.9999 7.18115 10.9936 7.76769 10.9669C8.35314 10.9401 8.75287 10.8472 9.10275 10.7111C9.84152 10.4255 10.4255 9.84144 10.7112 9.10266C10.8473 8.75278 10.9402 8.35297 10.9669 7.76761C10.9936 7.18098 11 6.99367 11 5.5C11 4.00625 10.9936 3.81893 10.9669 3.23239V3.23239ZM9.97689 7.72254C9.95247 8.25881 9.86284 8.55003 9.78756 8.7438C9.60251 9.22351 9.22343 9.60259 8.74372 9.78764C8.54994 9.86292 8.25873 9.95255 7.72246 9.97697C7.14263 10.0035 6.96866 10.009 5.5 10.009C4.03126 10.009 3.85737 10.0035 3.27746 9.97697C2.74127 9.95255 2.45006 9.86292 2.2562 9.78764C2.01735 9.69944 1.80125 9.55887 1.62383 9.37617C1.44113 9.19875 1.30056 8.98273 1.21236 8.7438C1.13708 8.55003 1.04745 8.25881 1.02303 7.72254C0.99659 7.14263 0.990967 6.96866 0.990967 5.50008C0.990967 4.03143 0.99659 3.85754 1.02303 3.27754C1.04753 2.74127 1.13708 2.45006 1.21236 2.25628C1.30056 2.01735 1.44122 1.80125 1.62383 1.62383C1.80125 1.44113 2.01735 1.30056 2.25628 1.21244C2.45006 1.13708 2.74127 1.04753 3.27754 1.02303C3.85745 0.99659 4.03143 0.990967 5.5 0.990967H5.49992C6.96849 0.990967 7.14246 0.99659 7.72246 1.02311C8.25873 1.04753 8.54986 1.13716 8.74372 1.21244C8.98257 1.30064 9.19867 1.44122 9.37608 1.62383C9.55878 1.80125 9.69936 2.01735 9.78748 2.25628C9.86284 2.45006 9.95247 2.74127 9.97689 3.27754C10.0033 3.85745 10.0089 4.03143 10.0089 5.5C10.0089 6.96866 10.0034 7.14255 9.97689 7.72254Z" fill="white"/>
<path d="M5.49981 2.67578C3.94001 2.67578 2.67554 3.94034 2.67554 5.50014C2.67554 7.05994 3.94001 8.32441 5.49981 8.32441C7.05969 8.32441 8.32417 7.05994 8.32417 5.50014C8.32417 3.94034 7.05969 2.67578 5.49981 2.67578V2.67578ZM5.49981 7.33344C4.48736 7.33336 3.6665 6.51259 3.66659 5.50005C3.66659 4.4876 4.48736 3.66675 5.49989 3.66675C6.51243 3.66683 7.3332 4.4876 7.3332 5.50005C7.3332 6.51259 6.51234 7.33344 5.49981 7.33344V7.33344Z" fill="white"/>
<path d="M9.09591 2.56411C9.09591 2.92859 8.80042 3.22408 8.43594 3.22408C8.07137 3.22408 7.77588 2.92859 7.77588 2.56411C7.77588 2.19955 8.07137 1.90405 8.43594 1.90405C8.80042 1.90405 9.09591 2.19955 9.09591 2.56411V2.56411Z" fill="white"/>
</svg>
