<svg width="150" height="38" viewBox="0 0 150 38" fill="none" xmlns="http://www.w3.org/2000/svg"><path d="M40.341 4.618c0 1.12-.28 2.1-.98 2.8-.839.84-1.819 1.259-3.078 1.259-1.26 0-2.24-.42-3.08-1.26-.839-.84-1.259-1.819-1.259-3.079 0-1.26.42-2.239 1.26-3.078.84-.84 1.82-1.26 3.079-1.26.56 0 1.12.14 1.68.42.559.28.979.56 1.259.98l-.7.7c-.56-.7-1.26-.98-2.24-.98-.839 0-1.679.28-2.238.98-.7.56-.98 1.399-.98 2.378 0 .98.28 1.82.98 2.38.7.56 1.4.98 2.239.98.98 0 1.68-.28 2.379-.98.42-.42.7-.98.7-1.68h-3.08v-1.12h4.06v.56zM46.78 1.12H43v2.659h3.5v.98H43v2.658h3.78v1.12h-4.9V.14h4.9v.98zm4.618 7.417h-1.12V1.12H47.9V.14h5.878v.98h-2.38v7.417zm6.438 0V.14h1.12v8.397h-1.12zm5.878 0h-1.12V1.12h-2.379V.14h5.738v.98h-2.379v7.417h.14zm13.296-1.12c-.84.84-1.82 1.26-3.08 1.26-1.259 0-2.239-.42-3.078-1.26-.84-.84-1.26-1.819-1.26-3.079 0-1.26.42-2.239 1.26-3.078C71.69.42 72.67 0 73.93 0c1.26 0 2.239.42 3.079 1.26.84.84 1.26 1.819 1.26 3.078 0 1.26-.42 2.24-1.26 3.08zm-5.319-.7c.56.56 1.4.98 2.24.98.84 0 1.679-.28 2.239-.98.56-.56.98-1.399.98-2.379s-.28-1.819-.98-2.379c-.56-.56-1.4-.98-2.24-.98-.84 0-1.679.28-2.239.98-.56.56-.98 1.4-.98 2.38s.28 1.819.98 2.379zm8.118 1.82V.14h1.26l4.058 6.578V.14h1.12v8.397h-1.12l-4.339-6.858v6.858h-.98zM69.311 20.853c-3.359 0-6.018 2.519-6.018 6.018a5.973 5.973 0 006.018 6.018c3.36 0 6.018-2.52 6.018-6.018 0-3.64-2.659-6.018-6.018-6.018zm0 9.516c-1.82 0-3.359-1.539-3.359-3.638 0-2.1 1.54-3.639 3.36-3.639 1.819 0 3.358 1.4 3.358 3.639 0 2.099-1.54 3.638-3.359 3.638zm-13.015-9.516c-3.36 0-6.018 2.519-6.018 6.018a5.973 5.973 0 006.018 6.018c3.359 0 6.018-2.52 6.018-6.018 0-3.64-2.66-6.018-6.018-6.018zm0 9.516c-1.82 0-3.36-1.539-3.36-3.638 0-2.1 1.54-3.639 3.36-3.639 1.82 0 3.359 1.4 3.359 3.639 0 2.099-1.54 3.638-3.36 3.638zM40.76 22.672v2.52h6.018c-.14 1.399-.7 2.518-1.4 3.218-.84.84-2.239 1.82-4.618 1.82-3.779 0-6.578-2.94-6.578-6.718 0-3.779 2.94-6.718 6.578-6.718 1.96 0 3.499.84 4.619 1.82l1.819-1.82c-1.54-1.4-3.499-2.519-6.298-2.519-5.038 0-9.377 4.199-9.377 9.237s4.339 9.237 9.377 9.237c2.8 0 4.758-.84 6.438-2.66 1.68-1.679 2.24-4.058 2.24-5.877 0-.56 0-1.12-.14-1.54H40.76zm63.538 1.96c-.56-1.4-1.959-3.78-5.038-3.78-3.08 0-5.598 2.38-5.598 6.019 0 3.359 2.519 6.018 5.878 6.018 2.659 0 4.338-1.68 4.898-2.66l-1.959-1.399c-.7.98-1.54 1.68-2.94 1.68-1.399 0-2.239-.56-2.938-1.82l7.977-3.359-.28-.7zm-8.117 1.959c0-2.24 1.82-3.499 3.079-3.499.979 0 1.959.56 2.239 1.26l-5.318 2.239zm-6.578 5.738h2.66V14.835h-2.66v17.494zm-4.198-10.217c-.7-.7-1.82-1.4-3.22-1.4-2.938 0-5.737 2.66-5.737 6.019 0 3.358 2.659 5.878 5.738 5.878 1.4 0 2.519-.7 3.079-1.4h.14v.84c0 2.239-1.26 3.499-3.22 3.499-1.539 0-2.658-1.12-2.938-2.1l-2.24.98c.7 1.54 2.38 3.499 5.319 3.499 3.079 0 5.598-1.82 5.598-6.158V21.133h-2.52v.98zm-3.08 8.257c-1.819 0-3.358-1.539-3.358-3.638 0-2.1 1.54-3.639 3.359-3.639s3.219 1.54 3.219 3.639c0 2.099-1.4 3.638-3.22 3.638zm34.149-15.534h-6.298v17.494h2.659V25.75h3.639c2.939 0 5.738-2.1 5.738-5.458 0-3.359-2.799-5.458-5.738-5.458zm.14 8.397h-3.779v-6.018h3.779c1.959 0 3.079 1.68 3.079 2.939-.14 1.54-1.26 3.079-3.079 3.079zm16.094-2.52c-1.959 0-3.919.84-4.618 2.66l2.379.98c.56-.98 1.399-1.26 2.379-1.26 1.4 0 2.659.84 2.799 2.24v.14c-.42-.28-1.539-.7-2.659-.7-2.519 0-5.038 1.399-5.038 3.918 0 2.38 2.099 3.919 4.338 3.919 1.82 0 2.659-.84 3.359-1.68h.14v1.4h2.519V25.61c-.28-3.079-2.659-4.898-5.598-4.898zm-.28 9.657c-.84 0-2.099-.42-2.099-1.539 0-1.4 1.539-1.82 2.799-1.82 1.12 0 1.679.28 2.379.56-.28 1.68-1.679 2.8-3.079 2.8zm14.695-9.236l-2.939 7.557h-.14l-3.079-7.557h-2.799l4.619 10.636-2.659 5.878h2.659l7.137-16.514h-2.799zm-23.512 11.196h2.659V14.835h-2.659v17.494z" fill="#fff"/><path d="M.416 6.367C.104 6.68 0 7.2 0 7.825v23.01c0 .626.208 1.146.52 1.459l.105.104 12.91-12.911v-.209L.417 6.368z" fill="url(#paint0_linear)"/><path d="M17.703 23.86l-4.27-4.27v-.312l4.27-4.269.104.104 5.102 2.916c1.457.833 1.457 2.186 0 3.02l-5.206 2.81z" fill="url(#paint1_linear)"/><path d="M17.806 23.755l-4.373-4.373L.418 32.397c.52.521 1.25.521 2.187.105l15.201-8.747z" fill="url(#paint2_linear)"/><path d="M17.806 15.01L2.605 6.366C1.667 5.846.939 5.95.418 6.47l13.015 12.911 4.373-4.373z" fill="url(#paint3_linear)"/><path opacity=".2" d="M17.702 23.651L2.605 32.19c-.833.52-1.562.417-2.083 0l-.104.104.104.105c.52.416 1.25.52 2.083 0l15.097-8.747z" fill="#000"/><path opacity=".2" d="M.416 32.19C.104 31.877 0 31.357 0 30.732v.104c0 .625.208 1.145.52 1.458v-.104H.417zm22.49-11.454l-5.205 2.915.104.105 5.102-2.916c.729-.416 1.04-.937 1.04-1.457 0 .52-.416.937-1.04 1.353z" fill="#000"/><path opacity=".2" d="M2.603 6.471L22.907 18.03c.624.416 1.04.833 1.04 1.354 0-.521-.311-1.042-1.04-1.458L2.603 6.367C1.145 5.534 0 6.16 0 7.825v.104c0-1.562 1.145-2.29 2.603-1.458z" fill="#fff"/><defs><linearGradient id="paint0_linear" x1="12.286" y1="7.627" x2="-5.188" y2="25.101" gradientUnits="userSpaceOnUse"><stop stop-color="#00A0FF"/><stop offset=".007" stop-color="#00A1FF"/><stop offset=".26" stop-color="#00BEFF"/><stop offset=".512" stop-color="#00D2FF"/><stop offset=".76" stop-color="#00DFFF"/><stop offset="1" stop-color="#00E3FF"/></linearGradient><linearGradient id="paint1_linear" x1="24.818" y1="19.383" x2="-.376" y2="19.383" gradientUnits="userSpaceOnUse"><stop stop-color="#FFE000"/><stop offset=".409" stop-color="#FFBD00"/><stop offset=".775" stop-color="orange"/><stop offset="1" stop-color="#FF9C00"/></linearGradient><linearGradient id="paint2_linear" x1="15.44" y1="21.773" x2="-8.256" y2="45.469" gradientUnits="userSpaceOnUse"><stop stop-color="#FF3A44"/><stop offset="1" stop-color="#C31162"/></linearGradient><linearGradient id="paint3_linear" x1="-2.813" y1="-1.259" x2="7.769" y2="9.323" gradientUnits="userSpaceOnUse"><stop stop-color="#32A071"/><stop offset=".069" stop-color="#2DA771"/><stop offset=".476" stop-color="#15CF74"/><stop offset=".801" stop-color="#06E775"/><stop offset="1" stop-color="#00F076"/></linearGradient></defs></svg>