<svg width="53" height="64" viewBox="0 0 53 64" fill="none" xmlns="http://www.w3.org/2000/svg">
<path d="M52 38C52 45.1667 49.4583 51.2917 44.375 56.375C39.2917 61.4583 33.1667 64 26 64C18.8333 64 12.7083 61.4583 7.625 56.375C2.54167 51.2917 0 45.1667 0 38C0 31.5833 2.08333 25.9583 6.25 21.125C10.5 16.2083 15.75 13.25 22 12.25V8H18.5C17.5 8 17 7.5 17 6.5V1.5C17 0.5 17.5 0 18.5 0H33.5C34.5 0 35 0.5 35 1.5V6.5C35 7.5 34.5 8 33.5 8H30V12.25C34.6667 13 38.8333 14.875 42.5 17.875L45.875 14.5C46.625 13.75 47.3333 13.75 48 14.5L51.5 18C52.25 18.6667 52.25 19.375 51.5 20.125L47.875 23.75L47.75 23.875C50.5833 28.125 52 32.8333 52 38ZM30 42.5V23.5C30 23.1667 29.8333 22.8333 29.5 22.5C29.25 22.1667 28.9167 22 28.5 22H23.5C23.0833 22 22.7083 22.1667 22.375 22.5C22.125 22.8333 22 23.1667 22 23.5V42.5C22 43.5 22.5 44 23.5 44H28.5C29.5 44 30 43.5 30 42.5Z" fill="#006AFF"/>
</svg>
