<svg width="62" height="62" viewBox="0 0 62 62" fill="none" xmlns="http://www.w3.org/2000/svg">
<path d="M42 19C40.25 7.875 35.875 0 31 0C26 0 21.75 7.875 19.875 19H42ZM19 31C19 33.875 19.125 36.5 19.375 39H42.5C42.75 36.5 42.875 33.875 42.875 31C42.875 28.25 42.75 25.625 42.5 23H19.375C19.125 25.625 19 28.25 19 31ZM59.5 19C56 10.625 48.75 4 39.75 1.375C42.875 5.625 44.875 12 46 19H59.5ZM22.125 1.375C13.125 4 5.875 10.625 2.375 19H15.875C17 12 19 5.625 22.125 1.375ZM60.875 23H46.5C46.75 25.625 47 28.375 47 31C47 33.75 46.75 36.375 46.5 39H60.875C61.5 36.5 61.875 33.875 61.875 31C61.875 28.25 61.5 25.625 60.875 23ZM15 31C15 28.375 15.125 25.625 15.375 23H1C0.375 25.625 0 28.25 0 31C0 33.875 0.375 36.5 1 39H15.375C15.125 36.375 15 33.75 15 31ZM19.875 43C21.75 54.25 26 62 31 62C35.875 62 40.25 54.25 42 43H19.875ZM39.75 60.75C48.75 58.125 56 51.5 59.5 43H46C45 50.125 42.875 56.5 39.75 60.75ZM2.375 43C5.875 51.5 13.125 58.125 22.125 60.75C19 56.5 17 50.125 15.875 43H2.375Z" fill="#006AFF"/>
</svg>
