<svg width="73" height="56" viewBox="0 0 73 56" fill="none" xmlns="http://www.w3.org/2000/svg">
<path d="M53 20C53 9 41.25 0 27 0C12.625 0 1 9 1 20C1 24.375 2.75 28.25 5.75 31.5C4 35.375 1.25 38.375 1.25 38.375C1 38.625 0.875 39.125 1 39.5C1.25 39.875 1.5 40 2 40C6.5 40 10.25 38.5 13 36.875C17 38.875 21.875 40 27 40C41.25 40 53 31.125 53 20ZM68.25 47.5C71.125 44.25 73 40.375 73 36C73 27.75 66.25 20.5 56.75 17.5C56.875 18.375 57 19.25 57 20C57 33.25 43.5 44 27 44C25.625 44 24.25 44 23 43.875C26.875 51 36.125 56 47 56C52.125 56 56.875 54.875 60.875 52.875C63.625 54.5 67.375 56 72 56C72.375 56 72.75 55.875 72.875 55.5C73 55.125 73 54.625 72.625 54.375C72.625 54.375 69.875 51.375 68.25 47.5Z" fill="#006AFF"/>
</svg>
