<svg width="49" height="65" viewBox="0 0 49 65" fill="none" xmlns="http://www.w3.org/2000/svg">
<path d="M13.125 45.375C12 44.25 12.5 44.625 10 43.875C8.75 43.625 7.75 43 6.75 42.25L1.125 56.125C0.5 57.5 1.625 59 3 58.875L9.625 58.625L14.125 63.375C15.125 64.5 16.875 64.125 17.375 62.875L24 46.875C22.625 47.625 21.125 48 19.5 48C17.125 48 14.75 47.125 13.125 45.375ZM48.75 56.125L43.125 42.25C42.125 43 41.125 43.625 40 43.875C37.25 44.625 37.875 44.25 36.75 45.375C35.125 47.125 32.75 48 30.375 48C28.75 48 27.25 47.625 25.875 46.875L32.5 62.875C33 64.125 34.75 64.5 35.75 63.375L40.25 58.625L46.875 58.875C48.25 59 49.375 57.5 48.75 56.125ZM33.875 42.5C35.75 40.625 36 40.75 38.625 40C40.375 39.625 41.75 38.25 42.25 36.375C43.125 32.875 42.875 33.25 45.5 30.75C46.75 29.375 47.25 27.5 46.75 25.75C45.875 22.25 45.875 22.75 46.75 19.125C47.25 17.375 46.75 15.5 45.5 14.25C42.875 11.625 43.125 12 42.25 8.5C41.75 6.75 40.375 5.375 38.625 4.875C35.125 3.875 35.625 4.125 33 1.5C31.75 0.25 29.875 -0.25 28.125 0.25C24.75 1.125 25.125 1.125 21.75 0.25C20 -0.25 18.125 0.25 16.875 1.5C14.25 4.125 14.75 3.875 11.25 4.875C9.5 5.375 8.125 6.75 7.625 8.5C6.75 12 7 11.625 4.375 14.25C3.125 15.5 2.625 17.375 3.125 19.125C4 22.75 4 22.25 3.125 25.75C2.625 27.5 3.125 29.375 4.375 30.75C7 33.25 6.75 32.875 7.625 36.375C8.125 38.25 9.5 39.625 11.25 40C14 40.75 14.25 40.625 16.125 42.5C17.75 44.25 20.25 44.5 22.25 43.25C23 42.875 24.125 42.5 25 42.5C25.75 42.5 26.875 42.875 27.625 43.25C29.625 44.5 32.125 44.25 33.875 42.5ZM13.125 22C13.125 15.375 18.375 10 25 10C31.5 10 36.75 15.375 36.75 22C36.75 28.625 31.5 34 25 34C18.375 34 13.125 28.625 13.125 22Z" fill="#006AFF"/>
</svg>
