<svg width="48" height="48" viewBox="0 0 48 48" fill="none" xmlns="http://www.w3.org/2000/svg">
<path fill-rule="evenodd" clip-rule="evenodd" d="M47.3333 24C47.3333 36.88 36.88 47.3333 24 47.3333C11.12 47.3333 0.666672 36.88 0.666673 24C0.666673 11.12 11.12 0.666663 24 0.666663C36.88 0.666664 47.3333 11.12 47.3333 24ZM42.6667 24C42.6667 13.71 34.29 5.33334 24 5.33334C13.71 5.33334 5.33335 13.71 5.33335 24C5.33335 34.29 13.71 42.6667 24 42.6667C34.29 42.6667 42.6667 34.29 42.6667 24ZM26.3333 33.3333L17 24L26.3333 14.6667L26.3333 33.3333Z" fill="white"/>
</svg>
