<svg width="48" height="48" viewBox="0 0 48 48" fill="none" xmlns="http://www.w3.org/2000/svg">
<path fill-rule="evenodd" clip-rule="evenodd" d="M0.666686 24C0.666687 36.88 11.12 47.3333 24 47.3333C36.88 47.3333 47.3334 36.88 47.3334 24C47.3334 11.12 36.88 0.666663 24 0.666663C11.12 0.666664 0.666685 11.12 0.666686 24ZM5.33335 24C5.33335 13.71 13.71 5.33334 24 5.33334C34.29 5.33334 42.6667 13.71 42.6667 24C42.6667 34.29 34.29 42.6667 24 42.6667C13.71 42.6667 5.33335 34.29 5.33335 24ZM21.6667 33.3333L31 24L21.6667 14.6667L21.6667 33.3333Z" fill="white"/>
</svg>
