<svg width="35" height="35" viewBox="0 0 35 35" fill="none" xmlns="http://www.w3.org/2000/svg"><path fill-rule="evenodd" clip-rule="evenodd" d="M27.708 4.375h-6.095C21 2.683 19.396 1.458 17.5 1.458c-1.896 0-3.5 1.225-4.113 2.917H7.292a2.925 2.925 0 00-2.917 2.917v23.333a2.925 2.925 0 002.917 2.917h20.416a2.925 2.925 0 002.917-2.917V7.292a2.925 2.925 0 00-2.917-2.917zm-10.208 0c.802 0 1.458.656 1.458 1.458 0 .802-.656 1.459-1.458 1.459a1.463 1.463 0 01-1.458-1.459c0-.802.656-1.458 1.458-1.458zM7.292 7.292v23.333h20.416V7.292h-2.916v4.375H10.208V7.292H7.292z" fill="#006AFF"/></svg>