<svg width="80" height="80" viewBox="0 0 80 80" fill="none" xmlns="http://www.w3.org/2000/svg">
<circle cx="40" cy="40" r="40" fill="#0055FF" fill-opacity="0.03"/>
<path fill-rule="evenodd" clip-rule="evenodd" d="M51.6663 35.173V28.3334H44.8267L39.9996 23.5063L35.1725 28.3334H28.3329V35.173L23.5059 40.0001L28.3329 44.8272V51.6668H35.1725L39.9996 56.4938L44.8267 51.6668H51.6663V44.8272L56.4934 40.0001L51.6663 35.173ZM48.7496 43.6168V48.7501H43.6163L39.9996 52.3668L36.383 48.7501H31.2496V43.6168L27.633 40.0001L31.2496 36.3834V31.2501H36.383L39.9996 27.6334L43.6163 31.2501H48.7496V36.3834L52.3663 40.0001L48.7496 43.6168ZM48.0204 40.0001C48.0204 44.4188 44.4184 48.0209 39.9996 48.0209V31.9793C44.4184 31.9793 48.0204 35.5813 48.0204 40.0001Z" fill="#006AFF"/>
</svg>
