<svg width="80" height="80" viewBox="0 0 80 80" fill="none" xmlns="http://www.w3.org/2000/svg"><circle cx="40" cy="40" r="40" fill="#05F" fill-opacity=".03"/><path fill-rule="evenodd" clip-rule="evenodd" d="M39.682 22.072a.731.731 0 01.634 0l8.633 4.149a.73.73 0 01.021 1.307l-8.634 4.491a.73.73 0 01-.674 0l-8.636-4.49a.731.731 0 01.021-1.308l8.635-4.149zm-6.684 4.834l7.001 3.64 7-3.64-7-3.364-7.001 3.364z" fill="#2093FF"/><path fill-rule="evenodd" clip-rule="evenodd" d="M30.984 26.255a.731.731 0 01.717-.024l8.635 4.491a.731.731 0 01.394.648v10.475a.73.73 0 01-1.047.659l-8.636-4.148a.731.731 0 01-.414-.659V26.88a.73.73 0 01.351-.625zm1.11 1.829v9.154l7.174 3.445v-8.869l-7.173-3.73z" fill="#2093FF"/><path fill-rule="evenodd" clip-rule="evenodd" d="M49.014 26.255a.73.73 0 01.351.625v10.817a.731.731 0 01-.414.66l-8.634 4.147a.73.73 0 01-1.047-.66V31.37a.73.73 0 01.393-.648l8.634-4.49a.73.73 0 01.717.023zm-8.283 5.56v8.868l7.172-3.445v-9.154l-7.172 3.73z" fill="#2093FF"/><path fill-rule="evenodd" clip-rule="evenodd" d="M31.048 37.039a.73.73 0 01.633 0l8.635 4.148a.731.731 0 01.021 1.308l-8.635 4.49a.731.731 0 01-.675 0l-8.633-4.49a.73.73 0 01.02-1.308l8.634-4.148zm.317 1.47l-7 3.363 7 3.641 7.001-3.64-7.001-3.365z" fill="#2093FF"/><path fill-rule="evenodd" clip-rule="evenodd" d="M22.352 41.221a.731.731 0 01.716-.023l8.634 4.49a.73.73 0 01.394.649v10.932a.73.73 0 01-1.073.646l-8.634-4.575a.731.731 0 01-.389-.645V41.846c0-.255.133-.492.352-.625zm1.11 1.83v9.204l7.172 3.8V46.78l-7.172-3.73z" fill="#2093FF"/><path fill-rule="evenodd" clip-rule="evenodd" d="M40.378 41.221a.73.73 0 01.352.625v10.849c0 .27-.15.519-.389.646l-8.635 4.574a.73.73 0 01-1.073-.646V46.337c0-.273.152-.523.393-.649l8.636-4.49a.73.73 0 01.716.023zm-8.283 5.56v9.273l7.173-3.8V43.05l-7.173 3.73z" fill="#2093FF"/><path fill-rule="evenodd" clip-rule="evenodd" d="M49.293 37.38a.73.73 0 01-.342.976l-7.317 3.516 7 3.641 7.001-3.64-4.084-1.963a.73.73 0 11.633-1.317l5.402 2.594a.731.731 0 01.02 1.308l-8.635 4.49a.731.731 0 01-.674 0l-8.634-4.49a.73.73 0 01.02-1.308l8.635-4.148a.731.731 0 01.975.342z" fill="#2093FF"/><path fill-rule="evenodd" clip-rule="evenodd" d="M39.621 41.221a.731.731 0 01.717-.023l8.633 4.49a.73.73 0 01.394.649v10.932a.731.731 0 01-1.073.646l-8.634-4.575a.73.73 0 01-.389-.645V41.846c0-.255.134-.492.352-.625zm1.11 1.83v9.204l7.172 3.8V46.78l-7.172-3.73z" fill="#2093FF"/><path fill-rule="evenodd" clip-rule="evenodd" d="M57.648 41.221a.73.73 0 01.351.625v10.849c0 .27-.15.519-.388.646l-8.636 4.574a.73.73 0 01-1.073-.646V46.337c0-.273.152-.523.394-.649l8.635-4.49a.73.73 0 01.717.023zm-8.284 5.56v9.273l7.174-3.8V43.05l-7.174 3.73z" fill="#2093FF"/></svg>