<svg width="80" height="80" viewBox="0 0 80 80" fill="none" xmlns="http://www.w3.org/2000/svg"><circle cx="40" cy="40" r="40" fill="#05F" fill-opacity=".03"/><path fill-rule="evenodd" clip-rule="evenodd" d="M46.694 38.956a3.814 3.814 0 012.89.007c.456.188.868.463 1.212.808l.4.398.401-.395c.346-.343.76-.616 1.216-.802a3.814 3.814 0 012.89.007c.457.189.87.464 1.214.81a3.679 3.679 0 011.084 2.606 3.68 3.68 0 01-1.098 2.601l-.002.003-5.24 5.153a.704.704 0 01-.495.2.704.704 0 01-.494-.203l-5.207-5.18-.002-.002a3.679 3.679 0 01-1.084-2.606 3.68 3.68 0 011.097-2.601m2.66.25a2.39 2.39 0 00-.906.176 2.369 2.369 0 00-1.469 2.178 2.368 2.368 0 00.698 1.678l4.712 4.686 4.74-4.662.002-.001a2.37 2.37 0 00.705-1.673 2.368 2.368 0 00-.697-1.678 2.32 2.32 0 00-.76-.507 2.385 2.385 0 00-2.573.498l-.003.003-.899.884a.703.703 0 01-.495.2.703.703 0 01-.494-.203l-.894-.889-.003-.002a2.32 2.32 0 00-.76-.507 2.387 2.387 0 00-.904-.18zm-1.443-1.054c-.457.186-.871.46-1.217.803l1.218-.803z" fill="#0084FF"/><path fill-rule="evenodd" clip-rule="evenodd" d="M46.266 27a.689.689 0 01.659.48l2.283 6.993a.706.706 0 01-.435.889.684.684 0 01-.87-.445l-1.61-4.93-6.973 22.79a.688.688 0 01-.696.492.693.693 0 01-.636-.572l-1.874-10.216-2.148 4.933a.686.686 0 01-.7.413.693.693 0 01-.6-.552l-1.79-8.533-1.458 3.971a.688.688 0 01-.644.456h-6.086a.695.695 0 01-.688-.702c0-.388.308-.703.688-.703h5.61l2.115-5.76a.687.687 0 01.695-.454.692.692 0 01.621.553l1.839 8.769 2.186-5.022a.685.685 0 01.709-.412c.299.035.54.266.596.568l1.772 9.661 6.785-22.174a.69.69 0 01.65-.493z" fill="#0084FF"/></svg>