<svg width="80" height="80" viewBox="0 0 80 80" fill="none" xmlns="http://www.w3.org/2000/svg"><circle cx="40" cy="40" r="40" fill="#05F" fill-opacity=".03"/><path fill-rule="evenodd" clip-rule="evenodd" d="M31.55 35.124a1.02 1.02 0 011.02-1.019h6.368a1.019 1.019 0 110 2.038H32.57a1.019 1.019 0 01-1.02-1.02zm0 4.245a1.02 1.02 0 011.02-1.019h6.368a1.019 1.019 0 110 2.038H32.57a1.019 1.019 0 01-1.02-1.019z" fill="#2093FF"/><path fill-rule="evenodd" clip-rule="evenodd" d="M44.287 16.019c0-.563.456-1.019 1.019-1.019h11.675c.563 0 1.019.456 1.019 1.019v11.675c0 .563-.456 1.019-1.019 1.019h-4.245a1.019 1.019 0 01-1.019-1.019v-1.966l-4.28 4.279a13.73 13.73 0 01-9.393 20.789 1.019 1.019 0 01-.336-2.01 11.69 11.69 0 007.59-18.318 1.019 1.019 0 01.109-1.312l6.609-6.609a1.02 1.02 0 011.74.72v3.408h2.206v-9.637h-9.637v2.207h3.41a1.019 1.019 0 110 2.038h-4.429a1.019 1.019 0 01-1.019-1.02V16.02zm-12.336 8.01a13.745 13.745 0 0111.765 2.014 1.019 1.019 0 11-1.181 1.66A11.707 11.707 0 1033.8 48.786c.49.083.85.507.85 1.005v6.56c0 .563-.456 1.019-1.02 1.019h-3.225v2.207h3.226c.563 0 1.019.456 1.019 1.019v3.226h2.207v-3.226c0-.563.456-1.02 1.019-1.02h3.228V57.37h-3.228a1.019 1.019 0 110-2.038h4.247c.563 0 1.019.456 1.019 1.019v4.245a1.02 1.02 0 01-1.02 1.019h-3.227v3.226a1.02 1.02 0 01-1.02 1.019h-4.244a1.019 1.019 0 01-1.019-1.02v-3.225h-3.226a1.019 1.019 0 01-1.019-1.02v-4.244c0-.563.456-1.02 1.019-1.02h3.226v-4.706a13.744 13.744 0 01-.662-26.595zm1.948 3.893a9.509 9.509 0 113.71 18.651 9.509 9.509 0 01-3.71-18.651z" fill="#2093FF"/></svg>