<svg width="80" height="80" viewBox="0 0 80 80" fill="none" xmlns="http://www.w3.org/2000/svg"><circle cx="40" cy="40" r="40" fill="#05F" fill-opacity=".03"/><path fill-rule="evenodd" clip-rule="evenodd" d="M25.286 32.35c-1.218 1.264-1.925 3.15-1.925 5.615 0 4.956 3.754 7.603 7.294 7.602h1.698a.68.68 0 01.498 1.144l-1.773 1.907 1.182 1.177 4.89-4.891-4.89-4.89-1.166 1.167 1.573 1.574a.68.68 0 01-.481 1.162h-1.53c-.98 0-2.375-.309-3.543-1.215-1.198-.93-2.1-2.45-2.1-4.737 0-1.864.424-3.382 1.413-4.433.996-1.058 2.449-1.52 4.23-1.52a.68.68 0 110 1.361c-1.56 0-2.589.402-3.239 1.092-.657.699-1.044 1.816-1.044 3.5 0 1.882.72 2.998 1.575 3.661.84.653 1.86.904 2.593.928l-.89-.892a.68.68 0 010-.962l2.128-2.13a.681.681 0 01.963 0l5.853 5.853a.68.68 0 010 .962l-5.853 5.853a.68.68 0 01-.962.001l-2.129-2.12a.68.68 0 01-.018-.946l1.158-1.245h-.135C26.464 46.929 22 43.77 22 37.965c0-2.723.784-4.98 2.305-6.56 1.524-1.583 3.71-2.405 6.35-2.405 3.085 0 5.6 2.303 7.267 4.399a23.888 23.888 0 012.682 4.25l.01.02.002.006.001.003-.617.287.617-.287.003.005.001.003.003.007a21.995 21.995 0 002.49 3.99c1.616 2.044 3.775 3.885 6.23 3.885 2.354 0 4.156-.726 5.37-1.988 1.218-1.265 1.925-3.15 1.925-5.615.002-4.957-3.752-7.604-7.293-7.604-1.911 0-4.068 1.036-5.603 1.97h-.002l-1.283.788a.68.68 0 01-.712-1.16l1.286-.79.002-.001c1.568-.953 4-2.168 6.312-2.168 4.192 0 8.657 3.16 8.654 8.965h-.68.68c0 2.722-.784 4.979-2.305 6.559-1.524 1.583-3.71 2.405-6.35 2.405-3.124 0-5.638-2.3-7.299-4.4a23.35 23.35 0 01-2.652-4.254l-.01-.02-.001-.004m-.001-.002v-.001l-.005-.008-.003-.007a21.42 21.42 0 00-.65-1.223 22.539 22.539 0 00-1.867-2.764c-1.629-2.046-3.787-3.885-6.201-3.885-2.354 0-4.156.726-5.37 1.988" fill="#2093FF"/><path fill-rule="evenodd" clip-rule="evenodd" d="M45.305 34.905l-1.286.783a.68.68 0 01-.708-1.163l1.287-.783c1.76-1.07 3.452-1.732 4.746-1.732.978 0 2.374.308 3.542 1.214 1.198.93 2.101 2.45 2.101 4.738 0 1.864-.425 3.382-1.414 4.432-.997 1.059-2.449 1.52-4.23 1.52a.68.68 0 110-1.36c1.56 0 2.589-.402 3.239-1.093.657-.698 1.044-1.816 1.044-3.5 0-1.882-.72-2.998-1.575-3.661-.884-.687-1.97-.93-2.707-.93-.911 0-2.339.501-4.039 1.535z" fill="#2093FF"/></svg>