<svg width="80" height="80" viewBox="0 0 80 80" fill="none" xmlns="http://www.w3.org/2000/svg"><circle cx="40" cy="40" r="40" fill="#05F" fill-opacity=".03"/><path fill-rule="evenodd" clip-rule="evenodd" d="M22.68 38.557a.68.68 0 01.681.68v1.508a9.864 9.864 0 009.864 9.863h.754a.68.68 0 01.68.681v2.332h10.69v-2.333a.68.68 0 01.68-.681h.746a9.864 9.864 0 009.864-9.864v-.825H26.446a.68.68 0 110-1.36h30.873a.68.68 0 01.681.68v1.505a11.225 11.225 0 01-11.225 11.225h-.065v2.333a.68.68 0 01-.681.681h-12.05a.68.68 0 01-.68-.68V51.97h-.074A11.225 11.225 0 0122 40.745v-1.507a.68.68 0 01.68-.68zm17.931-13.181a.68.68 0 01-.3.912l-.005.002a2.239 2.239 0 00-.161.098c-.113.076-.264.19-.414.34-.302.302-.553.704-.553 1.212 0 .19.109.529.387 1.04.265.485.623 1.023 1.005 1.595l.01.015c.369.554.76 1.14 1.056 1.684.287.526.554 1.129.554 1.691 0 .998-.502 1.726-.953 2.177a4.113 4.113 0 01-.897.675l-.021.01-.007.005h-.003l-.001.002-.305-.609.304.609a.68.68 0 01-.61-1.218v.001h-.001l-.001.001.004-.002.03-.017a2.748 2.748 0 00.545-.42c.303-.302.555-.704.555-1.214 0-.19-.11-.529-.388-1.04-.265-.485-.623-1.023-1.004-1.595l-.011-.016c-.369-.554-.759-1.139-1.056-1.683-.286-.525-.554-1.128-.554-1.69 0-.997.502-1.725.952-2.176a4.11 4.11 0 01.918-.687l.007-.003.003-.002h.001l.306.608-.305-.609a.68.68 0 01.913.304zm-.913 10.24zm-5.413-9.326zm-.305-.61l-.304-.608a.68.68 0 01.611 1.216l-.004.002a2.253 2.253 0 00-.162.098c-.113.076-.265.19-.414.34-.303.302-.555.704-.555 1.212 0 .19.11.529.388 1.039.266.486.624 1.024 1.005 1.596l.01.015c.37.553.76 1.14 1.058 1.684.287.525.554 1.129.554 1.691 0 .998-.502 1.726-.952 2.177a4.123 4.123 0 01-.898.675l-.02.01-.008.005h-.003v.002h-.001l-.305-.609.304.609a.68.68 0 01-.611-1.216l.004-.002.03-.017a2.748 2.748 0 00.545-.42c.303-.302.554-.704.554-1.214 0-.19-.11-.529-.388-1.039-.265-.486-.623-1.024-1.005-1.596l-.01-.016c-.37-.553-.76-1.139-1.058-1.683-.286-.525-.554-1.128-.554-1.69 0-.998.503-1.726.954-2.176a4.132 4.132 0 01.898-.676l.02-.01.008-.005h.002l.002-.002.305.609zm-.305 9.937zm12.961-10.241a.68.68 0 01-.335.93 2.76 2.76 0 00-.545.42c-.302.304-.553.706-.553 1.214 0 .19.11.529.388 1.04.265.485.623 1.023 1.004 1.595l.01.015c.37.554.76 1.14 1.057 1.684.286.526.553 1.129.553 1.691 0 .998-.501 1.726-.952 2.177a4.113 4.113 0 01-.898.675l-.02.01-.008.005h-.003v.002h-.001l-.305-.609.304.609a.68.68 0 01-.609-1.218v.001h-.002v.001l.004-.002.03-.017a2.748 2.748 0 00.545-.42c.303-.302.554-.704.554-1.214 0-.19-.109-.529-.387-1.04-.265-.485-.624-1.023-1.005-1.595l-.01-.016c-.37-.554-.76-1.139-1.056-1.683-.287-.525-.554-1.128-.554-1.69 0-.997.501-1.725.952-2.176a4.116 4.116 0 01.917-.687l.007-.003.003-.002h.001l.306.608-.305-.609a.68.68 0 01.913.304zm-.913 10.24z" fill="#2093FF"/><path fill-rule="evenodd" clip-rule="evenodd" d="M33.297 51.288a.68.68 0 01.68-.681h8.285a.68.68 0 010 1.361h-8.285a.68.68 0 01-.68-.68z" fill="#2093FF"/></svg>