<svg width="14" height="14" viewBox="0 0 14 14" fill="none" xmlns="http://www.w3.org/2000/svg">
<path fill-rule="evenodd" clip-rule="evenodd" d="M8.72976 8.31542H9.19059L12.1014 11.2321L11.2323 12.1012L8.31559 9.19042V8.72958L8.15809 8.56625C7.49309 9.13792 6.62976 9.48208 5.69059 9.48208C3.59643 9.48208 1.89893 7.78458 1.89893 5.69042C1.89893 3.59625 3.59643 1.89875 5.69059 1.89875C7.78476 1.89875 9.48226 3.59625 9.48226 5.69042C9.48226 6.62958 9.13809 7.49292 8.56643 8.15792L8.72976 8.31542ZM3.06559 5.69042C3.06559 7.14292 4.23809 8.31542 5.69059 8.31542C7.14309 8.31542 8.31559 7.14292 8.31559 5.69042C8.31559 4.23792 7.14309 3.06542 5.69059 3.06542C4.23809 3.06542 3.06559 4.23792 3.06559 5.69042Z" fill="black"/>
</svg>
