<svg width="14" height="14" viewBox="0 0 14 14" fill="none" xmlns="http://www.w3.org/2000/svg">
<path fill-rule="evenodd" clip-rule="evenodd" d="M8.72951 8.31541H9.19035L12.1012 11.2321L11.232 12.1012L8.31535 9.19041V8.72958L8.15785 8.56624C7.49285 9.13791 6.62951 9.48208 5.69035 9.48208C3.59618 9.48208 1.89868 7.78458 1.89868 5.69041C1.89868 3.59624 3.59618 1.89874 5.69035 1.89874C7.78451 1.89874 9.48201 3.59624 9.48201 5.69041C9.48201 6.62958 9.13785 7.49291 8.56618 8.15791L8.72951 8.31541ZM3.06535 5.69041C3.06535 7.14291 4.23785 8.31541 5.69035 8.31541C7.14285 8.31541 8.31535 7.14291 8.31535 5.69041C8.31535 4.23791 7.14285 3.06541 5.69035 3.06541C4.23785 3.06541 3.06535 4.23791 3.06535 5.69041Z" fill="#0055FF"/>
</svg>
