<svg width="96" height="96" viewBox="0 0 96 96" fill="none" xmlns="http://www.w3.org/2000/svg"><circle cx="48" cy="48" r="48" fill="#4C0" fill-opacity=".05"/><path fill-rule="evenodd" clip-rule="evenodd" d="M52 34c0 2.2-1.78 4-4 4-2.2 0-4-1.8-4-4 0-.76.2-1.46.58-2.06L48 26l3.42 5.94c.38.6.58 1.3.58 2.06zm-2 10h10c3.32 0 6 2.68 6 6v18c0 1.1-.9 2-2 2H32c-1.1 0-2-.9-2-2V50c0-3.32 2.68-6 6-6h10v-4h4v4zM34 66v-6c1.8-.02 3.52-.74 4.8-2.02l2.18-2.14 2.14 2.14c2.62 2.62 7.18 2.6 9.78 0l2.16-2.14 2.14 2.14c1.28 1.28 3 2 4.8 2.02v6H34zm25.3-10.14c.72.74 1.68 1.12 2.7 1.14v-7c0-1.1-.9-2-2-2H36c-1.1 0-2 .9-2 2v7c1.02-.02 1.98-.42 2.68-1.14l4.28-4.26 4.26 4.26c1.48 1.48 4.06 1.48 5.54 0l4.28-4.26 4.26 4.26z" fill="#4C0"/></svg>