<svg width="23" height="25" viewBox="0 0 23 25" fill="none" xmlns="http://www.w3.org/2000/svg">
<path d="M10.4061 23.8008C8.62494 23.0977 6.98432 21.9258 5.48432 20.3321C3.79682 18.6445 2.53119 16.6289 1.59369 14.2852C0.515559 11.7071 -6.10352e-05 8.9414 -6.10352e-05 5.98828C-6.10352e-05 5.51953 0.093689 5.09766 0.374939 4.72266C0.609319 4.34766 0.937439 4.11328 1.40619 3.92578L10.4061 0.175781C10.9687 -0.0585938 11.5311 -0.0585938 12.1405 0.175781L21.0937 3.92578C21.5155 4.11328 21.8437 4.34766 22.1249 4.72266C22.3593 5.09766 22.4999 5.51953 22.4999 5.98828C22.4999 9.22266 21.8905 12.1758 20.7187 14.8477C19.6874 17.0977 18.2811 19.0664 16.5937 20.7539C15.1405 22.1602 13.6405 23.1914 12.0937 23.8008C11.5311 24.0821 10.9687 24.0821 10.4061 23.8008ZM11.2499 2.23828L2.24994 5.98828C2.24994 8.51953 2.67182 10.9102 3.56244 13.1602C4.35932 15.2227 5.48432 17.0508 6.89056 18.5508C8.20306 20.0508 9.65614 21.0821 11.2499 21.7383C12.7499 21.1289 14.203 20.0977 15.5155 18.6445C16.9218 17.1445 18.0468 15.3633 18.8905 13.3008C19.7811 11.0508 20.2499 8.61328 20.2499 5.98828L11.2499 2.23828Z" fill="#0092FC"/>
</svg>
