<svg width="24" height="19" viewBox="0 0 24 19" fill="none" xmlns="http://www.w3.org/2000/svg">
<path d="M19.4999 18C21.9843 18 23.9999 15.9844 23.9999 13.5V4.5C23.9999 2.01562 21.9843 0 19.4999 0H15.5624C15.2343 0 14.9999 0.28125 14.9999 0.5625V2.4375C14.9999 2.76562 15.2343 3 15.5624 3H19.4999C20.2968 3 20.9999 3.70312 20.9999 4.5V13.5C20.9999 14.3438 20.2968 15 19.4999 15H15.5624C15.2343 15 14.9999 15.2812 14.9999 15.5625V17.4375C14.9999 17.7656 15.2343 18 15.5624 18H19.4999ZM17.2968 8.57812L9.42181 0.703125C8.71869 0 7.49994 0.515625 7.49994 1.5V6H1.12494C0.468689 6 -6.10352e-05 6.51562 -6.10352e-05 7.125V11.625C-6.10352e-05 12.2812 0.468689 12.75 1.12494 12.75H7.49994V17.25C7.49994 18.2812 8.71869 18.75 9.42181 18.0469L17.2968 10.1719C17.7187 9.75 17.7187 9.04688 17.2968 8.57812Z" fill="#0092FC"/>
</svg>
