<svg width="592" height="102" viewBox="0 0 592 102" fill="none" xmlns="http://www.w3.org/2000/svg">
<path d="M31.2086 100.577H45.6009V33.8577H31.2086V100.577ZM0 0.995812V14.5105H76.8095V0.995812H0Z" fill="white"/>
<path d="M95.8048 86.9205V100.577H166.251V86.9205H95.8048ZM160.646 44.1004H95.8048V57.3305H160.646V44.1004ZM165.342 0.995812H95.8048V14.5105H165.342V0.995812Z" fill="white"/>
<path d="M232.641 0.995812H218.551L180.525 100.577H196.433L225.672 21.3389L254.911 100.577H270.818L232.641 0.995812Z" fill="white"/>
<path d="M326.379 43.2469C309.411 38.6946 301.988 35.2803 301.988 27.7406C301.988 20.7699 308.048 13.6569 323.5 13.6569C337.893 13.6569 343.953 19.9163 346.68 26.7448L360.466 22.3347C355.467 9.95816 342.892 0 323.046 0C301.079 0 287.141 11.0962 286.535 27.1715C285.929 44.5272 299.867 50.6444 321.228 56.3347C339.256 61.1716 348.649 64.5858 348.649 73.5481C348.649 82.6527 338.65 88.2008 325.924 88.2008C310.926 88.2008 301.079 81.0879 297.443 73.9749L283.656 79.3808C289.413 91.6151 304.412 102 326.379 102C350.77 102 363.95 88.6276 363.95 73.1213C363.95 55.0544 347.892 48.9372 326.379 43.2469Z" fill="white"/>
<path d="M384.474 0.995812V100.577H398.866V0.995812H384.474Z" fill="white"/>
<path d="M423.047 86.9205V100.577H493.493V86.9205H423.047ZM487.888 44.1004H423.047V57.3305H487.888V44.1004ZM492.584 0.995812H423.047V14.5105H492.584V0.995812Z" fill="white"/>
<path d="M575.487 100.577H592L569.124 62.4519C581.698 57.4728 588.97 46.2343 588.97 33.1464C588.97 15.364 575.79 0.995812 554.277 0.995812H514.584V14.5105H554.277C567.003 14.5105 574.123 23.3305 574.123 33.1464C574.123 42.8201 567.003 51.6402 554.277 51.6402H514.584V100.577H529.128V65.1548H554.125L575.487 100.577Z" fill="white"/>
</svg>
