<svg width="24" height="24" viewBox="0 0 24 24" fill="none" xmlns="http://www.w3.org/2000/svg">
<path d="M21.7499 0H6.74994C5.48431 0 4.49994 1.03125 4.49994 2.25V4.5H2.24994C0.984314 4.5 -6.10352e-05 5.53125 -6.10352e-05 6.75V21.75C-6.10352e-05 23.0156 0.984314 24 2.24994 24H17.2499C18.4687 24 19.4999 23.0156 19.4999 21.75V19.5H21.7499C22.9687 19.5 23.9999 18.5156 23.9999 17.25V2.25C23.9999 1.03125 22.9687 0 21.7499 0ZM17.2499 21.75H2.24994V12H17.2499V21.75ZM21.7499 17.25H19.4999V6.75C19.4999 5.53125 18.4687 4.5 17.2499 4.5H6.74994V2.25H21.7499V17.25Z" fill="#0092FC"/>
</svg>
