<svg width="24" height="19" viewBox="0 0 24 19" fill="none" xmlns="http://www.w3.org/2000/svg"><path d="M23.437 15.759c.157 0 .282.062.375.187a.445.445 0 01.188.375v1.125a.583.583 0 01-.188.422.507.507 0 01-.375.14H.562a.686.686 0 01-.421-.14.686.686 0 01-.141-.422V.571A.51.51 0 01.14.196.583.583 0 01.563.01h1.125c.157 0 .282.062.375.187a.445.445 0 01.188.375V15.76h21.187zm-1.5-14.25h-6.375c-.25 0-.421.125-.515.375-.094.219-.063.406.093.562l2.485 2.438L13.5 9.009l-3-3-6.797 6.656 1.594 1.594L10.5 9.103l3 2.906 5.672-5.531 2.39 2.343c.157.188.344.235.563.14.25-.093.375-.265.375-.515V2.071a.445.445 0 00-.188-.375.445.445 0 00-.375-.187z" fill="#B3F"/></svg>