<svg width="26" height="25" viewBox="0 0 26 25" fill="none" xmlns="http://www.w3.org/2000/svg">
<path d="M12.0937 6.75879C11.5311 6.61817 11.1093 6.33691 10.7343 5.96191C10.3593 5.58691 10.1249 5.11817 10.078 4.55567C9.98426 3.80567 10.1249 3.14941 10.5937 2.58691C11.0624 2.02441 11.6249 1.69629 12.3749 1.60254V0.758789C12.3749 0.571289 12.4218 0.383789 12.5624 0.243164C12.703 0.102539 12.8905 0.00878906 13.1249 0.00878906H13.8749C14.0624 0.00878906 14.2499 0.102539 14.3905 0.243164C14.5311 0.383789 14.6249 0.571289 14.6249 0.758789V1.60254C15.1874 1.69629 15.6561 1.83691 16.1249 2.11817C16.2187 2.21191 16.3124 2.35254 16.3124 2.54004C16.3124 2.72754 16.2655 2.91504 16.1718 3.00879L15.3749 3.80567C15.1874 3.99317 14.953 4.04004 14.7187 3.89941C14.5311 3.85254 14.3905 3.80567 14.203 3.80567H12.703C12.5624 3.80567 12.4687 3.85254 12.3749 3.94629C12.2811 4.04004 12.2811 4.08691 12.2811 4.18067C12.2811 4.41504 12.3749 4.55567 12.5624 4.55567L14.9061 5.25879C15.4218 5.44629 15.8905 5.72754 16.2655 6.10254C16.6405 6.47754 16.828 6.94629 16.9218 7.46191C17.0155 8.21191 16.828 8.91504 16.3593 9.47754C15.8905 10.04 15.328 10.3682 14.6249 10.415V11.2588C14.6249 11.4932 14.5311 11.6807 14.3905 11.8213C14.2499 11.9619 14.0624 12.0088 13.8749 12.0088H13.1249C12.8905 12.0088 12.703 11.9619 12.5624 11.8213C12.4218 11.6807 12.3749 11.4932 12.3749 11.2588V10.415C11.8124 10.3682 11.2968 10.1807 10.8749 9.89941C10.6874 9.80567 10.6405 9.66504 10.6405 9.47754C10.6405 9.29004 10.6874 9.14941 10.828 9.00879L11.6249 8.21191C11.8124 8.02441 11.9999 8.02441 12.2811 8.11817C12.4218 8.21191 12.6093 8.21191 12.7968 8.21191H14.2968C14.3905 8.21191 14.4843 8.21191 14.578 8.11817C14.6718 8.02441 14.7187 7.93067 14.7187 7.83691C14.7187 7.64941 14.6249 7.50879 14.4374 7.46191L12.0937 6.75879ZM25.0311 15.3838C25.3124 15.7119 25.453 16.0869 25.453 16.5557C25.453 17.0244 25.2655 17.3994 24.9843 17.6807L18.2811 23.3526C17.7187 23.8213 17.1561 24.0088 16.4999 24.0088H0.703003C0.515503 24.0088 0.328003 23.9619 0.187378 23.8213C0.0467529 23.6807 -0.00012207 23.4932 -0.00012207 23.2588V18.7588C-0.00012207 18.5713 0.0467529 18.3838 0.187378 18.2432C0.328003 18.1026 0.515503 18.0088 0.703003 18.0088H3.18738L5.203 16.2276C6.1405 15.4307 7.2655 15.0088 8.48426 15.0088H15.5624C15.9843 15.0088 16.3593 15.1963 16.6405 15.5713C16.9218 15.9463 17.0624 16.3213 16.9687 16.7432C16.8749 17.1182 16.7343 17.4463 16.453 17.6807C16.1718 17.915 15.8437 18.0088 15.5155 18.0088H12.0468C11.8593 18.0088 11.6718 18.1026 11.5311 18.2432C11.3905 18.3838 11.3437 18.5713 11.3437 18.7588C11.3437 18.9932 11.3905 19.1807 11.5311 19.3213C11.6718 19.4619 11.8593 19.5088 12.0468 19.5088H17.2968C17.953 19.5088 18.5155 19.3213 19.0311 18.8526L23.1561 15.3838C23.4374 15.1494 23.7187 15.0088 24.0937 15.0088C24.4687 15.0088 24.7499 15.1494 25.0311 15.3838Z" fill="#BB33FF"/>
</svg>
