<svg width="30" height="21" viewBox="0 0 30 21" fill="none" xmlns="http://www.w3.org/2000/svg">
<path d="M14.9999 6.04615C16.0311 6.04615 16.8749 6.51489 17.6249 7.35865C18.3749 8.24927 18.7499 9.32737 18.7499 10.5462C18.7499 11.8118 18.3749 12.8899 17.6249 13.7337C16.8749 14.6243 16.0311 15.0462 14.9999 15.0462C13.9687 15.0462 13.078 14.6243 12.328 13.7337C11.578 12.8899 11.2499 11.8118 11.2499 10.5462C11.2499 9.32737 11.578 8.24927 12.328 7.35865C13.078 6.51489 13.9687 6.04615 14.9999 6.04615ZM29.1093 1.03052C29.3905 1.17115 29.578 1.35865 29.7655 1.59302C29.9061 1.87427 29.9999 2.15552 29.9999 2.43677V17.2962C29.9999 17.7649 29.8124 18.0931 29.5311 18.3743C29.2499 18.6555 28.8749 18.7962 28.4999 18.7962C28.3124 18.7962 28.1718 18.7962 27.9843 18.7024C26.6249 18.3274 25.1718 18.0931 23.6718 18.0931C22.3593 18.0931 20.9061 18.2337 19.3124 18.5149C18.3749 18.7024 16.9218 19.0774 14.9999 19.5462C13.0311 20.0149 11.6249 20.3431 10.6874 20.5305C9.04676 20.8587 7.59363 20.9993 6.328 20.9993C4.35926 20.9993 2.53113 20.6712 0.890503 19.9681C0.609253 19.8743 0.374878 19.6868 0.234253 19.4055C0.0467529 19.1712 -0.00012207 18.8899 -0.00012207 18.5618V3.70239C-0.00012207 3.28052 0.140503 2.90552 0.421753 2.62427C0.703003 2.34302 1.078 2.20239 1.49988 2.20239C1.6405 2.20239 1.828 2.24927 2.0155 2.29615C3.328 2.71802 4.78113 2.90552 6.328 2.90552C7.59363 2.90552 9.04676 2.76489 10.6874 2.48365C11.6249 2.29615 13.0311 1.96802 14.9999 1.49927C16.9218 1.03052 18.3749 0.655518 19.3124 0.468018C20.9061 0.186768 22.3593 -0.000732422 23.6718 -0.000732422C25.6405 -0.000732422 27.4218 0.374268 29.1093 1.03052ZM27.7499 16.3118V2.95239C26.4843 2.48365 25.1249 2.24927 23.6718 2.24927C22.4999 2.24927 21.1874 2.38989 19.6874 2.67115C18.7499 2.85865 17.3905 3.18677 15.5624 3.65552C13.5468 4.17115 12.0468 4.49927 11.0155 4.68677C9.28113 5.01489 7.68738 5.15552 6.28113 5.15552C4.87488 5.15552 3.5155 5.01489 2.24988 4.68677V18.0462C3.46863 18.5149 4.828 18.7493 6.328 18.7493C7.453 18.7493 8.81238 18.6087 10.3124 18.3274C11.203 18.1399 12.5624 17.8118 14.4374 17.3431C16.4061 16.8743 17.953 16.4993 18.9843 16.3118C20.6718 16.0305 22.2655 15.8431 23.6718 15.8431C25.078 15.8431 26.4374 16.0305 27.7499 16.3118Z" fill="#BB33FF"/>
</svg>
