<svg width="107" height="33" viewBox="0 0 107 33" fill="none" xmlns="http://www.w3.org/2000/svg">
<path d="M21.6614 0.8967C21.8509 0.498471 22.1552 0.375488 22.5858 0.375488C27.6215 0.387201 32.6572 0.381345 37.6986 0.381345C38.4221 0.381345 38.669 0.639022 38.669 1.38277C38.669 2.36078 38.669 3.33878 38.669 4.31679C38.669 5.03711 38.4106 5.30065 37.7101 5.30065C36.3664 5.30065 35.0228 5.30065 33.685 5.30065C33.5644 5.30065 33.4496 5.31236 33.3003 5.31822C33.3003 5.47048 33.3003 5.58761 33.3003 5.71059C33.3003 10.1145 33.3003 14.5243 33.3003 18.9283C33.3003 19.063 33.3003 19.1977 33.2945 19.3324C33.2715 19.713 33.0017 19.9824 32.6285 19.9824C30.992 19.9883 29.3556 19.9883 27.7248 19.9824C27.3401 19.9824 27.0473 19.6838 27.0071 19.2562C26.9956 19.1567 27.0014 19.0513 27.0014 18.9459C27.0014 14.5302 27.0014 10.1145 27.0014 5.69888C27.0014 5.57589 27.0014 5.45877 27.0014 5.30065C26.8636 5.30065 26.7545 5.30065 26.6454 5.30065C25.3018 5.30065 23.9581 5.28893 22.6203 5.3065C22.1839 5.31236 21.8623 5.19523 21.6671 4.78529C21.6614 3.49105 21.6614 2.19095 21.6614 0.8967Z" fill="white"/>
<path d="M77.7198 0C79.5227 0.0117126 81.2568 0.193258 82.9219 0.831596C85.6608 1.87988 87.349 3.87688 87.9978 6.77575C88.5203 9.10657 88.5146 11.4432 87.9461 13.7623C87.171 16.913 85.167 18.8456 82.1583 19.7241C80.0395 20.3448 77.8748 20.421 75.6929 20.1809C74.3148 20.0286 72.9769 19.7123 71.7309 19.0916C69.5031 17.9847 68.1365 16.1576 67.5623 13.7331C66.9594 11.2031 66.9652 8.65563 67.6772 6.15499C68.5097 3.23269 70.4735 1.44065 73.3042 0.585631C74.7455 0.140552 76.2441 0.0117126 77.7198 0ZM73.4133 10.1607C73.4478 10.5414 73.4593 10.922 73.5167 11.2968C73.7521 12.7609 74.5273 13.7799 75.934 14.2308C77.048 14.5881 78.1963 14.5939 79.3275 14.3011C80.6596 13.9556 81.5554 13.1181 81.9056 11.7419C82.1697 10.6995 82.1755 9.64535 81.9056 8.60878C81.5668 7.29111 80.7343 6.4478 79.4423 6.07885C78.271 5.74504 77.0939 5.75676 75.934 6.10813C74.9866 6.39509 74.2631 6.99244 73.8382 7.92359C73.5224 8.62049 73.4248 9.38181 73.4133 10.1607Z" fill="white"/>
<path d="M54.5399 11.1335C54.6548 11.2155 54.7294 11.2741 54.8098 11.3327C55.6711 11.9183 56.3716 12.6445 56.8597 13.5873C57.7497 15.2974 58.6798 16.9899 59.5813 18.694C59.6904 18.899 59.7593 19.1567 59.7593 19.3851C59.7593 19.7248 59.478 19.9766 59.1507 19.9824C57.2157 19.9883 55.2749 19.9883 53.3399 19.9824C52.9896 19.9824 52.8173 19.7189 52.6795 19.4319C51.8125 17.6399 50.9397 15.8479 50.0727 14.0617C50.0095 13.9329 49.9521 13.804 49.8832 13.6752C49.6478 13.2418 49.2688 13.0778 48.8037 13.0778C47.8448 13.0778 46.8917 13.0778 45.8983 13.0778C45.8983 13.195 45.8983 13.3062 45.8983 13.4116C45.8983 15.2974 45.8983 17.1773 45.8983 19.063C45.8983 19.713 45.64 19.9824 45.0083 19.9824C43.4351 19.9824 41.8618 19.9649 40.2827 19.9941C39.8176 20 39.5018 19.6193 39.4846 19.2153C39.4846 19.145 39.4846 19.0688 39.4846 18.9986C39.4846 13.1188 39.4846 7.24495 39.4846 1.36521C39.4846 1.20123 39.4961 1.0314 39.542 0.879131C39.6397 0.586316 39.8349 0.393057 40.1622 0.381345C40.254 0.375488 40.3459 0.375488 40.432 0.375488C44.0552 0.375488 47.6783 0.375488 51.3015 0.375488C52.5877 0.375488 53.8566 0.504327 55.0337 1.08996C56.5783 1.85714 57.6693 3.02254 57.9621 4.79701C58.2377 6.4602 58.0942 8.0824 57.0319 9.48206C56.4922 10.1907 55.7285 10.6006 54.9419 10.9637C54.827 11.0164 54.7064 11.0633 54.5399 11.1335ZM45.7835 4.79115C45.7835 6.10882 45.7835 7.32693 45.7835 8.56262C46.7194 8.56262 47.6381 8.58018 48.5511 8.55676C49.0736 8.54505 49.5961 8.50405 50.1129 8.42206C50.6239 8.34008 51.1235 8.18195 51.4623 7.74859C52.2891 6.70616 51.7436 5.15424 50.3885 4.99612C48.8727 4.82043 47.3338 4.85557 45.7835 4.79115Z" fill="white"/>
<path d="M95.6119 14.1845C95.7669 14.1845 95.8817 14.1845 96.0023 14.1845C98.6436 14.1845 101.291 14.1845 103.932 14.1845C104.558 14.1845 104.828 14.4598 104.828 15.1039C104.828 16.4626 104.828 17.8213 104.828 19.1799C104.828 19.6894 104.546 19.9881 104.052 19.9881C99.413 19.9881 94.7678 19.9881 90.1283 19.9881C89.6805 19.9881 89.445 19.7831 89.3589 19.3322C89.3417 19.2209 89.3359 19.1097 89.3359 18.9925C89.3359 13.1245 89.3359 7.25648 89.3359 1.39431C89.3359 1.24205 89.3474 1.08393 89.3819 0.937521C89.4623 0.586142 89.6632 0.404597 90.0192 0.39874C91.6557 0.392884 93.2864 0.392884 94.9228 0.39874C95.3133 0.39874 95.5946 0.703269 95.6176 1.10735C95.6233 1.18934 95.6176 1.27133 95.6176 1.35332C95.6176 5.49959 95.6119 9.65172 95.6119 13.798C95.6119 13.9093 95.6119 14.0205 95.6119 14.1845Z" fill="white"/>
<path d="M60.7808 10.1671C60.7808 7.25647 60.7808 4.34003 60.7808 1.42944C60.7808 1.28303 60.7808 1.14248 60.7922 0.996075C60.8267 0.621271 61.0506 0.381162 61.4181 0.381162C62.779 0.375306 64.1398 0.375306 65.5064 0.381162C65.8624 0.381162 66.0806 0.603702 66.1265 0.966794C66.1437 1.10149 66.1495 1.23618 66.1495 1.36502C66.1495 7.2389 66.1495 13.1186 66.1495 18.9925C66.1495 19.1389 66.1495 19.2795 66.1265 19.4259C66.0748 19.7948 65.8566 19.9881 65.4949 19.9881C64.1455 19.9881 62.7904 19.9881 61.4411 19.9881C61.0736 19.9881 60.8439 19.7714 60.8037 19.3966C60.7865 19.2561 60.7922 19.1097 60.7922 18.9632C60.7808 16.0292 60.7808 13.1011 60.7808 10.1671Z" fill="white"/>
<path d="M9.8503 0.375238C9.99385 0.398663 10.1431 0.422089 10.2867 0.439657C11.28 0.580209 12.1815 0.949157 12.9854 1.56407C14.0763 2.40152 14.7654 3.52008 15.1501 4.83775C15.3223 5.42338 15.4142 6.02073 15.4659 6.62393C15.5176 7.19199 15.5233 7.76005 15.4831 8.32226C15.4027 9.39982 15.1903 10.454 14.8285 11.473C14.3577 12.8082 13.7146 14.0497 12.8935 15.1976C12.8304 15.2854 12.7844 15.2971 12.6868 15.2561C11.9978 14.9809 11.326 14.6705 10.7288 14.2079C10.5623 14.079 10.413 13.9326 10.2465 13.8038C10.1661 13.7393 10.1604 13.6808 10.212 13.5871C10.746 12.6384 11.1709 11.6428 11.504 10.6062C11.7624 9.79805 11.9633 8.97231 12.0896 8.129C12.2045 7.3911 12.2619 6.6415 12.2447 5.89189C12.216 4.83775 12.0667 3.80118 11.6762 2.81732C11.2686 1.78075 10.6312 0.943301 9.64933 0.416232C9.62637 0.40452 9.61488 0.381094 9.59766 0.363525C9.68953 0.375238 9.76991 0.375238 9.8503 0.375238Z" fill="#FFCB00"/>
<path d="M7.11118 10.5648C7.36957 11.004 7.59924 11.4433 7.87486 11.8474C8.9773 13.5047 10.4013 14.7814 12.21 15.5895C12.8761 15.8823 13.5651 16.0815 14.2886 16.1635C14.857 16.2337 15.4255 16.2279 15.9997 16.1986C16.861 16.1576 17.6533 15.8941 18.3941 15.4548C18.4055 15.449 18.417 15.449 18.4457 15.4431C18.3883 15.6305 18.3366 15.8062 18.2792 15.9761C18.0036 16.7491 17.6246 17.4636 17.0792 18.0726C16.3614 18.8808 15.4772 19.3961 14.4321 19.6245C13.7718 19.7709 13.1057 19.7944 12.4397 19.7124C10.8205 19.5074 9.3735 18.8866 8.11027 17.8325C7.04802 16.9482 6.2097 15.8765 5.49196 14.6935C5.07854 14.0083 4.71106 13.2997 4.37803 12.5677C4.36654 12.5384 4.36654 12.474 4.38951 12.4564C5.03835 11.8415 5.72738 11.2851 6.51402 10.8576C6.7035 10.7522 6.91596 10.6585 7.11118 10.5648Z" fill="#00407F"/>
<path d="M0.932965 17.1765C0.777933 16.8602 0.611417 16.5499 0.473611 16.2278C0.100385 15.3434 -0.0374209 14.4182 0.00851453 13.4636C0.0831596 11.777 0.628642 10.2543 1.64496 8.91322C2.62683 7.61312 3.8958 6.73467 5.41167 6.20175C6.23276 5.90893 7.07683 5.70981 7.94386 5.59269C8.71327 5.48727 9.48843 5.44042 10.2636 5.48142C10.7517 5.50484 11.234 5.58098 11.722 5.63368C11.7909 5.63954 11.8024 5.67468 11.7967 5.7391C11.7565 6.2486 11.7393 6.75809 11.6819 7.26759C11.6244 7.77709 11.5211 8.28659 11.4464 8.79609C11.4349 8.88394 11.4005 8.89565 11.3259 8.89565C9.58605 8.9015 7.96682 9.37001 6.44521 10.2075C5.55521 10.6994 4.73986 11.3026 3.98767 11.9936C3.24696 12.673 2.5809 13.4226 2.01245 14.26C1.50142 15.0155 1.1569 15.8354 1.02484 16.7431C1.00761 16.8778 1.00187 17.0184 0.990384 17.1589C0.961674 17.1648 0.95019 17.1706 0.932965 17.1765Z" fill="#D51030"/>
<path d="M7.00191 18.5526C6.80095 18.6815 6.60572 18.822 6.39327 18.9391C5.84205 19.2378 5.25637 19.3959 4.63625 19.4486C3.97019 19.5013 3.33858 19.4018 2.74716 19.0621C2.16723 18.7283 1.78252 18.2247 1.54136 17.6039C1.51265 17.5219 1.50117 17.4282 1.50117 17.3345C1.49542 16.0988 1.85716 14.9861 2.56916 13.9964C2.58064 13.9847 2.59213 13.973 2.6151 13.9496C2.70697 14.4063 2.82755 14.8397 3.00555 15.2497C3.49935 16.3975 4.22857 17.3404 5.30231 17.9787C5.81908 18.2832 6.37031 18.4706 6.96746 18.5116C6.98469 18.5292 6.99617 18.5409 7.00191 18.5526Z" fill="#902329"/>
<path d="M4.97521 4.22344C4.96372 3.8662 4.98669 3.51483 5.06134 3.15759C5.1934 2.55439 5.45179 2.02732 5.89966 1.60567C6.45663 1.0786 7.11121 0.750647 7.86914 0.645233C8.82805 0.510538 9.66637 0.779928 10.3841 1.42998C10.6482 1.67009 10.832 1.97462 10.987 2.29086C11.1478 2.61295 11.2913 2.95262 11.4406 3.28057C11.4291 3.28643 11.4234 3.29814 11.4119 3.304C11.2856 3.25129 11.1593 3.19273 11.0272 3.14588C10.4588 2.92919 9.87308 2.80036 9.27018 2.75351C8.27682 2.67737 7.32366 2.81207 6.40495 3.21615C5.91114 3.43284 5.47476 3.74322 5.09005 4.12974C5.05559 4.16488 5.03263 4.20587 5.00966 4.24687C4.99818 4.24101 4.98669 4.2293 4.97521 4.22344Z" fill="#E49A00"/>
<path d="M17.0909 9.86786C17.4354 10.0963 17.7168 10.3891 17.9522 10.7229C18.3599 11.3085 18.6011 11.9644 18.7274 12.6672C18.7905 13.0303 18.8135 13.3992 18.7848 13.7623C18.7676 13.9907 18.7216 14.225 18.6585 14.4475C18.6298 14.5471 18.5379 14.6349 18.4575 14.711C17.935 15.2264 17.2919 15.5016 16.5914 15.6422C16.1378 15.7359 15.6842 15.7769 15.2248 15.7827C15.1904 15.7827 15.1616 15.7827 15.1272 15.7827C16.712 14.1313 17.3551 12.1577 17.0909 9.86786Z" fill="#212B59"/>
<path d="M4.64217 5.78585C4.13114 6.05524 3.63733 6.31878 3.13778 6.58231C2.93107 5.6453 4.0163 2.84598 4.75127 2.44775C4.52733 3.56045 4.34933 4.6673 4.64217 5.78585Z" fill="#00407F"/>
<path d="M16.1145 8.83702C16.1375 8.46222 16.1719 8.11669 16.1834 7.76532C16.1949 7.41979 16.1834 7.07427 16.1834 6.70532C17.194 7.63648 17.7567 8.8136 18.0725 10.1488C17.5328 9.51635 16.8437 9.11812 16.1145 8.83702Z" fill="#D51030"/>
<path d="M7.7371 18.4296C8.23665 18.74 8.71897 19.0328 9.20129 19.3315C8.52374 19.8 6.58297 20.1865 5.26233 19.8995C5.31975 19.8761 5.3542 19.8644 5.39439 19.8527C5.85949 19.7004 6.32459 19.554 6.74949 19.308C7.12271 19.0972 7.43852 18.8278 7.69691 18.4823C7.71413 18.4589 7.7371 18.4355 7.7371 18.4296Z" fill="#FFCB00"/>
<path d="M2.92676 30.0957H1.1748V31.4082H3.22266V32H0.433594V27.7344H3.20215V28.332H1.1748V29.5098H2.92676V30.0957ZM5.8091 31.0713L6.89309 27.7344H7.70754L6.17238 32H5.45461L3.92531 27.7344H4.73684L5.8091 31.0713ZM11.1641 30.0957H9.41215V31.4082H11.46V32H8.67094V27.7344H11.4395V28.332H9.41215V29.5098H11.1641V30.0957ZM14.1109 30.3564H13.2847V32H12.5435V27.7344H14.0435C14.5357 27.7344 14.9156 27.8447 15.1832 28.0654C15.4507 28.2861 15.5845 28.6055 15.5845 29.0234C15.5845 29.3086 15.5152 29.5479 15.3765 29.7412C15.2398 29.9326 15.0484 30.0801 14.8023 30.1836L15.7603 31.9619V32H14.9664L14.1109 30.3564ZM13.2847 29.7617H14.0464C14.2964 29.7617 14.4918 29.6992 14.6324 29.5742C14.773 29.4473 14.8433 29.2744 14.8433 29.0557C14.8433 28.8271 14.7779 28.6504 14.647 28.5254C14.5181 28.4004 14.3248 28.3359 14.067 28.332H13.2847V29.7617ZM18.0186 29.7559L19.0001 27.7344H19.8204L18.3907 30.4297V32H17.6466V30.4297L16.2139 27.7344H17.0372L18.0186 29.7559ZM23.898 28.332H22.568V32H21.8326V28.332H20.5143V27.7344H23.898V28.332ZM28.3273 32H27.589V30.1045H25.6818V32H24.9405V27.7344H25.6818V29.5098H27.589V27.7344H28.3273V32ZM30.4684 32H29.7301V27.7344H30.4684V32ZM35.2433 32H34.5021L32.6007 28.9736V32H31.8595V27.7344H32.6007L34.508 30.7725V27.7344H35.2433V32ZM39.8688 31.4463C39.7145 31.6475 39.5007 31.7998 39.2272 31.9033C38.9538 32.0068 38.6432 32.0586 38.2956 32.0586C37.9382 32.0586 37.6218 31.9775 37.3464 31.8154C37.071 31.6533 36.8581 31.4219 36.7077 31.1211C36.5593 30.8184 36.4821 30.4658 36.4762 30.0635V29.7295C36.4762 29.085 36.6305 28.582 36.9391 28.2207C37.2477 27.8574 37.6784 27.6758 38.2311 27.6758C38.7057 27.6758 39.0827 27.793 39.362 28.0273C39.6413 28.2617 39.8093 28.5996 39.8659 29.041H39.1393C39.0573 28.5273 38.7595 28.2705 38.2458 28.2705C37.9137 28.2705 37.6608 28.3906 37.487 28.6309C37.3151 28.8691 37.2262 29.2197 37.2204 29.6826V30.0107C37.2204 30.4717 37.3171 30.8301 37.5104 31.0859C37.7057 31.3398 37.9762 31.4668 38.322 31.4668C38.7009 31.4668 38.9704 31.3809 39.1305 31.209V30.374H38.2516V29.8115H39.8688V31.4463ZM46.5212 32H45.78L43.8786 28.9736V32H43.1374V27.7344H43.8786L45.7859 30.7725V27.7344H46.5212V32ZM50.3703 30.0957H48.6184V31.4082H50.6662V32H47.8772V27.7344H50.6457V28.332H48.6184V29.5098H50.3703V30.0957ZM55.0955 30.9453L55.7517 27.7344H56.4871L55.5027 32H54.7937L53.9822 28.8857L53.1531 32H52.4412L51.4568 27.7344H52.1922L52.8543 30.9395L53.6687 27.7344H54.2898L55.0955 30.9453ZM61.9764 30.0957H60.2244V31.4082H62.2723V32H59.4832V27.7344H62.2518V28.332H60.2244V29.5098H61.9764V30.0957ZM64.3167 27.7344L65.5472 31.0039L66.7747 27.7344H67.7327V32H66.9945V30.5938L67.0677 28.7129L65.8079 32H65.2777L64.0208 28.7158L64.0941 30.5938V32H63.3558V27.7344H64.3167ZM71.5848 30.0957H69.8328V31.4082H71.8807V32H69.0916V27.7344H71.8602V28.332H69.8328V29.5098H71.5848V30.0957ZM74.5316 30.3564H73.7054V32H72.9642V27.7344H74.4642C74.9564 27.7344 75.3363 27.8447 75.6039 28.0654C75.8714 28.2861 76.0052 28.6055 76.0052 29.0234C76.0052 29.3086 75.9359 29.5479 75.7972 29.7412C75.6605 29.9326 75.4691 30.0801 75.223 30.1836L76.181 31.9619V32H75.3871L74.5316 30.3564ZM73.7054 29.7617H74.4671C74.7171 29.7617 74.9125 29.6992 75.0531 29.5742C75.1937 29.4473 75.264 29.2744 75.264 29.0557C75.264 28.8271 75.1986 28.6504 75.0677 28.5254C74.9388 28.4004 74.7455 28.3359 74.4877 28.332H73.7054V29.7617ZM80.4579 31.4463C80.3036 31.6475 80.0897 31.7998 79.8163 31.9033C79.5429 32.0068 79.2323 32.0586 78.8847 32.0586C78.5272 32.0586 78.2108 31.9775 77.9354 31.8154C77.66 31.6533 77.4472 31.4219 77.2968 31.1211C77.1483 30.8184 77.0712 30.4658 77.0653 30.0635V29.7295C77.0653 29.085 77.2196 28.582 77.5282 28.2207C77.8368 27.8574 78.2675 27.6758 78.8202 27.6758C79.2948 27.6758 79.6718 27.793 79.9511 28.0273C80.2304 28.2617 80.3983 28.5996 80.455 29.041H79.7284C79.6464 28.5273 79.3485 28.2705 78.8348 28.2705C78.5028 28.2705 78.2499 28.3906 78.0761 28.6309C77.9042 28.8691 77.8153 29.2197 77.8095 29.6826V30.0107C77.8095 30.4717 77.9061 30.8301 78.0995 31.0859C78.2948 31.3398 78.5653 31.4668 78.911 31.4668C79.2899 31.4668 79.5595 31.3809 79.7196 31.209V30.374H78.8407V29.8115H80.4579V31.4463ZM84.2455 30.0957H82.4936V31.4082H84.5414V32H81.7523V27.7344H84.5209V28.332H82.4936V29.5098H84.2455V30.0957ZM87.8544 30.9014C87.8544 30.7139 87.788 30.5693 87.6552 30.4678C87.5243 30.3662 87.287 30.2637 86.9433 30.1602C86.5995 30.0566 86.3261 29.9414 86.123 29.8145C85.7343 29.5703 85.54 29.252 85.54 28.8594C85.54 28.5156 85.6796 28.2324 85.9589 28.0098C86.2402 27.7871 86.6044 27.6758 87.0517 27.6758C87.3486 27.6758 87.6132 27.7305 87.8456 27.8398C88.078 27.9492 88.2607 28.1055 88.3935 28.3086C88.5263 28.5098 88.5927 28.7334 88.5927 28.9795H87.8544C87.8544 28.7568 87.7841 28.583 87.6435 28.458C87.5048 28.3311 87.3056 28.2676 87.0458 28.2676C86.8036 28.2676 86.6152 28.3193 86.4804 28.4229C86.3476 28.5264 86.2812 28.6709 86.2812 28.8564C86.2812 29.0127 86.3534 29.1436 86.498 29.249C86.6425 29.3525 86.8808 29.4541 87.2128 29.5537C87.5448 29.6514 87.8114 29.7637 88.0126 29.8906C88.2138 30.0156 88.3613 30.1602 88.455 30.3242C88.5488 30.4863 88.5956 30.6768 88.5956 30.8955C88.5956 31.251 88.4589 31.5342 88.1855 31.7451C87.914 31.9541 87.5448 32.0586 87.078 32.0586C86.7695 32.0586 86.4853 32.002 86.2255 31.8887C85.9677 31.7734 85.7665 31.6152 85.622 31.4141C85.4794 31.2129 85.4081 30.9785 85.4081 30.7109H86.1493C86.1493 30.9531 86.2294 31.1406 86.3896 31.2734C86.5497 31.4062 86.7792 31.4727 87.078 31.4727C87.3359 31.4727 87.5292 31.4209 87.6581 31.3174C87.789 31.2119 87.8544 31.0732 87.8544 30.9014ZM95.0839 32H94.3427L92.4414 28.9736V32H91.7002V27.7344H92.4414L94.3486 30.7725V27.7344H95.0839V32ZM99.8442 29.9785C99.8442 30.3965 99.7719 30.7637 99.6274 31.0801C99.4829 31.3945 99.2759 31.6367 99.0063 31.8066C98.7387 31.9746 98.4302 32.0586 98.0805 32.0586C97.7348 32.0586 97.4262 31.9746 97.1548 31.8066C96.8852 31.6367 96.6762 31.3955 96.5278 31.083C96.3813 30.7705 96.3071 30.4102 96.3052 30.002V29.7617C96.3052 29.3457 96.3784 28.9785 96.5249 28.6602C96.6733 28.3418 96.8813 28.0986 97.1489 27.9307C97.4184 27.7607 97.727 27.6758 98.0747 27.6758C98.4223 27.6758 98.73 27.7598 98.9975 27.9277C99.2671 28.0938 99.4751 28.334 99.6216 28.6484C99.768 28.9609 99.8423 29.3252 99.8442 29.7412V29.9785ZM99.103 29.7559C99.103 29.2832 99.0132 28.9209 98.8335 28.6689C98.6557 28.417 98.4028 28.291 98.0747 28.291C97.7544 28.291 97.5034 28.417 97.3218 28.6689C97.1421 28.9189 97.0503 29.2734 97.0464 29.7324V29.9785C97.0464 30.4473 97.1372 30.8096 97.3188 31.0654C97.5024 31.3213 97.7563 31.4492 98.0805 31.4492C98.4087 31.4492 98.6606 31.3242 98.8364 31.0742C99.0141 30.8242 99.103 30.459 99.103 29.9785V29.7559ZM104.408 30.9453L105.064 27.7344H105.8L104.815 32H104.106L103.295 28.8857L102.466 32H101.754L100.77 27.7344H101.505L102.167 30.9395L102.981 27.7344H103.603L104.408 30.9453Z" fill="white"/>
</svg>
