<svg width="107" height="33" viewBox="0 0 107 33" fill="none" xmlns="http://www.w3.org/2000/svg"><path d="M21.661.897c.19-.399.494-.522.925-.522 5.036.012 10.071.006 15.113.006.723 0 .97.258.97 1.002v2.934c0 .72-.258.984-.959.984h-4.025c-.12 0-.235.011-.385.017v13.61c0 .135 0 .27-.005.404-.023.381-.293.65-.666.65-1.637.006-3.273.006-4.904 0-.385 0-.678-.298-.718-.726-.011-.1-.006-.205-.006-.31V5.3h-.356c-1.343 0-2.687-.012-4.025.005-.436.006-.758-.11-.953-.52-.006-1.295-.006-2.595-.006-3.89zM77.72 0c1.803.012 3.537.193 5.202.832 2.739 1.048 4.427 3.045 5.076 5.944.522 2.33.517 4.667-.052 6.986-.775 3.151-2.779 5.084-5.788 5.962-2.118.62-4.283.697-6.465.457-1.378-.152-2.716-.469-3.962-1.09-2.228-1.106-3.594-2.933-4.169-5.358-.603-2.53-.597-5.077.115-7.578.833-2.922 2.796-4.714 5.627-5.57C74.746.142 76.244.013 77.72 0zm-4.307 10.16c.035.381.046.762.104 1.137.235 1.464 1.01 2.483 2.417 2.934 1.114.357 2.262.363 3.394.07 1.332-.345 2.227-1.183 2.578-2.56a6.228 6.228 0 000-3.132c-.34-1.318-1.172-2.161-2.464-2.53a6.116 6.116 0 00-3.508.03c-.947.286-1.67.883-2.096 1.815-.316.696-.413 1.458-.425 2.237zm-18.873.973c.115.083.19.141.27.2.861.585 1.562 1.312 2.05 2.254.89 1.71 1.82 3.403 2.721 5.107.11.205.178.463.178.691 0 .34-.281.592-.608.597-1.935.006-3.876.006-5.811 0-.35 0-.523-.263-.66-.55-.867-1.792-1.74-3.584-2.607-5.37-.063-.13-.12-.258-.19-.387-.235-.433-.614-.597-1.08-.597h-2.905v5.985c0 .65-.258.92-.89.92-1.573 0-3.146-.018-4.725.011-.465.006-.781-.375-.798-.779V1.365c0-.164.011-.334.057-.486.098-.293.293-.486.62-.498.092-.006.184-.006.27-.006h10.87c1.286 0 2.555.13 3.732.715 1.544.767 2.635 1.933 2.928 3.707.276 1.663.132 3.285-.93 4.685-.54.709-1.303 1.119-2.09 1.482-.115.052-.236.1-.402.17zm-8.757-6.342v3.772c.936 0 1.855.017 2.768-.006a11.63 11.63 0 001.562-.135c.51-.082 1.01-.24 1.35-.673.826-1.043.28-2.595-1.075-2.753-1.515-.176-3.054-.14-4.605-.205zm49.829 9.393h8.32c.626 0 .896.276.896.92v4.076c0 .51-.282.808-.776.808H90.128c-.448 0-.683-.205-.77-.656a2.204 2.204 0 01-.022-.34V1.395c0-.152.011-.31.046-.456.08-.352.281-.533.637-.54 1.637-.005 3.267-.005 4.904 0 .39 0 .672.305.695.71.005.081 0 .163 0 .245 0 4.147-.006 8.299-.006 12.445v.386zM60.78 10.167V1.43c0-.146 0-.287.012-.433.035-.375.259-.615.626-.615 1.361-.006 2.722-.006 4.088 0 .356 0 .575.223.62.586.018.134.023.27.023.398v17.627c0 .147 0 .287-.023.434-.051.369-.27.562-.631.562H61.44c-.367 0-.597-.217-.637-.591-.018-.14-.012-.287-.012-.434-.011-2.934-.011-5.862-.011-8.796z" fill="#fff"/><path d="M9.85.375c.144.024.293.047.437.065.993.14 1.894.51 2.698 1.124 1.091.838 1.78 1.956 2.165 3.274.172.585.264 1.183.316 1.786.052.568.057 1.136.017 1.698a12.063 12.063 0 01-.655 3.151 14.859 14.859 0 01-1.934 3.725c-.064.087-.11.1-.207.058-.69-.275-1.361-.585-1.958-1.048-.167-.129-.316-.275-.482-.404-.08-.065-.087-.123-.035-.217.534-.949.959-1.944 1.292-2.98.258-.809.46-1.635.586-2.478.114-.738.172-1.487.155-2.237-.029-1.054-.178-2.09-.569-3.075C11.27 1.781 10.631.943 9.65.417 9.626.404 9.615.38 9.598.363c.092.011.172.011.252.011z" fill="#FFCB00"/><path d="M7.111 10.565c.259.439.488.878.764 1.282 1.102 1.658 2.526 2.934 4.335 3.742a7.136 7.136 0 002.079.574c.568.07 1.136.065 1.71.036.862-.041 1.654-.305 2.395-.744.012-.006.023-.006.052-.012-.058.188-.11.363-.167.533-.275.773-.654 1.488-1.2 2.097a4.84 4.84 0 01-2.647 1.552c-.66.146-1.326.17-1.992.087a8.239 8.239 0 01-4.33-1.88c-1.062-.884-1.9-1.956-2.618-3.139a20.678 20.678 0 01-1.114-2.125c-.011-.03-.011-.094.012-.112.648-.614 1.337-1.17 2.124-1.598.19-.106.402-.2.597-.293z" fill="#00407F"/><path d="M.933 17.177c-.155-.317-.322-.627-.46-.95-.373-.884-.51-1.809-.464-2.763a7.96 7.96 0 011.636-4.55c.982-1.3 2.25-2.18 3.767-2.712a12.486 12.486 0 012.532-.61 12.25 12.25 0 012.32-.11c.488.023.97.099 1.458.152.069.006.08.04.075.105-.04.51-.058 1.02-.115 1.529-.058.51-.16 1.019-.236 1.528-.011.088-.046.1-.12.1-1.74.005-3.36.474-4.88 1.311a12.754 12.754 0 00-2.458 1.787 12.95 12.95 0 00-1.976 2.266c-.51.755-.855 1.575-.987 2.483-.017.135-.023.275-.035.416-.028.006-.04.012-.057.018z" fill="#D51030"/><path d="M7.002 18.553c-.201.128-.396.269-.609.386a4.415 4.415 0 01-1.757.51c-.666.052-1.297-.047-1.889-.387-.58-.334-.964-.837-1.206-1.458a.826.826 0 01-.04-.27 5.54 5.54 0 011.068-3.338l.046-.046c.092.456.213.89.39 1.3.494 1.148 1.224 2.09 2.297 2.729a3.75 3.75 0 001.665.533c.018.017.03.029.035.04z" fill="#902329"/><path d="M4.975 4.223a4.455 4.455 0 01.086-1.065c.132-.604.39-1.13.839-1.552a3.514 3.514 0 011.97-.96c.958-.135 1.796.134 2.514.784.264.24.448.545.603.86.16.323.304.663.454.99-.012.006-.018.018-.03.024-.125-.053-.252-.111-.384-.158a6.267 6.267 0 00-1.757-.392c-.993-.077-1.946.058-2.865.462-.494.217-.93.527-1.315.914a.54.54 0 00-.08.117c-.012-.006-.023-.018-.035-.024z" fill="#E49A00"/><path d="M17.09 9.868c.345.228.627.521.862.855.408.585.65 1.241.775 1.944.064.363.087.732.058 1.095a3.51 3.51 0 01-.127.685c-.028.1-.12.188-.2.264-.523.515-1.166.79-1.867.931a7.163 7.163 0 01-1.366.14h-.098c1.585-1.65 2.228-3.624 1.964-5.914z" fill="#212B59"/><path d="M4.642 5.786l-1.504.796c-.207-.937.878-3.736 1.613-4.134-.224 1.112-.402 2.22-.109 3.338z" fill="#00407F"/><path d="M16.114 8.837c.023-.375.058-.72.07-1.072.01-.345 0-.69 0-1.06 1.01.931 1.573 2.109 1.889 3.444-.54-.633-1.23-1.03-1.959-1.312z" fill="#D51030"/><path d="M7.737 18.43c.5.31.982.603 1.464.901-.677.469-2.618.855-3.939.569.058-.024.092-.036.132-.047.465-.153.93-.299 1.355-.545.374-.21.69-.48.948-.826.017-.023.04-.046.04-.052z" fill="#FFCB00"/><path d="M2.927 30.096H1.175v1.312h2.048V32H.433v-4.266h2.77v.598H1.174v1.178h1.752v.586zm2.882.975l1.084-3.337h.815L6.172 32h-.717l-1.53-4.266h.812l1.072 3.337zm5.355-.975H9.412v1.312h2.048V32H8.67v-4.266h2.77v.598H9.412v1.178h1.752v.586zm2.947.26h-.826V32h-.742v-4.266h1.5c.493 0 .873.11 1.14.331.268.221.402.54.402.958a1.2 1.2 0 01-.209.718 1.308 1.308 0 01-.574.443l.958 1.778V32h-.794l-.855-1.644zm-.826-.594h.761c.25 0 .446-.063.586-.188a.662.662 0 00.211-.518c0-.229-.065-.406-.196-.53-.129-.126-.322-.19-.58-.194h-.782v1.43zm4.734-.006L19 27.734h.82l-1.43 2.696V32h-.743v-1.57l-1.433-2.696h.823l.982 2.022zm5.879-1.424h-1.33V32h-.735v-3.668h-1.319v-.598h3.384v.598zM28.328 32h-.739v-1.895h-1.907V32h-.741v-4.266h.74v1.776h1.908v-1.776h.738V32zm2.14 0h-.738v-4.266h.738V32zm4.775 0h-.74L32.6 28.974V32h-.741v-4.266h.74l1.908 3.038v-3.038h.735V32zm4.626-.554a1.417 1.417 0 01-.642.457 2.618 2.618 0 01-.931.156 1.83 1.83 0 01-.95-.244 1.63 1.63 0 01-.638-.694 2.46 2.46 0 01-.232-1.057v-.334c0-.645.154-1.148.463-1.51.309-.363.74-.544 1.292-.544.475 0 .852.117 1.131.351.28.235.447.573.504 1.014h-.727c-.082-.514-.38-.77-.893-.77-.332 0-.585.12-.759.36-.172.238-.26.589-.267 1.052v.328c0 .46.097.82.29 1.075.196.254.466.38.812.38.379 0 .648-.085.808-.257v-.835h-.878v-.563h1.617v1.635zM46.52 32h-.741l-1.901-3.026V32h-.742v-4.266h.742l1.907 3.038v-3.038h.735V32zm3.85-1.904h-1.753v1.312h2.048V32h-2.789v-4.266h2.769v.598h-2.028v1.178h1.752v.586zm4.724.85l.657-3.212h.735L55.503 32h-.71l-.81-3.114-.83 3.114h-.712l-.984-4.266h.735l.662 3.205.815-3.205h.62l.806 3.211zm6.881-.85h-1.752v1.312h2.048V32h-2.789v-4.266h2.769v.598h-2.028v1.178h1.752v.586zm2.34-2.362l1.231 3.27 1.228-3.27h.958V32h-.739v-1.406l.074-1.881L65.808 32h-.53l-1.257-3.284.073 1.878V32h-.738v-4.266h.96zm7.269 2.362h-1.752v1.312h2.048V32h-2.79v-4.266h2.77v.598h-2.028v1.178h1.752v.586zm2.947.26h-.827V32h-.74v-4.266h1.5c.491 0 .871.11 1.139.331.267.221.401.54.401.958a1.2 1.2 0 01-.208.718 1.308 1.308 0 01-.574.443l.958 1.778V32h-.794l-.855-1.644zm-.827-.594h.762c.25 0 .445-.063.586-.188.14-.127.211-.3.211-.518 0-.229-.065-.406-.196-.53-.13-.126-.322-.19-.58-.194h-.783v1.43zm6.753 1.684a1.417 1.417 0 01-.642.457 2.618 2.618 0 01-.931.156 1.83 1.83 0 01-.95-.244 1.63 1.63 0 01-.638-.694 2.458 2.458 0 01-.232-1.057v-.334c0-.645.155-1.148.463-1.51.309-.363.74-.544 1.292-.544.475 0 .852.117 1.131.351.28.235.447.573.504 1.014h-.727c-.082-.514-.38-.77-.893-.77-.332 0-.585.12-.759.36-.172.238-.26.589-.266 1.052v.328c0 .46.096.82.29 1.075.195.254.465.38.811.38.379 0 .648-.085.809-.257v-.835h-.88v-.563h1.618v1.635zm3.788-1.35h-1.752v1.312h2.047V32h-2.789v-4.266h2.769v.598h-2.027v1.178h1.752v.586zm3.608.805a.514.514 0 00-.199-.433c-.13-.102-.368-.204-.712-.308a3.449 3.449 0 01-.82-.346c-.389-.244-.583-.562-.583-.955 0-.343.14-.627.419-.85.281-.222.645-.333 1.093-.333.297 0 .561.055.794.164a1.3 1.3 0 01.547.469c.133.2.2.424.2.67h-.739c0-.222-.07-.396-.21-.521-.14-.127-.338-.19-.598-.19-.242 0-.43.051-.566.155a.518.518 0 00-.199.433.47.47 0 00.217.393c.144.104.383.205.715.305.332.097.598.21.8.337.2.125.348.27.442.433.094.162.14.353.14.571 0 .356-.136.64-.41.85-.271.21-.64.314-1.107.314a2.11 2.11 0 01-.853-.17 1.453 1.453 0 01-.603-.475 1.185 1.185 0 01-.214-.703h.741c0 .242.08.43.24.562.16.133.39.2.689.2.258 0 .451-.052.58-.156a.508.508 0 00.196-.416zM95.084 32h-.741l-1.902-3.026V32h-.74v-4.266h.74l1.908 3.038v-3.038h.735V32zm4.76-2.021c0 .418-.072.785-.217 1.101a1.646 1.646 0 01-.62.727 1.704 1.704 0 01-.927.252 1.72 1.72 0 01-.925-.252 1.686 1.686 0 01-.627-.724 2.548 2.548 0 01-.223-1.081v-.24c0-.416.073-.784.22-1.102.148-.318.356-.561.624-.73.27-.17.578-.254.926-.254a1.7 1.7 0 01.922.252c.27.166.478.406.625.72.146.313.22.677.222 1.093v.238zm-.741-.223c0-.473-.09-.835-.27-1.087-.177-.252-.43-.378-.758-.378a.877.877 0 00-.753.378c-.18.25-.272.604-.276 1.063v.247c0 .468.091.83.273 1.086a.886.886 0 00.761.384c.329 0 .58-.125.756-.375.178-.25.267-.615.267-1.096v-.222zm5.305 1.19l.656-3.212h.736L104.815 32h-.709l-.811-3.114-.829 3.114h-.712l-.984-4.266h.735l.662 3.205.814-3.205h.622l.805 3.211z" fill="#fff"/></svg>