<svg width="32" height="32" viewBox="0 0 32 32" fill="none" xmlns="http://www.w3.org/2000/svg"><path d="M23.678 18.387c-.062-.03-2.395-1.178-2.81-1.327a1.599 1.599 0 00-.543-.12c-.315 0-.58.156-.785.465-.233.346-.939 1.17-1.157 1.417-.028.033-.067.072-.09.072-.021 0-.382-.15-.492-.196-2.502-1.088-4.402-3.702-4.662-4.143-.037-.063-.039-.092-.04-.092a.794.794 0 01.137-.161c.127-.126.265-.291.398-.452.063-.076.127-.152.189-.223.193-.225.279-.4.379-.602l.052-.105c.243-.484.035-.892-.032-1.024-.055-.11-1.04-2.488-1.145-2.738-.252-.602-.584-.883-1.047-.883-.043 0 0 0-.18.008-.219.009-1.412.166-1.94.499-.56.352-1.506 1.477-1.506 3.454 0 1.78 1.13 3.46 1.614 4.1.013.015.035.048.067.095 1.857 2.712 4.172 4.722 6.518 5.659 2.26.902 3.33 1.007 3.938 1.007.255 0 .46-.02.64-.038l.115-.011c.78-.07 2.495-.958 2.886-2.042.307-.854.388-1.787.184-2.126-.14-.23-.382-.346-.688-.492z" fill="#fff"/><path d="M16.284 0C7.617 0 .567 6.998.567 15.6c0 2.781.744 5.505 2.155 7.888l-2.7 7.963a.415.415 0 00.52.53l8.303-2.64a15.824 15.824 0 007.44 1.856C24.95 31.197 32 24.2 32 15.599S24.95 0 16.284 0zm0 27.947c-2.446 0-4.814-.706-6.85-2.042a.415.415 0 00-.354-.048l-4.16 1.322 1.343-3.962a.416.416 0 00-.058-.379 12.18 12.18 0 01-2.37-7.239c0-6.81 5.584-12.35 12.449-12.35 6.864 0 12.448 5.54 12.448 12.35s-5.584 12.348-12.448 12.348z" fill="#fff"/></svg>