<?xml version="1.0" encoding="utf-8"?><svg width="24" height="18" fill="none" xmlns="http://www.w3.org/2000/svg" viewBox="0 0 24 18"><path d="M23.438 15.75c.156 0 .28.063.375.188a.445.445 0 01.187.374v1.125a.583.583 0 01-.188.422.507.507 0 01-.375.141H.563a.686.686 0 01-.421-.14.686.686 0 01-.141-.422V.563C0 .405.047.28.14.188A.583.583 0 01.563 0h1.125c.157 0 .282.063.375.188a.445.445 0 01.188.374V15.75h21.188zm-1.5-14.25h-6.375c-.25 0-.422.125-.516.375-.094.219-.063.406.094.563l2.484 2.437L13.5 9l-3-3-6.797 6.656 1.594 1.594L10.5 9.094l3 2.906 5.672-5.531 2.39 2.343c.157.188.344.235.563.141.25-.094.375-.265.375-.515V2.061a.445.445 0 00-.188-.374.445.445 0 00-.375-.188z" fill="#FF7F00"/></svg>