<?xml version="1.0" encoding="utf-8"?><svg width="26" height="22" fill="none" xmlns="http://www.w3.org/2000/svg" viewBox="0 0 26 22"><path d="M12.094 6.75c-.563-.14-.985-.422-1.36-.797a2.202 2.202 0 01-.656-1.406c-.094-.75.047-1.406.516-1.969.469-.562 1.031-.89 1.781-.984V.75c0-.188.047-.375.188-.516A.776.776 0 0113.124 0h.75c.188 0 .375.094.516.234.14.141.234.329.234.516v.844c.563.093 1.031.234 1.5.515a.594.594 0 01.188.422c0 .188-.047.375-.141.469l-.797.797c-.188.187-.422.234-.656.094-.188-.047-.328-.094-.516-.094h-1.5a.426.426 0 00-.328.14c-.094.094-.094.141-.094.235 0 .234.094.375.281.375l2.344.703c.516.188.985.469 1.36.844.375.375.562.843.656 1.36.094.75-.094 1.452-.563 2.015-.468.562-1.03.89-1.734.937v.844a.776.776 0 01-.234.563c-.141.14-.329.187-.516.187h-.75c-.234 0-.422-.047-.563-.188-.14-.14-.187-.328-.187-.562v-.844a3.184 3.184 0 01-1.5-.515c-.188-.094-.234-.235-.234-.422 0-.188.046-.328.187-.469l.797-.797c.188-.187.375-.187.656-.094.14.094.328.094.516.094h1.5c.094 0 .187 0 .281-.094.094-.093.14-.187.14-.28 0-.188-.093-.329-.28-.376l-2.344-.703zm12.937 8.625c.282.328.422.703.422 1.172s-.187.844-.469 1.125l-6.703 5.672c-.562.468-1.125.656-1.781.656H.703c-.187 0-.375-.047-.515-.188-.141-.14-.188-.328-.188-.562v-4.5c0-.188.047-.375.188-.516A.753.753 0 01.703 18h2.485l2.015-1.781A4.992 4.992 0 018.484 15h7.079c.421 0 .796.188 1.078.563.28.374.422.75.328 1.171-.094.375-.235.703-.516.938-.281.234-.61.328-.937.328h-3.47a.753.753 0 00-.515.234c-.14.141-.187.328-.187.516 0 .234.047.422.187.563.14.14.328.187.516.187h5.25c.656 0 1.219-.188 1.734-.656l4.125-3.469c.282-.234.563-.375.938-.375s.656.14.937.375z" fill="#FF7F00"/></svg>