<?xml version="1.0" encoding="utf-8"?><svg width="24" height="24" fill="none" xmlns="http://www.w3.org/2000/svg" viewBox="0 0 24 24"><path d="M16.875 6.75H1.125c-.313 0-.578.11-.797.328A1.085 1.085 0 000 7.875v3.75c0 .313.11.578.328.797.219.219.484.328.797.328H1.5c0 1.219.281 2.375.844 3.469a7.443 7.443 0 002.297 2.625 7.546 7.546 0 003.234 1.312V24h2.25v-3.844a7.547 7.547 0 003.234-1.312 7.442 7.442 0 002.297-2.625 7.48 7.48 0 00.844-3.469h.375c.313 0 .578-.11.797-.328.219-.219.328-.485.328-.797v-3.75c0-.313-.11-.578-.328-.797a1.085 1.085 0 00-.797-.328zM15.75 10.5h-1.5v2.25c0 .938-.234 1.813-.703 2.625a5.157 5.157 0 01-1.922 1.922A5.166 5.166 0 019 18a5.166 5.166 0 01-2.625-.703 5.157 5.157 0 01-1.922-1.922 5.165 5.165 0 01-.703-2.625V10.5h-1.5V9h13.5v1.5zM12.375 6V1.125c0-.313.11-.578.328-.797C12.922.11 13.188 0 13.5 0c.313 0 .578.11.797.328.219.219.328.484.328.797V6h-2.25zm-9 0V1.125c0-.313.11-.578.328-.797C3.922.11 4.188 0 4.5 0c.313 0 .578.11.797.328.219.219.328.484.328.797V6h-2.25z" fill="#FFD500"/></svg>