<?xml version="1.0" encoding="utf-8"?><svg width="24" height="24" fill="none" xmlns="http://www.w3.org/2000/svg" viewBox="0 0 24 24"><path d="M23.438 18H3V3.562c0-.14-.094-.28-.188-.374C2.72 3.094 2.579 3 2.438 3H.562a.594.594 0 00-.421.188.532.532 0 00-.141.374v16.875c0 .188.047.329.14.422.094.094.235.141.422.141h22.875c.141 0 .282-.047.375-.14a.595.595 0 00.188-.422v-1.875c0-.141-.094-.282-.188-.375-.093-.094-.234-.188-.375-.188zM17.483 7.453V7.5c.094-.094.235-.14.422-.094.188.047.282.14.375.282L22.5 16.5h-18v-4.875l4.078-6.797A.492.492 0 019 4.594c.188 0 .375.047.516.187l3.984 5.344 3.984-2.672z" fill="#FFD500"/></svg>