<?xml version="1.0" encoding="utf-8"?><svg width="24" height="21" fill="none" xmlns="http://www.w3.org/2000/svg" viewBox="0 0 24 21"><path d="M23.25 1.875c.188 0 .375.094.516.234.14.141.234.329.234.516v.75a.776.776 0 01-.234.563c-.141.14-.328.187-.516.187H13.5V5.25a.776.776 0 01-.234.563c-.141.14-.329.187-.516.187h-1.5c-.234 0-.422-.047-.563-.188-.14-.14-.187-.328-.187-.562V4.125H.75c-.234 0-.422-.047-.563-.188C.047 3.797 0 3.61 0 3.375v-.75c0-.188.047-.375.188-.516a.776.776 0 01.562-.234h9.75V.75c0-.188.047-.375.188-.516A.776.776 0 0111.25 0h1.5c.188 0 .375.094.516.234.14.141.234.328.234.516v1.125h9.75zm0 15c.188 0 .375.094.516.234.14.141.234.328.234.516v.75a.776.776 0 01-.234.563c-.141.14-.328.187-.516.187H7.5v1.125a.776.776 0 01-.234.563c-.141.14-.329.187-.516.187h-1.5c-.234 0-.422-.047-.563-.188-.14-.14-.187-.328-.187-.562v-1.125H.75c-.234 0-.422-.047-.563-.188-.14-.14-.187-.328-.187-.562v-.75c0-.188.047-.375.188-.516a.776.776 0 01.562-.234H4.5V15.75c0-.188.047-.375.188-.516A.776.776 0 015.25 15h1.5c.188 0 .375.094.516.234.14.141.234.329.234.516v1.125h15.75zm0-7.5c.188 0 .375.094.516.234.14.141.234.329.234.516v.75a.776.776 0 01-.234.563c-.141.14-.328.187-.516.187H19.5v1.125a.776.776 0 01-.234.563c-.141.14-.328.187-.516.187h-1.5c-.234 0-.422-.047-.563-.188-.14-.14-.187-.328-.187-.562v-1.125H.75c-.234 0-.422-.047-.563-.188-.14-.14-.187-.328-.187-.562v-.75c0-.188.047-.375.188-.516a.776.776 0 01.562-.234H16.5V8.25c0-.188.047-.375.188-.516a.776.776 0 01.562-.234h1.5c.188 0 .375.094.516.234.14.141.234.329.234.516v1.125h3.75z" fill="red"/></svg>