<?xml version="1.0" encoding="utf-8"?><svg width="80" height="80" fill="none" xmlns="http://www.w3.org/2000/svg" viewBox="0 0 80 80"><circle cx="40.001" cy="40" r="40" fill="#0079FD"/><path fill-rule="evenodd" clip-rule="evenodd" d="M35.001 48.333l5-4.9c-.65-.067-1.133-.1-1.667-.1-4.45 0-13.333 2.233-13.333 6.667v3.333h15l-5-5zM38.334 40a6.665 6.665 0 006.667-6.667 6.665 6.665 0 00-6.667-6.667 6.665 6.665 0 00-6.666 6.667A6.665 6.665 0 0038.334 40zM45.784 54.166l-5.783-5.833 2.333-2.35 3.45 3.467 8.55-8.617 2.334 2.35-10.884 10.983z" fill="#fff"/></svg>