<?xml version="1.0" encoding="utf-8"?><svg width="48" height="48" fill="none" xmlns="http://www.w3.org/2000/svg" viewBox="0 0 48 48"><path fill-rule="evenodd" clip-rule="evenodd" d="M24 0c13.218 0 24 10.781 24 24S37.218 48 24 48C10.78 48 0 37.218 0 24 0 10.78 10.781 0 24 0zm0 4.328c10.835 0 19.672 8.837 19.672 19.672S34.835 43.672 24 43.672 4.328 34.835 4.328 24 13.165 4.328 24 4.328z" fill="#000"/><path fill-rule="evenodd" clip-rule="evenodd" d="M35.485 36.957h-9.592V18.015h4.584v15.083h5.008v3.86zm-11.43-12.152c0 3.454-2.285 5.334-5.556 5.334h-.672c-3.245 0-5.606-1.677-5.606-5.183v-14.06h4.584v14.301c0 1.002.399 1.503 1.196 1.503h.25c1.02 0 1.22-.981 1.22-1.804v-14h4.584v13.909zm-8.61 9.198c0 1.484 1.2 2.691 2.675 2.691a2.676 2.676 0 002.675-2.69 2.676 2.676 0 00-2.675-2.691 2.686 2.686 0 00-2.676 2.69zm.504 0c0-1.268.978-2.282 2.17-2.282 1.2 0 2.171 1.014 2.171 2.282 0 1.261-.963 2.283-2.17 2.283-1.193 0-2.171-1.022-2.171-2.283zm1.192 1.323h.497V34.21h.405c.566 0 .581.254.588.5.016.446.008.507.1.615h.512c-.107-.146-.084-.223-.107-.638-.016-.27-.039-.577-.382-.646v-.016c.397-.16.45-.43.45-.615 0-.699-.596-.776-.878-.776H17.14v2.69zm.497-2.322h.52c.32 0 .542.085.542.407 0 .193-.076.431-.489.431h-.573v-.838z" fill="#000"/></svg>