<?xml version="1.0" encoding="utf-8"?><svg width="122" height="42" fill="none" xmlns="http://www.w3.org/2000/svg" viewBox="0 0 122 42"><path fill-rule="evenodd" clip-rule="evenodd" d="M0 7.787C0 3.487 3.486 0 7.787 0h92.022c4.3 0 7.787 3.486 7.787 7.787v3.067h-1.416V7.787a6.371 6.371 0 00-6.371-6.371H7.787a6.37 6.37 0 00-6.371 6.37v26.428a6.37 6.37 0 006.37 6.37H99.81a6.371 6.371 0 006.371-6.37v-3.068h1.416v3.068c0 4.3-3.487 7.786-7.787 7.786H7.787A7.786 7.786 0 010 34.214V7.787z" fill="#000"/><path fill-rule="evenodd" clip-rule="evenodd" d="M99.368 23.841c-1.367-1.211-6.117-5.307-13.716-3.404 0 0 8.938 4.937 14.549 16.136 4.714-9.975 12.258-25.065 21.316-32.562-13.82 5.775-20.639 16.812-22.149 19.83zm-18.53-13.636c0 1.187-.3 2.12-.902 2.799-.598.68-1.43 1.019-2.499 1.019-1.091 0-1.935-.333-2.53-.999-.59-.67-.886-1.612-.886-2.829 0-1.206.297-2.14.892-2.803.594-.666 1.44-.999 2.534-.999 1.065 0 1.896.338 2.495 1.014.598.676.897 1.609.897 2.799zm-5.905 0c0 1.004.213 1.766.639 2.287.429.517 1.05.775 1.865.775.822 0 1.442-.258 1.86-.775.42-.517.63-1.28.63-2.287 0-.996-.21-1.752-.63-2.266-.415-.517-1.032-.775-1.85-.775-.82 0-1.446.26-1.875.78-.426.518-.639 1.271-.639 2.262zM10.991 7.99c.473-.544 1.117-.816 1.932-.816.56 0 1.122.132 1.683.395l.365-.74c-.582-.284-1.26-.426-2.038-.426-.73 0-1.365.156-1.906.467-.538.31-.95.754-1.237 1.328-.284.575-.426 1.244-.426 2.008 0 1.22.296 2.16.887 2.823.595.662 1.438.994 2.53.994.753 0 1.387-.097 1.9-.29v-.755c-.662.186-1.251.28-1.768.28-.842 0-1.49-.264-1.947-.792-.453-.53-.68-1.28-.68-2.25 0-.943.236-1.685.705-2.226zm6.138 5.931h4.132v-.77h-3.27v-2.727h3.072v-.76h-3.072V7.274h3.27V6.51h-4.132v7.411zm7.472-3.082v3.082h-.862V6.51h2.033c.909 0 1.58.174 2.012.522.436.348.654.872.654 1.572 0 .98-.496 1.642-1.49 1.987l2.012 3.33h-1.018l-1.795-3.082h-1.546zm0-.74h1.181c.608 0 1.054-.12 1.338-.36.284-.243.426-.607.426-1.09 0-.49-.145-.843-.436-1.06-.287-.216-.75-.324-1.389-.324h-1.12V10.1zm7.806 3.822h.862V7.275h2.347V6.51H30.06v.765h2.347v6.646zm5.16-7.411h.861v7.411h-.861V6.51zm3.73 7.411h.862v-3.168h3.072v-.765h-3.072V7.275h3.27V6.51h-4.132v7.411zM47.49 6.51h.862v7.411h-.862V6.51zm4.972 1.48c.473-.544 1.117-.816 1.931-.816.561 0 1.122.132 1.683.395l.365-.74c-.58-.284-1.26-.426-2.037-.426-.73 0-1.366.156-1.907.467-.537.31-.95.754-1.236 1.328-.284.575-.426 1.244-.426 2.008 0 1.22.295 2.16.887 2.823.595.662 1.438.994 2.53.994.753 0 1.387-.097 1.9-.29v-.755c-.662.186-1.252.28-1.769.28-.841 0-1.49-.264-1.946-.792-.453-.53-.68-1.28-.68-2.25 0-.943.235-1.685.705-2.226zm10.797 5.931l-.923-2.357h-2.97l-.913 2.357h-.872l2.93-7.441h.725l2.915 7.441h-.892zm-1.191-3.132l-.862-2.297c-.112-.29-.227-.647-.345-1.07-.074.325-.18.681-.32 1.07l-.871 2.296h2.398zm8.85 2.164c.666-.649.999-1.585.999-2.808 0-1.146-.32-2.038-.959-2.677-.638-.639-1.534-.958-2.686-.958h-2.271v7.411h2.053c1.247 0 2.201-.322 2.864-.968zm-.644-4.963c.487.49.73 1.219.73 2.185 0 .99-.258 1.739-.776 2.246-.517.503-1.289.755-2.316.755h-1.05v-5.92h1.252c.957 0 1.677.244 2.16.734zm-54.88 21.718v6.865h-5.098V17.708h6.181c5.127 0 7.691 1.858 7.691 5.574 0 2.185-1.067 3.876-3.2 5.071l5.497 8.22h-5.781l-4-6.865h-1.29zm0-3.832h.954c1.781 0 2.671-.787 2.671-2.362 0-1.299-.873-1.948-2.619-1.948h-1.006v4.31zM39.91 36.573h-11.2V17.708h11.2v4.09h-6.103v2.968h5.651v4.09h-5.651v3.562h6.103v4.155zm7.058 0h5.097V21.876h4.594v-4.168H42.362v4.168h4.607v14.697zm12.916 0V17.708h5.123v18.865h-5.123zm9.742 0h11.2v-4.155h-6.103v-3.561h5.652v-4.09h-5.652v-2.969h6.104v-4.09h-11.2v18.865z" fill="#000"/></svg>