<?xml version="1.0" encoding="utf-8"?><svg width="80" height="80" fill="none" xmlns="http://www.w3.org/2000/svg" viewBox="0 0 80 80"><circle cx="40" cy="40" r="40" fill="#006AFF"/><path d="M44 25.333h-8V28h8v-2.667zm-5.333 17.334h2.666v-8h-2.666v8zm10.706-8.814l1.894-1.893c-.574-.68-1.2-1.32-1.88-1.88l-1.894 1.893A11.948 11.948 0 0040 29.333c-6.627 0-12 5.374-12 12 0 6.627 5.36 12 12 12s12-5.373 12-12a11.95 11.95 0 00-2.627-7.48zM40 50.667a9.326 9.326 0 01-9.333-9.334A9.327 9.327 0 0140 32a9.327 9.327 0 019.333 9.333A9.326 9.326 0 0140 50.667z" fill="#fff"/></svg>