<?xml version="1.0" encoding="utf-8"?><svg width="24" height="18" fill="none" xmlns="http://www.w3.org/2000/svg" viewBox="0 0 24 18"><path d="M23.437 15.75c.157 0 .282.063.375.188a.445.445 0 01.188.374v1.125a.583.583 0 01-.188.422.507.507 0 01-.375.141H.562a.686.686 0 01-.422-.14.686.686 0 01-.14-.422V.563C0 .405.047.28.14.188A.583.583 0 01.562 0h1.125c.157 0 .282.063.375.188a.445.445 0 01.188.374V15.75h21.187zm-1.5-14.25h-6.375c-.25 0-.422.125-.515.375-.094.219-.063.406.093.563l2.485 2.437L13.5 9l-3-3-6.797 6.656 1.594 1.594L10.5 9.094l3 2.906 5.672-5.531 2.39 2.343c.157.188.344.235.563.141.25-.094.375-.265.375-.515V2.061a.445.445 0 00-.188-.374.445.445 0 00-.375-.188z" fill="url(#aqpaint0_linear)"/><defs><linearGradient id="aqpaint0_linear" x1="-2.5" y1="8.991" x2="21.5" y2="8.991" gradientUnits="userSpaceOnUse"><stop stop-color="#B3F"/><stop offset="1" stop-color="#F7761D"/></linearGradient></defs></svg>