<?xml version="1.0" encoding="utf-8"?><svg width="11" height="11" fill="none" xmlns="http://www.w3.org/2000/svg" viewBox="0 0 11 11"><path d="M10.967 3.232c-.027-.585-.12-.985-.256-1.335a2.695 2.695 0 00-.634-.974A2.696 2.696 0 009.103.29c-.35-.136-.75-.23-1.335-.256C7.18.006 6.994 0 5.5 0 4.006 0 3.819.006 3.232.033c-.585.027-.985.12-1.335.256-.367.138-.7.354-.974.634-.28.275-.496.607-.634.974-.136.35-.23.75-.256 1.335C.006 3.82 0 4.006 0 5.5 0 6.994.006 7.18.033 7.768c.027.585.12.985.256 1.335.138.367.354.7.634.974.275.28.607.496.974.634.35.136.75.23 1.335.256.587.027.774.033 2.268.033 1.494 0 1.681-.006 2.268-.033.585-.027.985-.12 1.335-.256a2.812 2.812 0 001.608-1.608c.136-.35.23-.75.256-1.335.027-.587.033-.774.033-2.268 0-1.494-.006-1.681-.033-2.268zm-.99 4.49c-.025.537-.114.828-.19 1.022-.184.48-.564.859-1.043 1.044-.194.075-.485.165-1.022.189-.58.027-.753.032-2.222.032-1.469 0-1.643-.005-2.223-.032-.536-.024-.827-.114-1.02-.19a1.704 1.704 0 01-.633-.41 1.704 1.704 0 01-.412-.633c-.075-.194-.165-.485-.189-1.021C.997 7.143.991 6.969.991 5.5c0-1.469.006-1.642.032-2.222.025-.537.114-.828.19-1.022.088-.239.228-.455.41-.632.178-.183.394-.323.633-.412.194-.075.485-.164 1.022-.189C3.858.997 4.03.991 5.5.991c1.468 0 1.642.006 2.222.032.537.025.828.114 1.022.19.239.088.455.228.632.41.183.178.323.394.411.633.076.194.165.485.19 1.022.026.58.032.753.032 2.222 0 1.469-.006 1.643-.032 2.223z" fill="#fff"/><path d="M5.5 2.676a2.824 2.824 0 100 5.648 2.824 2.824 0 000-5.648zm0 4.657a1.833 1.833 0 110-3.666 1.833 1.833 0 010 3.666zM9.096 2.564a.66.66 0 11-1.32 0 .66.66 0 011.32 0z" fill="#fff"/></svg>