<?xml version="1.0" encoding="utf-8"?><svg width="11" height="11" fill="none" xmlns="http://www.w3.org/2000/svg" viewBox="0 0 11 11"><path d="M10 .25c.188 0 .375.094.516.234.14.141.234.329.234.516v9a.763.763 0 01-.75.75H1a.743.743 0 01-.54-.21.743.743 0 01-.21-.54V1C.25.812.32.625.46.484A.763.763 0 011 .25h9zm-6.586 9h.023V4.234h-1.57V9.25h1.547zm-.773-5.695c.234 0 .445-.07.632-.258a.874.874 0 00.282-.633.874.874 0 00-.282-.633.874.874 0 00-.632-.281.803.803 0 00-.633.281.849.849 0 00-.258.633c0 .234.07.445.258.633.164.187.375.258.633.258zM9.25 9.25V6.508c0-.774-.117-1.336-.328-1.711-.305-.445-.82-.68-1.524-.68-.375 0-.68.094-.96.258-.235.14-.422.328-.516.54h-.024v-.68h-1.5V9.25h1.547V6.766c0-.375.047-.68.164-.891.141-.258.399-.398.774-.398.351 0 .586.164.703.445.07.187.117.492.117.89V9.25H9.25z" fill="#fff"/></svg>