<?xml version="1.0" encoding="utf-8"?><svg width="11" height="11" fill="none" xmlns="http://www.w3.org/2000/svg" viewBox="0 0 11 11"><path d="M10.75 1.375c0-.305-.117-.563-.328-.797C10.187.368 9.93.25 9.625.25h-8.25C1.047.25.789.367.578.578a1.062 1.062 0 00-.328.797v8.25c0 .328.094.586.328.797.211.234.469.328.797.328h4.617V6.602h-1.43V5.008h1.43V3.836c0-.656.164-1.148.54-1.523.374-.376.866-.563 1.5-.563.468 0 .89.023 1.218.07v1.407h-.844c-.304 0-.515.07-.633.21-.093.141-.14.329-.14.563v1.008H9.25l-.21 1.594H7.632v4.148h1.992c.305 0 .563-.094.797-.328.21-.211.328-.469.328-.797v-8.25z" fill="#fff"/></svg>