<?xml version="1.0" encoding="utf-8"?><svg width="20" height="20" fill="none" xmlns="http://www.w3.org/2000/svg" viewBox="0 0 20 20"><path d="M18.944 4.797l-1.277 12.82H2.332L1.304 5.046 10 9.915l8.944-5.118z" fill="#F2F2F2"/><path d="M18.511 2.382L10 10.377 1.489 2.382H18.51z" fill="#F2F2F2"/><path d="M2.333 6.074v11.544H.943A.943.943 0 010 16.675V4.374l1.523.041.81 1.659z" fill="#F14336"/><path d="M20 4.374v12.301c0 .52-.422.943-.944.943h-1.389V6.074l.77-1.817L20 4.374z" fill="#D32E2A"/><path d="M20 3.325v1.049l-2.332 1.7L10 11.663 2.332 6.074 0 4.374V3.325c0-.52.422-.943.943-.943h.546L10 8.586l8.511-6.204h.546c.52 0 .943.423.943.943z" fill="#F14336"/><path d="M2.333 6.074L0 5.712V4.374l2.333 1.7z" fill="#D32E2A"/></svg>