<?xml version="1.0" encoding="utf-8"?><svg width="122" height="29" fill="none" xmlns="http://www.w3.org/2000/svg" viewBox="0 0 122 29"><path d="M39.506 3.714c0 .84-.209 1.574-.73 2.099-.627.63-1.359.944-2.299.944s-1.67-.314-2.297-.944c-.627-.63-.94-1.365-.94-2.31 0-.944.313-1.679.94-2.309.626-.63 1.358-.944 2.297-.944.418 0 .836.105 1.254.315.418.21.731.42.94.734l-.522.525c-.418-.525-.94-.735-1.672-.735-.626 0-1.253.21-1.67.735-.523.42-.732 1.05-.732 1.785 0 .734.21 1.364.731 1.784.523.42 1.045.735 1.672.735.73 0 1.253-.21 1.775-.735.313-.315.522-.735.522-1.26h-2.297v-.84h3.028v.42zm4.805-2.625h-2.82v1.995h2.611v.735h-2.611v1.994h2.82v.84h-3.656V.355h3.656v.734zm3.447 5.564h-.836V1.089h-1.776V.355h4.387v.734h-1.776v5.564zm4.804 0V.355h.836v6.298h-.836zm4.387 0h-.836V1.089h-1.776V.355h4.283v.734h-1.776v5.564h.105zm9.922-.84c-.627.63-1.358.944-2.298.944s-1.671-.314-2.298-.944c-.626-.63-.94-1.365-.94-2.31 0-.944.314-1.679.94-2.309.627-.63 1.358-.944 2.298-.944s1.671.315 2.298.944c.627.63.94 1.365.94 2.31 0 .944-.314 1.679-.94 2.309zm-3.969-.525c.418.42 1.044.735 1.671.735s1.253-.21 1.671-.735c.418-.42.731-1.05.731-1.784 0-.735-.209-1.365-.73-1.785-.419-.42-1.045-.735-1.672-.735s-1.253.21-1.671.735a2.539 2.539 0 00-.731 1.785c0 .734.209 1.364.731 1.784zm6.058 1.365V.355h.94l3.029 4.933V.355h.835v6.298h-.835L69.69 1.509v5.144h-.731zM61.127 15.89c-2.507 0-4.492 1.889-4.492 4.513 0 2.519 1.985 4.513 4.492 4.513 2.506 0 4.49-1.89 4.49-4.513 0-2.73-1.984-4.514-4.49-4.514zm0 7.137c-1.358 0-2.507-1.155-2.507-2.73 0-1.574 1.149-2.728 2.507-2.728 1.357 0 2.506 1.05 2.506 2.729 0 1.574-1.149 2.729-2.507 2.729zm-9.714-7.138c-2.506 0-4.49 1.89-4.49 4.514 0 2.519 1.983 4.513 4.49 4.513s4.491-1.89 4.491-4.513c0-2.73-1.984-4.514-4.49-4.514zm0 7.138c-1.358 0-2.506-1.155-2.506-2.73 0-1.574 1.148-2.728 2.506-2.728 1.358 0 2.507 1.05 2.507 2.729 0 1.574-1.149 2.729-2.507 2.729zM39.82 17.254v1.89h4.491c-.105 1.049-.522 1.889-1.044 2.413-.627.63-1.672 1.365-3.447 1.365-2.82 0-4.909-2.204-4.909-5.038s2.193-5.039 4.909-5.039c1.462 0 2.611.63 3.447 1.365l1.357-1.365c-1.149-1.05-2.61-1.889-4.7-1.889-3.76 0-6.998 3.149-6.998 6.928 0 3.778 3.238 6.927 6.998 6.927 2.09 0 3.551-.63 4.805-1.994 1.253-1.26 1.67-3.044 1.67-4.409 0-.42 0-.84-.104-1.154H39.82zm47.418 1.47c-.418-1.05-1.463-2.835-3.76-2.835-2.298 0-4.178 1.785-4.178 4.514 0 2.519 1.88 4.513 4.387 4.513 1.984 0 3.237-1.26 3.655-1.994l-1.462-1.05c-.522.735-1.149 1.26-2.193 1.26-1.045 0-1.672-.42-2.194-1.365l5.954-2.519-.21-.525zm-6.058 1.469c0-1.68 1.358-2.624 2.298-2.624.73 0 1.462.42 1.67.944l-3.968 1.68zm-4.909 4.303h1.984v-13.12h-1.984v13.12zm-3.133-7.662c-.523-.525-1.358-1.05-2.403-1.05-2.193 0-4.282 1.995-4.282 4.514s1.985 4.408 4.282 4.408c1.045 0 1.88-.525 2.298-1.05h.105v.63c0 1.68-.94 2.624-2.403 2.624-1.148 0-1.984-.84-2.193-1.574l-1.671.735c.522 1.154 1.776 2.624 3.969 2.624 2.298 0 4.178-1.365 4.178-4.619V16.1h-1.88v.735zm-2.298 6.193c-1.358 0-2.507-1.155-2.507-2.73 0-1.574 1.15-2.728 2.507-2.728 1.358 0 2.402 1.154 2.402 2.729 0 1.574-1.044 2.729-2.402 2.729zm25.484-11.651h-4.7v13.12h1.985v-4.933h2.715c2.194 0 4.283-1.574 4.283-4.093 0-2.52-2.09-4.094-4.283-4.094zm.105 6.298h-2.82V13.16h2.82c1.462 0 2.298 1.26 2.298 2.204-.105 1.155-.94 2.31-2.298 2.31zm12.011-1.89c-1.462 0-2.925.63-3.447 1.995l1.776.734c.418-.734 1.044-.944 1.775-.944 1.045 0 1.985.63 2.089 1.68v.104c-.313-.21-1.149-.525-1.984-.525-1.88 0-3.76 1.05-3.76 2.94 0 1.784 1.566 2.938 3.238 2.938 1.357 0 1.984-.63 2.506-1.26h.105v1.05h1.88v-5.038c-.209-2.31-1.985-3.674-4.178-3.674zm-.209 7.243c-.627 0-1.567-.315-1.567-1.155 0-1.05 1.149-1.364 2.089-1.364.836 0 1.254.21 1.776.42-.209 1.26-1.254 2.099-2.298 2.099zm10.967-6.928l-2.194 5.668h-.104l-2.298-5.668h-2.089l3.447 7.977-1.985 4.409h1.985l5.327-12.386h-2.089zm-17.547 8.397h1.984v-13.12h-1.984v13.12z" fill="#000"/><path d="M.862.88c-.313.315-.418.84-.418 1.47v23.196c0 .63.21 1.155.523 1.47l.104.105 12.951-13.016v-.21L.862.88z" fill="url(#bspaint0_linear)"/><path d="M18.2 18.513l-4.283-4.303v-.315L18.2 9.592l.104.105 5.118 2.939c1.462.84 1.462 2.204 0 3.043L18.2 18.513z" fill="url(#bspaint1_linear)"/><path d="M18.305 18.409L13.918 14 .862 27.12c.523.525 1.254.525 2.194.105l15.248-8.817z" fill="url(#bspaint2_linear)"/><path d="M18.305 9.591L3.055.88C2.116.355 1.386.46.863.984L13.918 14l4.387-4.409z" fill="url(#bspaint3_linear)"/><path opacity=".2" d="M18.2 18.303L3.056 26.91c-.836.525-1.567.42-2.09 0l-.104.105.105.105c.522.42 1.253.525 2.089 0L18.2 18.303z" fill="#000"/><path opacity=".2" d="M.862 26.91c-.313-.314-.418-.84-.418-1.469v.105c0 .63.21 1.155.523 1.47v-.105H.862zm22.56-11.546l-5.222 2.94.104.105 5.118-2.94c.731-.42 1.044-.944 1.044-1.469 0 .525-.417.945-1.044 1.364z" fill="#000"/><path opacity=".2" d="M3.055.985l20.367 11.65c.627.42 1.044.84 1.044 1.365 0-.525-.313-1.05-1.044-1.47L3.055.88C1.593.04.445.67.445 2.35v.104C.444.88 1.592.144 3.054.984z" fill="#fff"/><defs><linearGradient id="bspaint0_linear" x1="12.769" y1="2.15" x2="-4.847" y2="19.677" gradientUnits="userSpaceOnUse"><stop stop-color="#00A0FF"/><stop offset=".007" stop-color="#00A1FF"/><stop offset=".26" stop-color="#00BEFF"/><stop offset=".512" stop-color="#00D2FF"/><stop offset=".76" stop-color="#00DFFF"/><stop offset="1" stop-color="#00E3FF"/></linearGradient><linearGradient id="bspaint1_linear" x1="25.337" y1="14.001" x2=".065" y2="14.001" gradientUnits="userSpaceOnUse"><stop stop-color="#FFE000"/><stop offset=".409" stop-color="#FFBD00"/><stop offset=".775" stop-color="orange"/><stop offset="1" stop-color="#FF9C00"/></linearGradient><linearGradient id="bspaint2_linear" x1="15.931" y1="16.41" x2="-7.957" y2="40.179" gradientUnits="userSpaceOnUse"><stop stop-color="#FF3A44"/><stop offset="1" stop-color="#C31162"/></linearGradient><linearGradient id="bspaint3_linear" x1="-2.379" y1="-6.808" x2="8.289" y2="3.807" gradientUnits="userSpaceOnUse"><stop stop-color="#32A071"/><stop offset=".069" stop-color="#2DA771"/><stop offset=".476" stop-color="#15CF74"/><stop offset=".801" stop-color="#06E775"/><stop offset="1" stop-color="#00F076"/></linearGradient></defs></svg>