<?xml version="1.0" encoding="utf-8"?><svg width="162" height="39" fill="none" xmlns="http://www.w3.org/2000/svg" viewBox="0 0 162 39"><path d="M52.342 5.285c0 1.12-.28 2.1-.98 2.799-.84.84-1.82 1.26-3.079 1.26-1.26 0-2.239-.42-3.079-1.26-.84-.84-1.26-1.82-1.26-3.079 0-1.26.42-2.24 1.26-3.079.84-.84 1.82-1.26 3.08-1.26.56 0 1.119.14 1.679.42.56.28.98.56 1.26.98l-.7.7c-.56-.7-1.26-.98-2.24-.98-.84 0-1.68.28-2.239.98-.7.56-.98 1.4-.98 2.379 0 .98.28 1.82.98 2.38.7.559 1.4.979 2.24.979.979 0 1.679-.28 2.379-.98.42-.42.7-.98.7-1.68h-3.08V4.726h4.059v.56zm6.438-3.499H55v2.66h3.5v.979H55v2.659h3.78v1.12H53.88V.806h4.899v.98zm4.618 7.418h-1.12V1.786H59.9v-.98h5.878v.98h-2.379v7.418zm6.438 0V.806h1.12v8.398h-1.12zm5.878 0h-1.12V1.786h-2.38v-.98h5.739v.98h-2.38v7.418h.14zm13.295-1.12c-.84.84-1.82 1.26-3.079 1.26-1.26 0-2.24-.42-3.079-1.26-.84-.84-1.26-1.82-1.26-3.079 0-1.26.42-2.24 1.26-3.079.84-.84 1.82-1.26 3.08-1.26 1.259 0 2.238.42 3.078 1.26.84.84 1.26 1.82 1.26 3.079 0 1.26-.42 2.24-1.26 3.079zm-5.318-.7c.56.56 1.4.98 2.24.98.839 0 1.678-.28 2.238-.98.56-.56.98-1.4.98-2.379 0-.98-.28-1.82-.98-2.38-.56-.559-1.4-.979-2.239-.979-.84 0-1.68.28-2.24.98-.559.56-.979 1.4-.979 2.379 0 .98.28 1.82.98 2.38zm8.117 1.82V.806h1.26l4.058 6.578V.806h1.12v8.398h-1.12l-4.338-6.858v6.858h-.98zM81.311 21.52c-3.359 0-6.018 2.518-6.018 6.017a5.973 5.973 0 006.018 6.018c3.36 0 6.018-2.52 6.018-6.018 0-3.639-2.659-6.018-6.018-6.018zm0 9.516c-1.82 0-3.359-1.54-3.359-3.639 0-2.1 1.54-3.639 3.36-3.639 1.819 0 3.358 1.4 3.358 3.639 0 2.1-1.54 3.639-3.359 3.639zm-13.015-9.517c-3.36 0-6.018 2.52-6.018 6.018a5.973 5.973 0 006.018 6.018c3.359 0 6.018-2.52 6.018-6.018 0-3.639-2.66-6.018-6.018-6.018zm0 9.517c-1.82 0-3.36-1.54-3.36-3.639 0-2.1 1.54-3.639 3.36-3.639 1.82 0 3.359 1.4 3.359 3.639 0 2.1-1.54 3.639-3.36 3.639zM52.76 23.338v2.52h6.018c-.14 1.4-.7 2.519-1.4 3.218-.84.84-2.239 1.82-4.618 1.82-3.779 0-6.578-2.94-6.578-6.718 0-3.779 2.94-6.718 6.578-6.718 1.96 0 3.499.84 4.619 1.82l1.819-1.82c-1.54-1.399-3.499-2.519-6.298-2.519-5.038 0-9.377 4.199-9.377 9.237s4.339 9.237 9.377 9.237c2.8 0 4.758-.84 6.438-2.66 1.68-1.678 2.24-4.058 2.24-5.877 0-.56 0-1.12-.14-1.54H52.76zm63.538 1.96c-.56-1.4-1.959-3.779-5.038-3.779s-5.598 2.38-5.598 6.018c0 3.359 2.519 6.018 5.878 6.018 2.659 0 4.338-1.68 4.898-2.66l-1.959-1.399c-.7.98-1.54 1.68-2.939 1.68-1.4 0-2.24-.56-2.939-1.82l7.977-3.359-.28-.7zm-8.117 1.96c0-2.24 1.819-3.5 3.079-3.5.979 0 1.959.56 2.239 1.26l-5.318 2.24zm-6.578 5.737h2.659V15.501h-2.659v17.494zM97.406 22.78c-.7-.7-1.82-1.4-3.22-1.4-2.938 0-5.737 2.66-5.737 6.018 0 3.359 2.659 5.878 5.738 5.878 1.4 0 2.519-.7 3.079-1.4h.14v.84c0 2.24-1.26 3.499-3.22 3.499-1.539 0-2.658-1.12-2.938-2.1l-2.24.98c.7 1.54 2.38 3.5 5.319 3.5 3.079 0 5.598-1.82 5.598-6.159V21.8h-2.52v.98zm-3.08 8.257c-1.819 0-3.358-1.54-3.358-3.639 0-2.1 1.54-3.639 3.359-3.639s3.219 1.54 3.219 3.639c0 2.1-1.4 3.639-3.22 3.639zM128.476 15.5h-6.298v17.494h2.659v-6.578h3.639c2.939 0 5.738-2.099 5.738-5.458 0-3.358-2.799-5.458-5.738-5.458zm.14 8.397h-3.779V17.88h3.779c1.959 0 3.079 1.68 3.079 2.94-.14 1.539-1.26 3.078-3.079 3.078zm16.094-2.519c-1.959 0-3.919.84-4.618 2.66l2.379.979c.56-.98 1.399-1.26 2.379-1.26 1.4 0 2.659.84 2.799 2.24v.14c-.42-.28-1.539-.7-2.659-.7-2.519 0-5.038 1.4-5.038 3.918 0 2.38 2.099 3.919 4.338 3.919 1.82 0 2.659-.84 3.359-1.68h.14v1.4h2.519v-6.718c-.28-3.079-2.659-4.898-5.598-4.898zm-.28 9.657c-.84 0-2.099-.42-2.099-1.54 0-1.4 1.539-1.819 2.799-1.819 1.12 0 1.679.28 2.379.56-.28 1.68-1.679 2.799-3.079 2.799zm14.695-9.237l-2.939 7.557h-.14l-3.079-7.557h-2.799l4.619 10.636-2.659 5.878h2.659l7.137-16.514h-2.799zm-23.512 11.196h2.659V15.501h-2.659v17.494z" fill="#000"/><path d="M.56 1.506c-.42.42-.56 1.12-.56 1.96v30.928c0 .84.28 1.54.7 1.96l.14.14L18.194 19.14v-.28L.56 1.506z" fill="url(#bepaint0_linear)"/><path d="M23.792 25.018l-5.738-5.738v-.42l5.738-5.738.14.14 6.857 3.919c1.96 1.12 1.96 2.939 0 4.058l-6.997 3.779z" fill="url(#bepaint1_linear)"/><path d="M23.931 24.878L18.053 19 .56 36.494c.7.7 1.679.7 2.939.14L23.93 24.878z" fill="url(#bepaint2_linear)"/><path d="M23.931 13.122L3.5 1.506c-1.26-.7-2.24-.56-2.94.14L18.054 19l5.878-5.878z" fill="url(#bepaint3_linear)"/><path opacity=".2" d="M23.791 24.738L3.5 36.214c-1.12.7-2.1.56-2.8 0l-.14.14.14.14c.7.56 1.68.7 2.8 0L23.79 24.738z" fill="#000"/><path opacity=".2" d="M.56 36.214c-.42-.42-.56-1.12-.56-1.96v.14c0 .84.28 1.54.7 1.96v-.14H.56zm30.23-15.395l-6.998 3.919.14.14 6.857-3.919c.98-.56 1.4-1.26 1.4-1.959 0 .7-.56 1.26-1.4 1.82z" fill="#000"/><path opacity=".2" d="M3.499 1.646l27.29 15.534c.84.56 1.4 1.12 1.4 1.82 0-.7-.42-1.4-1.4-1.96L3.5 1.507C1.539.386 0 1.226 0 3.466v.14c0-2.1 1.54-3.08 3.499-1.96z" fill="#fff"/><defs><linearGradient id="bepaint0_linear" x1="16.514" y1="3.199" x2="-6.974" y2="26.686" gradientUnits="userSpaceOnUse"><stop stop-color="#00A0FF"/><stop offset=".007" stop-color="#00A1FF"/><stop offset=".26" stop-color="#00BEFF"/><stop offset=".512" stop-color="#00D2FF"/><stop offset=".76" stop-color="#00DFFF"/><stop offset="1" stop-color="#00E3FF"/></linearGradient><linearGradient id="bepaint1_linear" x1="33.356" y1="19.001" x2="-.508" y2="19.001" gradientUnits="userSpaceOnUse"><stop stop-color="#FFE000"/><stop offset=".409" stop-color="#FFBD00"/><stop offset=".775" stop-color="orange"/><stop offset="1" stop-color="#FF9C00"/></linearGradient><linearGradient id="bepaint2_linear" x1="20.75" y1="22.213" x2="-11.1" y2="54.063" gradientUnits="userSpaceOnUse"><stop stop-color="#FF3A44"/><stop offset="1" stop-color="#C31162"/></linearGradient><linearGradient id="bepaint3_linear" x1="-3.783" y1="-8.744" x2="10.44" y2="5.479" gradientUnits="userSpaceOnUse"><stop stop-color="#32A071"/><stop offset=".069" stop-color="#2DA771"/><stop offset=".476" stop-color="#15CF74"/><stop offset=".801" stop-color="#06E775"/><stop offset="1" stop-color="#00F076"/></linearGradient></defs></svg>