<?xml version="1.0" encoding="utf-8"?><svg width="73" height="56" fill="none" xmlns="http://www.w3.org/2000/svg" viewBox="0 0 73 56"><path d="M53 20C53 9 41.25 0 27 0 12.625 0 1 9 1 20c0 4.375 1.75 8.25 4.75 11.5-1.75 3.875-4.5 6.875-4.5 6.875-.25.25-.375.75-.25 1.125.25.375.5.5 1 .5 4.5 0 8.25-1.5 11-3.125 4 2 8.875 3.125 14 3.125 14.25 0 26-8.875 26-20zm15.25 27.5C71.125 44.25 73 40.375 73 36c0-8.25-6.75-15.5-16.25-18.5.125.875.25 1.75.25 2.5 0 13.25-13.5 24-30 24-1.375 0-2.75 0-4-.125C26.875 51 36.125 56 47 56c5.125 0 9.875-1.125 13.875-3.125C63.625 54.5 67.375 56 72 56c.375 0 .75-.125.875-.5s.125-.875-.25-1.125c0 0-2.75-3-4.375-6.875z" fill="#006AFF"/></svg>