<?xml version="1.0" encoding="utf-8"?><svg width="49" height="65" fill="none" xmlns="http://www.w3.org/2000/svg" viewBox="0 0 49 65"><path d="M13.125 45.375C12 44.25 12.5 44.625 10 43.875c-1.25-.25-2.25-.875-3.25-1.625L1.125 56.125C.5 57.5 1.625 59 3 58.875l6.625-.25 4.5 4.75c1 1.125 2.75.75 3.25-.5l6.625-16c-1.375.75-2.875 1.125-4.5 1.125-2.375 0-4.75-.875-6.375-2.625zm35.625 10.75L43.125 42.25c-1 .75-2 1.375-3.125 1.625-2.75.75-2.125.375-3.25 1.5-1.625 1.75-4 2.625-6.375 2.625-1.625 0-3.125-.375-4.5-1.125l6.625 16c.5 1.25 2.25 1.625 3.25.5l4.5-4.75 6.625.25c1.375.125 2.5-1.375 1.875-2.75zM33.875 42.5c1.875-1.875 2.125-1.75 4.75-2.5 1.75-.375 3.125-1.75 3.625-3.625.875-3.5.625-3.125 3.25-5.625 1.25-1.375 1.75-3.25 1.25-5-.875-3.5-.875-3 0-6.625.5-1.75 0-3.625-1.25-4.875-2.625-2.625-2.375-2.25-3.25-5.75a5.287 5.287 0 00-3.625-3.625c-3.5-1-3-.75-5.625-3.375A4.981 4.981 0 0028.125.25c-3.375.875-3 .875-6.375 0-1.75-.5-3.625 0-4.875 1.25-2.625 2.625-2.125 2.375-5.625 3.375A5.287 5.287 0 007.625 8.5C6.75 12 7 11.625 4.375 14.25a4.981 4.981 0 00-1.25 4.875C4 22.75 4 22.25 3.125 25.75c-.5 1.75 0 3.625 1.25 5 2.625 2.5 2.375 2.125 3.25 5.625.5 1.875 1.875 3.25 3.625 3.625 2.75.75 3 .625 4.875 2.5 1.625 1.75 4.125 2 6.125.75.75-.375 1.875-.75 2.75-.75.75 0 1.875.375 2.625.75 2 1.25 4.5 1 6.25-.75zM13.125 22c0-6.625 5.25-12 11.875-12 6.5 0 11.75 5.375 11.75 12S31.5 34 25 34c-6.625 0-11.875-5.375-11.875-12z" fill="#006AFF"/></svg>