<?xml version="1.0" encoding="utf-8"?><svg width="62" height="62" fill="none" xmlns="http://www.w3.org/2000/svg" viewBox="0 0 62 62"><path d="M42 19C40.25 7.875 35.875 0 31 0c-5 0-9.25 7.875-11.125 19H42zM19 31c0 2.875.125 5.5.375 8H42.5c.25-2.5.375-5.125.375-8 0-2.75-.125-5.375-.375-8H19.375A83.693 83.693 0 0019 31zm40.5-12C56 10.625 48.75 4 39.75 1.375 42.875 5.625 44.875 12 46 19h13.5zM22.125 1.375C13.125 4 5.875 10.625 2.375 19h13.5C17 12 19 5.625 22.125 1.375zM60.875 23H46.5c.25 2.625.5 5.375.5 8 0 2.75-.25 5.375-.5 8h14.375a32.6 32.6 0 001-8c0-2.75-.375-5.375-1-8zM15 31c0-2.625.125-5.375.375-8H1c-.625 2.625-1 5.25-1 8 0 2.875.375 5.5 1 8h14.375A83.693 83.693 0 0115 31zm4.875 12C21.75 54.25 26 62 31 62c4.875 0 9.25-7.75 11-19H19.875zM39.75 60.75C48.75 58.125 56 51.5 59.5 43H46c-1 7.125-3.125 13.5-6.25 17.75zM2.375 43c3.5 8.5 10.75 15.125 19.75 17.75C19 56.5 17 50.125 15.875 43h-13.5z" fill="#006AFF"/></svg>