<?xml version="1.0" encoding="utf-8"?><svg width="53" height="64" fill="none" xmlns="http://www.w3.org/2000/svg" viewBox="0 0 53 64"><path d="M52 38c0 7.167-2.542 13.292-7.625 18.375S33.167 64 26 64s-13.292-2.542-18.375-7.625S0 45.167 0 38c0-6.417 2.083-12.042 6.25-16.875 4.25-4.917 9.5-7.875 15.75-8.875V8h-3.5c-1 0-1.5-.5-1.5-1.5v-5c0-1 .5-1.5 1.5-1.5h15c1 0 1.5.5 1.5 1.5v5c0 1-.5 1.5-1.5 1.5H30v4.25c4.667.75 8.833 2.625 12.5 5.625l3.375-3.375c.75-.75 1.458-.75 2.125 0l3.5 3.5c.75.667.75 1.375 0 2.125l-3.625 3.625-.125.125C50.583 28.125 52 32.833 52 38zm-22 4.5v-19c0-.333-.167-.667-.5-1-.25-.333-.583-.5-1-.5h-5c-.417 0-.792.167-1.125.5-.25.333-.375.667-.375 1v19c0 1 .5 1.5 1.5 1.5h5c1 0 1.5-.5 1.5-1.5z" fill="#006AFF"/></svg>