<?xml version="1.0" encoding="utf-8"?><svg width="20" height="20" fill="none" xmlns="http://www.w3.org/2000/svg" viewBox="0 0 20 20"><path d="M17.875.125c.344 0 .688.172.945.43.258.257.43.601.43.945V18c0 .387-.172.73-.43.988a1.333 1.333 0 01-.945.387h-16.5c-.387 0-.73-.129-.988-.387S0 18.387 0 18V1.5C0 1.156.129.812.387.555c.258-.258.601-.43.988-.43h16.5zm-12.074 16.5h.043V7.43h-2.88v9.195h2.837zM4.383 6.184c.43 0 .816-.13 1.16-.473.344-.344.516-.73.516-1.16 0-.43-.172-.817-.516-1.16-.344-.344-.73-.516-1.16-.516-.473 0-.86.172-1.16.516-.344.343-.473.73-.473 1.16 0 .43.129.816.473 1.16.3.344.687.473 1.16.473zM16.5 16.625v-5.027c0-1.418-.215-2.45-.602-3.137-.558-.816-1.503-1.246-2.793-1.246-.687 0-1.246.172-1.761.473-.43.257-.774.601-.946.988h-.043V7.43h-2.75v9.195h2.836V12.07c0-.687.086-1.246.301-1.633.258-.472.73-.73 1.418-.73.645 0 1.074.3 1.29.816.128.344.214.903.214 1.633v4.469H16.5z" fill="#0177B4"/></svg>