<?xml version="1.0" encoding="utf-8"?><svg width="405" height="40" fill="none" xmlns="http://www.w3.org/2000/svg" viewBox="0 0 405 40"><path d="M212.33 10.05h4.96v-1.3h-4.96V7.42h5.36V6h-7.13v7h7.23v-1.42h-5.46v-1.53zM221.386 6h-1.76v7h6.72v-1.52h-4.96V6zm8.432 4.05h4.96v-1.3h-4.96V7.42h5.36V6h-7.13v7h7.23v-1.42h-5.46v-1.53zm7.207 1.01c0 1.33.62 1.94 1.94 1.94h4.47c1.32 0 1.94-.61 1.94-1.94V9.1h-4.09v1.3h2.38v.4c0 .6-.21.82-.82.82h-3.23c-.61 0-.82-.22-.82-.82V8.24c0-.6.21-.82.82-.82h3.17c.61 0 .82.22.82.82v.17h1.77v-.47c0-1.33-.62-1.94-1.94-1.94h-4.47c-1.32 0-1.94.61-1.94 1.94v3.12zM255.93 13l-3.74-7h-1.97l-3.74 7h1.92l.65-1.31h4.22l.65 1.31h2.01zm-4.77-5.58l1.45 2.94h-2.9l1.45-2.94zm12.825 3.31L258.945 6h-1.5v7h1.7V8.2l5.12 4.8h1.42V6h-1.7v4.73zM267.38 6v1.52h3.02V13h1.76V7.52h3.02V6h-7.8zm15.964 2.83c-.41 0-.56-.15-.56-.56V7.8c0-.43.15-.56.56-.56h2.79c.43 0 .56.13.56.56v.22h1.65V7.5c0-1.04-.47-1.5-1.5-1.5h-4.27c-1.03 0-1.5.46-1.5 1.5v.6c0 .65.21 1.06.63 1.25-.62.12-.93.57-.93 1.34v.81c0 1.04.47 1.5 1.5 1.5h4.87c1.03 0 1.5-.46 1.5-1.5V9.96h1.08V8.83h-6.38zm3.65 2.37c0 .43-.13.56-.56.56h-3.39c-.41 0-.56-.13-.56-.56v-.68c0-.43.15-.56.56-.56h3.95v1.24zM302.453 6h-7.03v7h1.77v-2.58h4.86V9h-4.86V7.5h5.26V6zm7.745 7c1.32 0 1.94-.61 1.94-1.94V6h-1.76v4.7c0 .6-.22.82-.82.82h-2.88c-.61 0-.82-.22-.82-.82V6h-1.76v5.06c0 1.33.62 1.94 1.94 1.94h4.16zm10.533-2.27L315.691 6h-1.5v7h1.7V8.2l5.12 4.8h1.42V6h-1.7v4.73zm9.655 2.27c1.56 0 2.4-.83 2.4-2.4V8.4c0-1.57-.84-2.4-2.4-2.4h-5.84v7h5.84zm-4.08-5.54h3.68c.69 0 1.04.35 1.04 1.04v2c0 .69-.35 1.04-1.04 1.04h-3.68V7.46zM343.157 13l-3.74-7h-1.97l-3.74 7h1.92l.65-1.31h4.22l.65 1.31h2.01zm-4.77-5.58l1.45 2.94h-2.9l1.45-2.94zm10.984 2.69L346.221 6h-1.55v7h1.66V8.52l2.53 3.26h.94l2.53-3.26V13h1.66V6h-1.48l-3.14 4.11zm8.51-.06h4.96v-1.3h-4.96V7.42h5.36V6h-7.13v7h7.23v-1.42h-5.46v-1.53zm13.836.68L366.677 6h-1.5v7h1.7V8.2l5.12 4.8h1.42V6h-1.7v4.73zM375.113 6v1.52h3.02V13h1.76V7.52h3.02V6h-7.8zm16.608 7l-3.74-7h-1.97l-3.74 7h1.92l.65-1.31h4.22l.65 1.31h2.01zm-4.77-5.58l1.45 2.94h-2.9l1.45-2.94zM394.996 6h-1.76v7h6.72v-1.52h-4.96V6zM210.61 33h1.78v-7h-1.78v7zm10.488-2.27l-5.04-4.73h-1.5v7h1.7v-4.8l5.12 4.8h1.42v-7h-1.7v4.73zm9.656 2.27c1.56 0 2.4-.83 2.4-2.4v-2.2c0-1.57-.84-2.4-2.4-2.4h-5.84v7h5.84zm-4.08-5.54h3.68c.69 0 1.04.35 1.04 1.04v2c0 .69-.35 1.04-1.04 1.04h-3.68v-4.08zM241.221 33c1.32 0 1.94-.61 1.94-1.94V26h-1.76v4.7c0 .6-.22.82-.82.82h-2.88c-.61 0-.82-.22-.82-.82V26h-1.76v5.06c0 1.33.62 1.94 1.94 1.94h4.16zm3.903-1.5c0 1.04.47 1.5 1.5 1.5h5.15c1.03 0 1.5-.46 1.5-1.5v-1.14c0-1.03-.45-1.43-1.5-1.5l-4.22-.28c-.43-.03-.56-.15-.56-.56v-.13c0-.41.15-.56.56-.56h3.31c.41 0 .56.15.56.56v.15h1.71v-.54c0-1.04-.47-1.5-1.5-1.5h-4.91c-1.03 0-1.5.46-1.5 1.5v.96c0 1.01.45 1.42 1.5 1.5l4.22.28c.43.04.56.15.56.56v.31c0 .41-.15.56-.56.56h-3.55c-.41 0-.56-.15-.56-.56v-.27h-1.71v.66zm9.645-5.5v1.52h3.02V33h1.76v-5.48h3.02V26h-7.8zm15.676 4.44c1.16-.03 1.66-.54 1.66-1.74v-.96c0-1.24-.51-1.74-1.74-1.74h-6.1v7h1.76v-2.44h2.54l1.83 2.44h2.01l-1.96-2.56zm-.79-3.16c.53 0 .69.17.69.7v.64c0 .53-.16.7-.69.7h-3.63v-2.04h3.63zm4.557 5.72h1.78v-7h-1.78v7zm12.838 0l-3.74-7h-1.97l-3.74 7h1.92l.65-1.31h4.22l.65 1.31h2.01zm-4.77-5.58l1.45 2.94h-2.9l1.45-2.94zm8.044-1.42h-1.76v7h6.72v-1.52h-4.96V26zm10.57 5.5c0 1.04.47 1.5 1.5 1.5h5.15c1.03 0 1.5-.46 1.5-1.5v-1.14c0-1.03-.45-1.43-1.5-1.5l-4.22-.28c-.43-.03-.56-.15-.56-.56v-.13c0-.41.15-.56.56-.56h3.31c.41 0 .56.15.56.56v.15h1.71v-.54c0-1.04-.47-1.5-1.5-1.5h-4.91c-1.03 0-1.5.46-1.5 1.5v.96c0 1.01.45 1.42 1.5 1.5l4.22.28c.43.04.56.15.56.56v.31c0 .41-.15.56-.56.56h-3.55c-.41 0-.56-.15-.56-.56v-.27h-1.71v.66zm16.492 1.5c1.32 0 1.94-.61 1.94-1.94v-3.12c0-1.33-.62-1.94-1.94-1.94h-4.46c-1.32 0-1.94.61-1.94 1.94v3.12c0 1.33.62 1.94 1.94 1.94h4.46zm-3.82-1.46c-.6 0-.82-.22-.82-.82v-2.44c0-.6.22-.82.82-.82h3.18c.61 0 .82.22.82.82v2.44c0 .6-.21.82-.82.82h-3.18zm9.547-5.54h-1.76v7h6.72v-1.52h-4.96V26zm12.624 7c1.32 0 1.94-.61 1.94-1.94V26h-1.76v4.7c0 .6-.22.82-.82.82h-2.88c-.61 0-.82-.22-.82-.82V26h-1.76v5.06c0 1.33.62 1.94 1.94 1.94h4.16zm3.573-7v1.52h3.02V33h1.76v-5.48h3.02V26h-7.8zm9.546 7h1.78v-7h-1.78v7zm10.258 0c1.32 0 1.94-.61 1.94-1.94v-3.12c0-1.33-.62-1.94-1.94-1.94h-4.46c-1.32 0-1.94.61-1.94 1.94v3.12c0 1.33.62 1.94 1.94 1.94h4.46zm-3.82-1.46c-.6 0-.82-.22-.82-.82v-2.44c0-.6.22-.82.82-.82h3.18c.61 0 .82.22.82.82v2.44c0 .6-.21.82-.82.82h-3.18zm14.327-.81l-5.04-4.73h-1.5v7h1.7v-4.8l5.12 4.8h1.42v-7h-1.7v4.73zm3.726.77c0 1.04.47 1.5 1.5 1.5h5.15c1.03 0 1.5-.46 1.5-1.5v-1.14c0-1.03-.45-1.43-1.5-1.5l-4.22-.28c-.43-.03-.56-.15-.56-.56v-.13c0-.41.15-.56.56-.56h3.31c.41 0 .56.15.56.56v.15h1.71v-.54c0-1.04-.47-1.5-1.5-1.5h-4.91c-1.03 0-1.5.46-1.5 1.5v.96c0 1.01.45 1.42 1.5 1.5l4.22.28c.43.04.56.15.56.56v.31c0 .41-.15.56-.56.56h-3.55c-.41 0-.56-.15-.56-.56v-.27h-1.71v.66zM33.2 5v7.541h11.198v20.097h8.694V12.54H64.29V5H33.199zM96.336 23.083c4.033-.434 5.795-2.527 5.795-7.146v-3.751c0-5.054-2.114-7.186-7.127-7.186H70.57v27.638h8.693v-8.884h7.87l6.266 8.884h9.907l-6.97-9.555zm-5.012-11.805c1.605 0 2.114.513 2.114 2.132v2.132c0 1.619-.509 2.132-2.114 2.132h-12.06v-6.396h12.06zM109.785 32.638h8.85V5h-8.85v27.638zM151.766 32.638c5.364 0 7.909-2.488 7.909-7.976V12.975c0-5.488-2.545-7.975-7.909-7.975h-17.7c-5.365 0-7.91 2.487-7.91 7.975v11.687c0 5.488 2.545 7.976 7.91 7.976h17.7zm-14.411-7.226c-1.879 0-2.506-.631-2.506-2.526v-8.134c0-1.895.627-2.527 2.506-2.527h11.121c1.841 0 2.506.632 2.506 2.527v8.133c0 1.896-.665 2.527-2.506 2.527h-11.121zM175.674 5h-8.693v27.638H194v-7.541h-18.326V5zM14.647 5.01c.217.03.433.07.65.1 1.474.199 2.824.716 4.02 1.582 1.618 1.174 2.638 2.747 3.215 4.608.258.826.392 1.662.475 2.518.072.796.082 1.592.02 2.398a16.783 16.783 0 01-.969 4.438c-.7 1.881-1.66 3.623-2.875 5.245-.093.12-.155.14-.31.08-1.03-.388-2.03-.826-2.917-1.473-.247-.18-.474-.388-.71-.567-.125-.09-.125-.17-.052-.299a21.878 21.878 0 001.917-4.2c.392-1.144.68-2.299.876-3.483.165-1.045.258-2.09.227-3.145-.031-1.502-.268-2.955-.835-4.349C16.77 7 15.822 5.826 14.359 5.08a.272.272 0 01-.072-.08c.123.01.237.01.36.01z" fill="#737373"/><path d="M10.566 19.35c.381.618.731 1.235 1.133 1.812 1.64 2.329 3.752 4.13 6.443 5.264.99.418 2.02.687 3.092.807.845.1 1.69.09 2.546.05a7.798 7.798 0 003.556-1.056c.01-.01.03-.01.082-.02-.082.26-.165.508-.247.747-.412 1.085-.969 2.09-1.783 2.956-1.072 1.144-2.381 1.86-3.938 2.18-.979.198-1.968.238-2.958.118-2.402-.288-4.556-1.164-6.432-2.647-1.577-1.244-2.824-2.756-3.896-4.418a28.382 28.382 0 01-1.66-2.986c-.02-.04-.02-.13.01-.16.96-.865 1.99-1.651 3.155-2.248.299-.14.608-.269.897-.398z" fill="#737373"/><path d="M1.382 28.656c-.227-.448-.474-.886-.68-1.333-.557-1.244-.753-2.548-.691-3.892.113-2.378.928-4.518 2.433-6.409 1.453-1.83 3.35-3.065 5.596-3.821a20.351 20.351 0 013.763-.856 20.015 20.015 0 013.453-.16c.721.04 1.443.14 2.164.22.103.01.124.06.113.149-.061.716-.082 1.433-.175 2.15-.093.716-.237 1.433-.35 2.15-.02.119-.072.139-.186.139-2.587.01-4.999.666-7.256 1.85a19.804 19.804 0 00-3.66 2.508 18.283 18.283 0 00-2.937 3.195c-.763 1.055-1.278 2.22-1.463 3.493-.031.19-.042.388-.052.587a.512.512 0 00-.072.03z" fill="#737373"/><path d="M10.411 30.597c-.299.18-.587.378-.897.547a6.78 6.78 0 01-2.607.717c-.99.07-1.928-.07-2.804-.538-.866-.467-1.433-1.174-1.793-2.06a.943.943 0 01-.062-.378c-.01-1.741.525-3.304 1.587-4.697.01-.02.041-.03.072-.06.134.647.32 1.254.588 1.831.732 1.622 1.824 2.946 3.422 3.842a5.958 5.958 0 002.484.756c-.01.01 0 .02.01.04zM7.401 10.424c-.02-.507.01-1.005.124-1.493.196-.845.588-1.592 1.247-2.179A5.389 5.389 0 0111.7 5.398c1.422-.189 2.67.19 3.741 1.105.392.339.66.766.897 1.214.237.458.453.926.68 1.394-.01.01-.03.02-.041.03-.186-.07-.381-.15-.567-.22a10.132 10.132 0 00-2.618-.557c-1.474-.11-2.896.08-4.257.647a6.477 6.477 0 00-1.958 1.284c-.052.05-.083.11-.124.169-.02-.02-.041-.03-.052-.04zM25.408 18.366c.505.318.928.726 1.278 1.204.608.826.97 1.741 1.144 2.736.093.508.124 1.025.093 1.543a4.44 4.44 0 01-.185.965c-.042.14-.176.26-.3.369-.772.726-1.73 1.114-2.772 1.313-.67.13-1.35.19-2.03.2h-.145c2.36-2.33 3.309-5.096 2.917-8.33zM6.896 12.623c-.763.378-1.494.756-2.237 1.124-.298-1.323 1.31-5.264 2.402-5.831-.33 1.572-.598 3.134-.165 4.707zM23.955 16.922c.04-.527.082-1.015.103-1.512.02-.488 0-.976 0-1.493 1.505 1.314 2.34 2.966 2.814 4.847-.804-.886-1.825-1.443-2.917-1.841zM11.504 30.427c.742.438 1.463.856 2.174 1.274-1.01.657-3.896 1.204-5.865.796.093-.03.145-.05.196-.07.69-.208 1.381-.417 2.02-.766a4.349 4.349 0 001.402-1.164c.031-.04.073-.07.073-.07z" fill="#737373"/></svg>