<?xml version="1.0" encoding="utf-8"?><svg width="73" height="14" fill="none" xmlns="http://www.w3.org/2000/svg" viewBox="0 0 73 14"><path d="M14.934.618c.13-.274.34-.36.637-.36 3.472.009 6.943.005 10.419.005.499 0 .669.177.669.69v2.023c0 .497-.178.678-.661.678h-2.775c-.083 0-.162.008-.265.012v9.383c0 .093 0 .186-.004.279-.016.262-.202.448-.46.448-1.128.004-2.256.004-3.38 0-.265 0-.467-.206-.495-.5-.008-.07-.004-.142-.004-.215V3.93v-.275h-.245c-.927 0-1.853-.008-2.775.004-.301.004-.523-.076-.657-.359-.004-.892-.004-1.789-.004-2.68zM53.58 0c1.244.008 2.44.133 3.587.573 1.888.723 3.052 2.1 3.5 4.098.36 1.607.356 3.218-.036 4.817-.535 2.172-1.916 3.504-3.99 4.11-1.461.428-2.953.48-4.458.315-.95-.105-1.872-.323-2.731-.751-1.536-.763-2.478-2.023-2.874-3.694-.416-1.744-.412-3.5.08-5.225.573-2.014 1.927-3.25 3.878-3.84C51.53.098 52.563.009 53.581 0zm-2.968 7.005c.023.262.031.525.07.783.163 1.01.698 1.712 1.667 2.023.769.246 1.56.25 2.34.048.918-.238 1.536-.815 1.777-1.764a4.294 4.294 0 000-2.16c-.233-.908-.807-1.49-1.698-1.744a4.217 4.217 0 00-2.419.02c-.653.198-1.151.61-1.444 1.252-.218.48-.285 1.005-.293 1.542zM37.6 7.676c.08.056.131.096.187.137.593.404 1.076.904 1.413 1.554.613 1.18 1.255 2.346 1.876 3.52.075.142.123.32.123.477a.418.418 0 01-.42.412 668.67 668.67 0 01-4.006 0c-.241 0-.36-.182-.455-.38-.598-1.235-1.2-2.47-1.797-3.702-.044-.089-.083-.177-.13-.266-.163-.299-.424-.412-.745-.412h-2.003v4.126c0 .448-.178.634-.614.634-1.084 0-2.169-.012-3.258.008a.55.55 0 01-.55-.537v-.15V.942c0-.113.008-.23.04-.335.067-.202.202-.335.427-.343.064-.004.127-.004.186-.004h7.494c.887 0 1.761.089 2.573.492 1.065.53 1.817 1.333 2.019 2.556.19 1.147.09 2.265-.642 3.23-.372.489-.898.771-1.44 1.021-.08.037-.163.07-.278.118zm-6.036-4.373v2.6c.645 0 1.278.012 1.908-.004a8.02 8.02 0 001.076-.093c.353-.056.697-.165.93-.464.57-.719.195-1.789-.74-1.898-1.045-.12-2.105-.097-3.174-.141zM65.916 9.779H71.652c.431 0 .617.19.617.634v2.81c0 .351-.193.557-.534.557h-9.6c-.308 0-.47-.141-.53-.452a1.513 1.513 0 01-.016-.234V.96c0-.105.008-.214.032-.315.055-.242.194-.367.44-.371 1.128-.004 2.252-.004 3.38 0 .27 0 .463.21.479.488.004.057 0 .113 0 .17 0 2.858-.004 5.72-.004 8.58v.266zM41.903 7.01V.984c0-.1 0-.197.008-.298.024-.259.178-.424.432-.424.938-.004 1.876-.004 2.818 0 .246 0 .396.153.428.404.012.092.016.185.016.274v12.153c0 .1 0 .197-.016.299-.036.254-.186.387-.436.387H42.36c-.254 0-.412-.15-.44-.408-.012-.097-.008-.197-.008-.299-.008-2.022-.008-4.04-.008-6.064zM6.79.259c.1.016.203.032.302.044a3.912 3.912 0 011.86.775c.752.578 1.227 1.349 1.493 2.257.118.404.182.816.217 1.232.036.391.04.783.012 1.17a8.317 8.317 0 01-.451 2.173c-.325.92-.768 1.776-1.334 2.567-.044.061-.075.07-.143.04-.475-.189-.938-.403-1.35-.722-.114-.089-.217-.19-.332-.278-.055-.045-.06-.085-.024-.15.368-.654.661-1.34.89-2.055.18-.557.318-1.126.405-1.708.079-.508.118-1.025.107-1.542-.02-.727-.123-1.441-.392-2.12C7.769 1.228 7.33.65 6.652.287 6.636.28 6.63.263 6.617.251c.063.008.118.008.174.008z" fill="#737373"/><path d="M4.903 7.283c.178.303.337.606.527.885.76 1.142 1.741 2.022 2.988 2.58.46.201.935.339 1.433.395.392.049.784.045 1.18.024a3.525 3.525 0 001.65-.512c.009-.004.017-.004.036-.008-.04.129-.075.25-.115.367-.19.533-.45 1.026-.827 1.445a3.335 3.335 0 01-1.825 1.07 4.03 4.03 0 01-1.373.06 5.68 5.68 0 01-2.985-1.295c-.732-.61-1.31-1.349-1.805-2.164-.285-.473-.539-.961-.768-1.466-.008-.02-.008-.064.008-.076.447-.424.922-.808 1.464-1.103.131-.072.278-.137.412-.202z" fill="#737373"/><path d="M.643 11.842c-.107-.218-.221-.432-.316-.654a4.303 4.303 0 01-.321-1.906 5.487 5.487 0 011.128-3.137c.677-.896 1.552-1.502 2.597-1.87a8.609 8.609 0 011.746-.42 8.48 8.48 0 011.599-.076c.336.016.669.069 1.005.105.048.004.056.028.052.073-.028.35-.04.702-.08 1.053-.039.352-.11.703-.162 1.054-.008.06-.031.069-.083.069-1.2.004-2.316.327-3.365.904A8.793 8.793 0 002.75 8.27c-.51.468-.97.985-1.362 1.562a4.07 4.07 0 00-.68 1.712c-.012.093-.016.19-.024.287-.02.004-.028.008-.04.012z" fill="#737373"/><path d="M4.827 12.79c-.139.09-.273.186-.42.267-.38.206-.783.315-1.21.351-.46.036-.896-.032-1.303-.266-.4-.23-.665-.578-.832-1.006a.57.57 0 01-.027-.185 3.82 3.82 0 01.736-2.302l.032-.032c.063.315.146.614.269.896.34.792.843 1.442 1.583 1.882.357.21.737.339 1.148.367.012.012.02.02.024.028zM3.43 2.912a3.072 3.072 0 01.06-.735c.09-.416.269-.78.577-1.07.384-.363.836-.59 1.358-.662.661-.093 1.24.093 1.734.54.182.166.309.376.416.594.11.222.21.457.313.683-.008.004-.012.012-.02.016-.087-.036-.174-.077-.266-.11a4.321 4.321 0 00-1.21-.27 4.046 4.046 0 00-1.976.32c-.34.149-.641.363-.907.63-.023.023-.04.052-.055.08-.008-.004-.016-.012-.024-.016zM11.783 6.803c.237.157.431.36.593.59.281.403.448.855.535 1.34.043.25.06.505.04.755a2.416 2.416 0 01-.088.472c-.02.069-.083.13-.138.182-.36.355-.804.545-1.287.642a4.946 4.946 0 01-.942.097h-.067c1.092-1.139 1.536-2.5 1.354-4.078zM3.2 3.989c-.352.185-.692.367-1.037.549-.142-.646.606-2.576 1.113-2.85-.155.766-.277 1.53-.076 2.3zM11.11 6.092c.015-.258.039-.496.047-.738.008-.239 0-.477 0-.731.697.642 1.085 1.453 1.302 2.374-.372-.436-.847-.71-1.35-.905zM5.334 12.706c.344.214.677.416 1.009.622-.467.323-1.805.589-2.716.391a.863.863 0 01.091-.032c.321-.105.642-.206.935-.376.257-.145.475-.33.653-.569.012-.016.028-.032.028-.036z" fill="#737373"/></svg>