<?xml version="1.0" encoding="utf-8"?><svg width="48" height="48" fill="none" xmlns="http://www.w3.org/2000/svg" viewBox="0 0 48 48"><path fill-rule="evenodd" clip-rule="evenodd" d="M.667 24C.667 36.88 11.12 47.333 24 47.333c12.88 0 23.333-10.453 23.333-23.333C47.333 11.12 36.88.667 24 .667 11.12.667.667 11.12.667 24zm4.666 0C5.333 13.71 13.71 5.333 24 5.333c10.29 0 18.667 8.377 18.667 18.667 0 10.29-8.377 18.667-18.667 18.667C13.71 42.667 5.333 34.29 5.333 24zm16.334 9.333L31 24l-9.333-9.333v18.666z" fill="#fff"/></svg>