<?xml version="1.0" encoding="utf-8"?><svg width="80" height="80" fill="none" xmlns="http://www.w3.org/2000/svg" viewBox="0 0 80 80"><circle cx="40" cy="40" r="40" fill="#05F" fill-opacity=".03"/><path fill-rule="evenodd" clip-rule="evenodd" d="M43.231 40a.76.76 0 01.769.752v16.495a.76.76 0 01-.769.753H34.77a.76.76 0 01-.769-.752.76.76 0 01.769-.753h7.694V40.753a.76.76 0 01.768-.753z" fill="#0084FF"/><path fill-rule="evenodd" clip-rule="evenodd" d="M51.231 32c.425 0 .769.338.769.756v24.488a.762.762 0 01-.769.756H42.77a.762.762 0 01-.769-.756V40.678c0-.418.344-.756.769-.756.424 0 .768.338.768.756v15.81h6.926V32.757c0-.418.344-.756.768-.756zM35.231 41c.425 0 .769.335.769.748v15.504a.758.758 0 01-.769.748h-8.463a.758.758 0 01-.768-.748v-8.83c0-.413.344-.748.768-.748.425 0 .769.335.769.748v8.083h6.926V41.748c0-.413.344-.748.768-.748z" fill="#0084FF"/><path fill-rule="evenodd" clip-rule="evenodd" d="M48.252 22.757c0-.418.335-.757.749-.757h8.25c.414 0 .749.339.749.757v8.333a.753.753 0 01-.75.757h-2.999a.753.753 0 01-.75-.757v-3.16c0-.418.336-.757.75-.757s.75.339.75.757v2.403h1.5v-6.82H49.75v1.517h2.38a.75.75 0 01.696.479.762.762 0 01-.185.83L39.012 39.22a.744.744 0 01-1.042-.017l-3.595-3.632L23.28 46.778a.744.744 0 01-1.06 0 .762.762 0 010-1.07l11.626-11.743a.744.744 0 011.06 0l3.612 3.649 11.715-11.07h-1.231a.753.753 0 01-.75-.757v-3.03z" fill="#0084FF"/></svg>