<?xml version="1.0" encoding="utf-8"?><svg width="80" height="80" fill="none" xmlns="http://www.w3.org/2000/svg" viewBox="0 0 80 80"><circle cx="40" cy="40" r="40" fill="#05F" fill-opacity=".03"/><path fill-rule="evenodd" clip-rule="evenodd" d="M51.666 35.173v-6.84h-6.84L40 23.506l-4.828 4.827h-6.84v6.84L23.507 40l4.827 4.827v6.84h6.84L40 56.494l4.827-4.827h6.84v-6.84L56.492 40l-4.827-4.827zm-2.916 8.444v5.133h-5.134L40 52.367l-3.617-3.617H31.25v-5.133L27.633 40l3.617-3.617V31.25h5.133L40 27.633l3.616 3.617h5.134v5.133L52.366 40l-3.616 3.617zM48.02 40c0 4.419-3.602 8.02-8.02 8.02V31.98c4.418 0 8.02 3.601 8.02 8.02z" fill="#006AFF"/></svg>