<?xml version="1.0" encoding="utf-8"?><svg width="80" height="80" fill="none" xmlns="http://www.w3.org/2000/svg" viewBox="0 0 80 80"><circle cx="40" cy="40" r="40" fill="#05F" fill-opacity=".03"/><path fill-rule="evenodd" clip-rule="evenodd" d="M36.752 31.535A9.058 9.058 0 1130.934 40a.708.708 0 10-1.416.001 10.473 10.473 0 101.181-4.839.708.708 0 001.256.653 9.059 9.059 0 014.796-4.28zM40 52.074a.708.708 0 00-.708.707v4.511a.708.708 0 101.415 0v-4.51a.708.708 0 00-.708-.708zM40 22a.708.708 0 00-.708.708v4.51a.708.708 0 101.415 0v-4.51a.708.708 0 00-.708-.708z" fill="#2093FF"/><path fill-rule="evenodd" clip-rule="evenodd" d="M40 34.03a.708.708 0 00-.708.707v3.008a.708.708 0 101.415 0v-3.008a.708.708 0 00-.708-.708zM27.926 40a.708.708 0 00-.708-.707h-4.51a.708.708 0 000 1.416h4.51c.39 0 .708-.317.708-.708zM58 40a.708.708 0 00-.708-.707h-4.51a.708.708 0 000 1.416h4.51c.391 0 .708-.317.708-.708zM33.964 50.456a.708.708 0 00-.966.26l-2.255 3.906a.708.708 0 001.226.707l2.255-3.906a.708.708 0 00-.26-.967zM49 24.412a.708.708 0 00-.967.259l-2.255 3.906a.708.708 0 101.226.708l2.255-3.907a.708.708 0 00-.26-.966zM29.544 46.037a.708.708 0 00-.967-.259l-3.906 2.255a.708.708 0 10.707 1.225l3.907-2.254a.708.708 0 00.259-.967zM55.589 31a.708.708 0 00-.967-.259l-3.906 2.255a.708.708 0 10.707 1.226l3.907-2.255a.708.708 0 00.259-.966zM46.037 50.456a.708.708 0 00-.259.967l2.255 3.906a.708.708 0 001.226-.707l-2.255-3.907a.708.708 0 00-.967-.259zM31.002 24.412a.708.708 0 00-.26.966l2.256 3.907a.708.708 0 001.226-.708l-2.255-3.906a.708.708 0 00-.967-.26zM50.456 46.037a.708.708 0 00.26.967l3.906 2.255a.708.708 0 10.708-1.226l-3.907-2.255a.708.708 0 00-.967.26zM24.412 31a.708.708 0 00.259.967l3.906 2.255a.708.708 0 00.708-1.226l-3.907-2.255a.708.708 0 00-.966.26z" fill="#2093FF"/><path fill-rule="evenodd" clip-rule="evenodd" d="M42.479 36.173a.708.708 0 00.055 1 3.803 3.803 0 11-5.072 0 .708.708 0 10-.943-1.056 5.22 5.22 0 106.959 0 .708.708 0 00-1 .056z" fill="#2093FF"/></svg>