<?xml version="1.0" encoding="utf-8"?><svg width="80" height="80" fill="none" xmlns="http://www.w3.org/2000/svg" viewBox="0 0 80 80"><circle cx="40" cy="40" r="40" fill="#05F" fill-opacity=".03"/><path fill-rule="evenodd" clip-rule="evenodd" d="M22.808 27.99c.447 0 .809.362.809.808v21.773l12.645 2.81 12.646-2.81V28.798a.809.809 0 011.617 0V51.22a.808.808 0 01-.633.789l-13.455 2.99a.81.81 0 01-.35 0l-13.454-2.99a.808.808 0 01-.633-.79V28.799c0-.446.362-.808.808-.808z" fill="#0084FF"/><path fill-rule="evenodd" clip-rule="evenodd" d="M25.312 25.163a.809.809 0 01.709-.132l10.463 2.99c.347.099.587.416.587.777V51.22a.809.809 0 01-.978.79l-10.464-2.242a.808.808 0 01-.639-.79v-23.17c0-.253.12-.492.322-.645zm1.295 1.717v21.444l8.847 1.896V29.408l-8.847-2.528z" fill="#0084FF"/><path fill-rule="evenodd" clip-rule="evenodd" d="M47.213 25.163a.809.809 0 01.322.645v23.17c0 .38-.266.71-.64.79L36.432 52.01a.809.809 0 01-.978-.79V28.798c0-.361.24-.678.586-.777l10.465-2.99a.809.809 0 01.71.132zM37.07 29.408V50.22l8.848-1.896V26.88l-8.848 2.528zM53.395 25.808c0-.446.361-.808.808-.808h2.99c.446 0 .808.362.808.808v2.99a.808.808 0 01-.808.808h-2.99a.808.808 0 01-.809-.808v-2.99zm1.616.809v1.372h1.373v-1.372h-1.373z" fill="#0084FF"/><path fill-rule="evenodd" clip-rule="evenodd" d="M53.395 28.798c0-.446.361-.808.808-.808h2.99c.446 0 .808.362.808.808V51.22c0 .125-.029.25-.085.361l-1.496 2.99a.808.808 0 01-1.446 0l-1.494-2.99a.808.808 0 01-.085-.361V28.798zm1.616.808V51.03l.686 1.373.687-1.373V29.606h-1.373z" fill="#0084FF"/></svg>