<?xml version="1.0" encoding="utf-8"?><svg width="600" height="102" fill="none" xmlns="http://www.w3.org/2000/svg" viewBox="0 0 600 102"><path d="M31.63 100.577h14.587v-66.72H31.63v66.72zM0 .996V14.51h77.847V.997H0zM97.1 86.92v13.657h71.398V86.921H97.099zm65.717-42.82H97.099v13.23h65.718V44.1zm4.76-43.104H97.099V14.51h70.478V.997zM235.784.996h-14.279l-38.54 99.581h16.122l29.634-79.238 29.635 79.238h16.122L235.784.996zM330.789 43.247c-17.197-4.552-24.72-7.967-24.72-15.506 0-6.971 6.141-14.084 21.803-14.084 14.587 0 20.729 6.26 23.493 13.088l13.972-4.41C360.27 9.958 347.526 0 327.411 0c-22.264 0-36.39 11.096-37.004 27.172-.614 17.355 13.512 23.472 35.162 29.163 18.272 4.837 27.792 8.25 27.792 17.213 0 9.105-10.134 14.653-23.032 14.653-15.201 0-25.182-7.113-28.867-14.226L287.49 79.38C293.324 91.615 308.525 102 330.789 102c24.721 0 38.08-13.372 38.08-28.879 0-18.067-16.276-24.184-38.08-29.874zM389.669.996v99.581h14.587V.996h-14.587zM428.763 86.92v13.657h71.399V86.921h-71.399zm65.718-42.82h-65.718v13.23h65.718V44.1zm4.76-43.104h-70.478V14.51h70.478V.997zM583.264 100.577H600l-23.185-38.125c12.744-4.98 20.114-16.218 20.114-29.306 0-17.782-13.358-32.15-35.162-32.15h-40.229V14.51h40.229c12.898 0 20.115 8.82 20.115 18.636 0 9.674-7.217 18.494-20.115 18.494h-40.229v48.937h14.741V65.155h25.335l21.65 35.422z" fill="#fff"/></svg>