<?xml version="1.0" encoding="utf-8"?><svg width="592" height="102" fill="none" xmlns="http://www.w3.org/2000/svg" viewBox="0 0 592 102"><path d="M31.209 100.577H45.6v-66.72H31.209v66.72zM0 .996V14.51h76.81V.997H0zM95.805 86.92v13.657h70.446V86.921H95.805zm64.841-42.82H95.805v13.23h64.841V44.1zM165.342.996H95.805V14.51h69.537V.997zM232.641.996h-14.09l-38.026 99.581h15.908l29.239-79.238 29.239 79.238h15.907L232.641.996zM326.379 43.247c-16.968-4.552-24.391-7.967-24.391-15.506 0-6.971 6.06-14.084 21.512-14.084 14.393 0 20.453 6.26 23.18 13.088l13.786-4.41C355.467 9.958 342.892 0 323.046 0c-21.967 0-35.905 11.096-36.511 27.172-.606 17.355 13.332 23.472 34.693 29.163 18.028 4.837 27.421 8.25 27.421 17.213 0 9.105-9.999 14.653-22.725 14.653-14.998 0-24.845-7.113-28.481-14.226l-13.787 5.406C289.413 91.615 304.412 102 326.379 102c24.391 0 37.571-13.372 37.571-28.879 0-18.067-16.058-24.184-37.571-29.874zM384.474.996v99.581h14.392V.996h-14.392zM423.047 86.92v13.657h70.446V86.921h-70.446zm64.841-42.82h-64.841v13.23h64.841V44.1zM492.584.996h-69.537V14.51h69.537V.997zM575.487 100.577H592l-22.876-38.125c12.574-4.98 19.846-16.218 19.846-29.306 0-17.782-13.18-32.15-34.693-32.15h-39.693V14.51h39.693c12.726 0 19.846 8.82 19.846 18.636 0 9.674-7.12 18.494-19.846 18.494h-39.693v48.937h14.544V65.155h24.997l21.362 35.422z" fill="#fff"/></svg>