<?xml version="1.0" encoding="utf-8"?><svg width="24" height="19" fill="none" xmlns="http://www.w3.org/2000/svg" viewBox="0 0 24 19"><path d="M19.5 18c2.484 0 4.5-2.016 4.5-4.5v-9C24 2.016 21.984 0 19.5 0h-3.938A.57.57 0 0015 .563v1.875c0 .328.234.562.562.562H19.5c.797 0 1.5.703 1.5 1.5v9c0 .844-.703 1.5-1.5 1.5h-3.938a.57.57 0 00-.562.563v1.874c0 .329.234.563.562.563H19.5zm-2.203-9.422L9.422.703C8.719 0 7.5.516 7.5 1.5V6H1.125A1.11 1.11 0 000 7.125v4.5c0 .656.469 1.125 1.125 1.125H7.5v4.5c0 1.031 1.219 1.5 1.922.797l7.875-7.875c.422-.422.422-1.125 0-1.594z" fill="#0092FC"/></svg>