<?xml version="1.0" encoding="utf-8"?><svg width="23" height="25" fill="none" xmlns="http://www.w3.org/2000/svg" viewBox="0 0 23 25"><path d="M10.406 23.8c-1.781-.702-3.422-1.874-4.922-3.468-1.687-1.688-2.953-3.703-3.89-6.047C.516 11.707 0 8.941 0 5.988c0-.468.094-.89.375-1.265.234-.375.562-.61 1.031-.797l9-3.75c.563-.235 1.125-.235 1.734 0l8.954 3.75c.421.187.75.422 1.03.797.235.375.376.797.376 1.265 0 3.235-.61 6.188-1.781 8.86a20.276 20.276 0 01-4.125 5.906c-1.454 1.406-2.954 2.437-4.5 3.047a1.793 1.793 0 01-1.688 0zm.844-21.562l-9 3.75c0 2.532.422 4.922 1.312 7.172.797 2.063 1.922 3.89 3.329 5.39 1.312 1.5 2.765 2.532 4.359 3.188 1.5-.61 2.953-1.64 4.265-3.093 1.407-1.5 2.532-3.282 3.375-5.344.891-2.25 1.36-4.688 1.36-7.313l-9-3.75z" fill="#0092FC"/></svg>