<?xml version="1.0" encoding="utf-8"?><svg width="30" height="21" fill="none" xmlns="http://www.w3.org/2000/svg" viewBox="0 0 30 21"><path d="M15 6.046c1.031 0 1.875.469 2.625 1.313.75.89 1.125 1.968 1.125 3.187 0 1.266-.375 2.344-1.125 3.188-.75.89-1.594 1.312-2.625 1.312s-1.922-.422-2.672-1.312c-.75-.844-1.078-1.922-1.078-3.188 0-1.219.328-2.297 1.078-3.187.75-.844 1.64-1.313 2.672-1.313zm14.11-5.015c.28.14.468.328.655.562.141.281.235.563.235.844v14.86c0 .468-.188.796-.469 1.077a1.454 1.454 0 01-1.031.422c-.188 0-.328 0-.516-.094a16.242 16.242 0 00-4.312-.609c-1.313 0-2.766.14-4.36.422-.937.187-2.39.562-4.312 1.031-1.969.469-3.375.797-4.313.985-1.64.328-3.093.468-4.359.468-1.969 0-3.797-.328-5.437-1.03a1.109 1.109 0 01-.657-.564C.047 19.171 0 18.89 0 18.563V3.702c0-.421.14-.796.422-1.078.281-.281.656-.422 1.078-.422.14 0 .328.047.515.094 1.313.422 2.766.61 4.313.61 1.266 0 2.719-.141 4.36-.422.937-.188 2.343-.516 4.312-.985 1.922-.468 3.375-.843 4.312-1.031 1.594-.281 3.047-.469 4.36-.469 1.968 0 3.75.375 5.437 1.032zm-1.36 15.28V2.953c-1.266-.468-2.625-.703-4.078-.703-1.172 0-2.485.14-3.985.422-.937.188-2.297.516-4.125.985-2.015.515-3.515.843-4.546 1.03a25.619 25.619 0 01-4.735.47c-1.406 0-2.765-.141-4.031-.47v13.36c1.219.469 2.578.703 4.078.703 1.125 0 2.484-.14 3.984-.422.891-.187 2.25-.515 4.125-.984 1.97-.469 3.516-.844 4.547-1.031 1.688-.282 3.281-.469 4.688-.469 1.406 0 2.765.188 4.078.469z" fill="#B3F"/></svg>