<?xml version="1.0" encoding="utf-8"?><svg width="26" height="25" fill="none" xmlns="http://www.w3.org/2000/svg" viewBox="0 0 26 25"><path d="M12.094 6.759c-.563-.14-.985-.422-1.36-.797a2.202 2.202 0 01-.656-1.406c-.094-.75.047-1.407.516-1.97.468-.562 1.03-.89 1.78-.983V.759c0-.188.048-.375.188-.516a.776.776 0 01.563-.234h.75c.187 0 .375.094.515.234.141.14.235.328.235.516v.844c.562.093 1.031.234 1.5.515a.594.594 0 01.187.422c0 .188-.047.375-.14.469l-.797.797c-.188.187-.422.234-.656.093-.188-.046-.329-.093-.516-.093h-1.5a.426.426 0 00-.328.14c-.094.094-.094.14-.094.235 0 .234.094.375.281.375l2.344.703c.516.187.984.469 1.36.844.375.375.562.843.656 1.359.093.75-.094 1.453-.563 2.016-.469.562-1.031.89-1.734.937v.844a.776.776 0 01-.235.562c-.14.14-.328.188-.515.188h-.75c-.235 0-.422-.047-.563-.188-.14-.14-.187-.328-.187-.562v-.844a3.183 3.183 0 01-1.5-.516c-.188-.093-.235-.234-.235-.421 0-.188.047-.329.188-.47l.797-.796c.187-.188.375-.188.656-.094.14.094.328.094.516.094h1.5c.093 0 .187 0 .281-.094.094-.094.14-.187.14-.281 0-.188-.093-.328-.28-.375l-2.344-.703zm12.937 8.625c.281.328.422.703.422 1.172 0 .468-.188.843-.469 1.125l-6.703 5.672c-.562.468-1.125.656-1.781.656H.703c-.187 0-.375-.047-.516-.188-.14-.14-.187-.328-.187-.562v-4.5c0-.188.047-.375.187-.516a.753.753 0 01.516-.234h2.484l2.016-1.781a4.992 4.992 0 013.281-1.22h7.078c.422 0 .797.188 1.079.563.28.375.421.75.328 1.172-.094.375-.235.703-.516.938-.281.234-.61.328-.938.328h-3.468a.753.753 0 00-.516.234c-.14.14-.187.328-.187.516 0 .234.046.422.187.562.14.14.328.188.516.188h5.25c.656 0 1.218-.188 1.734-.656l4.125-3.47c.281-.234.563-.374.938-.374s.656.14.937.375z" fill="#B3F"/></svg>