<?xml version="1.0" encoding="utf-8"?><svg width="26" height="18" fill="none" xmlns="http://www.w3.org/2000/svg" viewBox="0 0 26 18"><path d="M25.078 2.813c.188.843.375 2.156.469 3.843L25.594 9l-.047 2.344c-.094 1.781-.281 3.047-.469 3.89a3.53 3.53 0 01-.844 1.407c-.422.422-.89.703-1.453.843-.843.235-2.718.375-5.718.47L12.796 18l-4.266-.047c-3-.094-4.922-.234-5.719-.469-.562-.14-1.078-.422-1.453-.843a2.718 2.718 0 01-.843-1.407c-.235-.843-.375-2.109-.47-3.89L0 9c0-.656 0-1.453.047-2.344.094-1.687.234-3 .469-3.843.14-.563.421-1.032.843-1.454.375-.375.891-.656 1.454-.843C3.609.328 5.53.14 8.53.046L12.797 0l4.265.047c3 .094 4.875.281 5.72.469a4.086 4.086 0 011.452.843c.375.422.657.891.844 1.454zm-14.906 10.03L16.875 9l-6.703-3.797v7.64z" fill="red"/></svg>