<?xml version="1.0" encoding="utf-8"?><svg viewBox="0 0 600 102" xmlns="http://www.w3.org/2000/svg" xmlns:xlink="http://www.w3.org/1999/xlink"><style>:root>svg{display:none}:root>svg:target{display:block}</style><svg fill="none" viewBox="0 0 24 18" id="ak06-1" xmlns="http://www.w3.org/2000/svg"><path d="M23.438 15.75c.156 0 .28.063.375.188a.445.445 0 01.187.374v1.125a.583.583 0 01-.188.422.507.507 0 01-.375.141H.563a.686.686 0 01-.421-.14.686.686 0 01-.141-.422V.563C0 .405.047.28.14.188A.583.583 0 01.563 0h1.125c.157 0 .282.063.375.188a.445.445 0 01.188.374V15.75h21.188zm-1.5-14.25h-6.375c-.25 0-.422.125-.516.375-.094.219-.063.406.094.563l2.484 2.437L13.5 9l-3-3-6.797 6.656 1.594 1.594L10.5 9.094l3 2.906 5.672-5.531 2.39 2.343c.157.188.344.235.563.141.25-.094.375-.265.375-.515V2.061a.445.445 0 00-.188-.374.445.445 0 00-.375-.188z" fill="#FF7F00"/></svg><svg fill="none" viewBox="0 0 30 21" id="ak06-2" xmlns="http://www.w3.org/2000/svg"><path d="M15 6.047c1.031 0 1.875.469 2.625 1.312.75.891 1.125 1.97 1.125 3.188 0 1.265-.375 2.344-1.125 3.187-.75.891-1.594 1.313-2.625 1.313s-1.922-.422-2.672-1.313c-.75-.843-1.078-1.921-1.078-3.187 0-1.219.328-2.297 1.078-3.188.75-.843 1.64-1.312 2.672-1.312zM29.11 1.03c.28.14.468.328.656.563.14.281.234.562.234.843v14.86c0 .469-.188.797-.469 1.078a1.454 1.454 0 01-1.031.422c-.188 0-.328 0-.516-.094a16.242 16.242 0 00-4.312-.61c-1.313 0-2.766.141-4.36.423-.937.187-2.39.562-4.312 1.03-1.969.47-3.375.798-4.313.985-1.64.328-3.093.469-4.359.469-1.969 0-3.797-.328-5.437-1.031a1.109 1.109 0 01-.657-.563C.047 19.172 0 18.891 0 18.563V3.703c0-.422.14-.797.422-1.078.281-.281.656-.422 1.078-.422.14 0 .328.047.516.094 1.312.422 2.765.61 4.312.61 1.266 0 2.719-.141 4.36-.423.937-.187 2.343-.515 4.312-.984 1.922-.469 3.375-.844 4.313-1.031C20.905.188 22.358 0 23.672 0c1.969 0 3.75.375 5.437 1.031zm-1.36 15.281V2.954c-1.266-.469-2.625-.703-4.078-.703-1.172 0-2.485.14-3.985.422-.937.187-2.296.515-4.125.984-2.015.516-3.515.844-4.546 1.031a25.618 25.618 0 01-4.735.47c-1.406 0-2.765-.141-4.031-.47v13.36c1.219.469 2.578.703 4.078.703 1.125 0 2.484-.14 3.984-.422.891-.187 2.25-.515 4.126-.984 1.968-.469 3.515-.844 4.546-1.032 1.688-.28 3.282-.468 4.688-.468 1.406 0 2.765.187 4.078.469z" fill="#FF7F00"/></svg><svg fill="none" viewBox="0 0 24 21" id="ak06-3" xmlns="http://www.w3.org/2000/svg"><path d="M23.25 1.875c.188 0 .375.094.516.234.14.141.234.329.234.516v.75a.776.776 0 01-.234.563c-.141.14-.328.187-.516.187H13.5V5.25a.776.776 0 01-.234.563c-.141.14-.329.187-.516.187h-1.5c-.234 0-.422-.047-.563-.188-.14-.14-.187-.328-.187-.562V4.125H.75c-.234 0-.422-.047-.563-.188C.047 3.797 0 3.61 0 3.375v-.75c0-.188.047-.375.188-.516a.776.776 0 01.562-.234h9.75V.75c0-.188.047-.375.188-.516A.776.776 0 0111.25 0h1.5c.188 0 .375.094.516.234.14.141.234.328.234.516v1.125h9.75zm0 15c.188 0 .375.094.516.234.14.141.234.328.234.516v.75a.776.776 0 01-.234.563c-.141.14-.328.187-.516.187H7.5v1.125a.776.776 0 01-.234.563c-.141.14-.329.187-.516.187h-1.5c-.234 0-.422-.047-.563-.188-.14-.14-.187-.328-.187-.562v-1.125H.75c-.234 0-.422-.047-.563-.188-.14-.14-.187-.328-.187-.562v-.75c0-.188.047-.375.188-.516a.776.776 0 01.562-.234H4.5V15.75c0-.188.047-.375.188-.516A.776.776 0 015.25 15h1.5c.188 0 .375.094.516.234.14.141.234.329.234.516v1.125h15.75zm0-7.5c.188 0 .375.094.516.234.14.141.234.329.234.516v.75a.776.776 0 01-.234.563c-.141.14-.328.187-.516.187H19.5v1.125a.776.776 0 01-.234.563c-.141.14-.328.187-.516.187h-1.5c-.234 0-.422-.047-.563-.188-.14-.14-.187-.328-.187-.562v-1.125H.75c-.234 0-.422-.047-.563-.188-.14-.14-.187-.328-.187-.562v-.75c0-.188.047-.375.188-.516a.776.776 0 01.562-.234H16.5V8.25c0-.188.047-.375.188-.516a.776.776 0 01.562-.234h1.5c.188 0 .375.094.516.234.14.141.234.329.234.516v1.125h3.75z" fill="#FF7F00"/></svg><svg fill="none" viewBox="0 0 26 22" id="ak06-4" xmlns="http://www.w3.org/2000/svg"><path d="M12.094 6.75c-.563-.14-.985-.422-1.36-.797a2.202 2.202 0 01-.656-1.406c-.094-.75.047-1.406.516-1.969.469-.562 1.031-.89 1.781-.984V.75c0-.188.047-.375.188-.516A.776.776 0 0113.124 0h.75c.188 0 .375.094.516.234.14.141.234.329.234.516v.844c.563.093 1.031.234 1.5.515a.594.594 0 01.188.422c0 .188-.047.375-.141.469l-.797.797c-.188.187-.422.234-.656.094-.188-.047-.328-.094-.516-.094h-1.5a.426.426 0 00-.328.14c-.094.094-.094.141-.094.235 0 .234.094.375.281.375l2.344.703c.516.188.985.469 1.36.844.375.375.562.843.656 1.36.094.75-.094 1.452-.563 2.015-.468.562-1.03.89-1.734.937v.844a.776.776 0 01-.234.563c-.141.14-.329.187-.516.187h-.75c-.234 0-.422-.047-.563-.188-.14-.14-.187-.328-.187-.562v-.844a3.184 3.184 0 01-1.5-.515c-.188-.094-.234-.235-.234-.422 0-.188.046-.328.187-.469l.797-.797c.188-.187.375-.187.656-.094.14.094.328.094.516.094h1.5c.094 0 .187 0 .281-.094.094-.093.14-.187.14-.28 0-.188-.093-.329-.28-.376l-2.344-.703zm12.937 8.625c.282.328.422.703.422 1.172s-.187.844-.469 1.125l-6.703 5.672c-.562.468-1.125.656-1.781.656H.703c-.187 0-.375-.047-.515-.188-.141-.14-.188-.328-.188-.562v-4.5c0-.188.047-.375.188-.516A.753.753 0 01.703 18h2.485l2.015-1.781A4.992 4.992 0 018.484 15h7.079c.421 0 .796.188 1.078.563.28.374.422.75.328 1.171-.094.375-.235.703-.516.938-.281.234-.61.328-.937.328h-3.47a.753.753 0 00-.515.234c-.14.141-.187.328-.187.516 0 .234.047.422.187.563.14.14.328.187.516.187h5.25c.656 0 1.219-.188 1.734-.656l4.125-3.469c.282-.234.563-.375.938-.375s.656.14.937.375z" fill="#FF7F00"/></svg><svg fill="none" viewBox="0 0 14 14" id="arr-icon" xmlns="http://www.w3.org/2000/svg"><path d="M9.678 4.839L7 7.51 4.322 4.84 3.5 5.66l3.5 3.5 3.5-3.5-.822-.822z" fill="#CCC"/></svg><svg fill="none" viewBox="0 0 12 12" id="arrow" xmlns="http://www.w3.org/2000/svg"><path d="M6 2l-.705.705L8.085 5.5H2v1h6.085l-2.79 2.795L6 10l4-4-4-4z" fill="#fff"/></svg><svg fill="none" viewBox="0 0 12 12" id="arrow-gray" xmlns="http://www.w3.org/2000/svg"><path d="M6 2l-.705.705L8.085 5.5H2v1h6.085l-2.79 2.795L6 10l4-4-4-4z" fill="#B3B3B3"/></svg><svg fill="none" viewBox="0 0 23 25" id="at24-1" xmlns="http://www.w3.org/2000/svg"><path d="M10.406 23.8c-1.781-.702-3.422-1.874-4.922-3.468-1.687-1.688-2.953-3.703-3.89-6.047C.516 11.707 0 8.941 0 5.988c0-.468.094-.89.375-1.265.234-.375.563-.61 1.031-.797l9-3.75c.563-.235 1.125-.235 1.735 0l8.953 3.75c.422.187.75.422 1.031.797.234.375.375.797.375 1.265 0 3.235-.61 6.188-1.781 8.86a20.276 20.276 0 01-4.125 5.906c-1.453 1.406-2.953 2.437-4.5 3.047a1.793 1.793 0 01-1.688 0zm.844-21.562l-9 3.75c0 2.532.422 4.922 1.313 7.172.796 2.063 1.921 3.89 3.328 5.39 1.312 1.5 2.765 2.532 4.359 3.188 1.5-.61 2.953-1.64 4.266-3.093 1.406-1.5 2.53-3.282 3.375-5.344.89-2.25 1.359-4.688 1.359-7.313l-9-3.75z" fill="#FFD500"/></svg><svg fill="none" viewBox="0 0 30 21" id="at24-2" xmlns="http://www.w3.org/2000/svg"><path d="M15 6.047c1.031 0 1.875.469 2.625 1.312.75.891 1.125 1.97 1.125 3.188 0 1.265-.375 2.344-1.125 3.187-.75.891-1.594 1.313-2.625 1.313s-1.922-.422-2.672-1.313c-.75-.843-1.078-1.921-1.078-3.187 0-1.219.328-2.297 1.078-3.188.75-.843 1.64-1.312 2.672-1.312zM29.11 1.03c.28.14.468.328.656.563.14.281.234.562.234.843v14.86c0 .469-.188.797-.469 1.078a1.454 1.454 0 01-1.031.422c-.188 0-.328 0-.516-.094a16.242 16.242 0 00-4.312-.61c-1.313 0-2.766.141-4.36.423-.937.187-2.39.562-4.312 1.03-1.969.47-3.375.798-4.313.985-1.64.328-3.093.469-4.359.469-1.969 0-3.797-.328-5.437-1.031a1.109 1.109 0 01-.657-.563C.047 19.172 0 18.891 0 18.563V3.703c0-.422.14-.797.422-1.078.281-.281.656-.422 1.078-.422.14 0 .328.047.516.094 1.312.422 2.765.61 4.312.61 1.266 0 2.719-.141 4.36-.423.937-.187 2.343-.515 4.312-.984 1.922-.469 3.375-.844 4.313-1.031C20.905.188 22.358 0 23.672 0c1.969 0 3.75.375 5.437 1.031zm-1.36 15.281V2.954c-1.266-.469-2.625-.703-4.078-.703-1.172 0-2.485.14-3.985.422-.937.187-2.296.515-4.125.984-2.015.516-3.515.844-4.546 1.031a25.618 25.618 0 01-4.735.47c-1.406 0-2.765-.141-4.031-.47v13.36c1.219.469 2.578.703 4.078.703 1.125 0 2.484-.14 3.984-.422.891-.187 2.25-.515 4.126-.984 1.968-.469 3.515-.844 4.546-1.032 1.688-.28 3.282-.468 4.688-.468 1.406 0 2.765.187 4.078.469z" fill="#FFD500"/></svg><svg fill="none" viewBox="0 0 24 21" id="at24-3" xmlns="http://www.w3.org/2000/svg"><path d="M23.25 1.875c.188 0 .375.094.516.234.14.141.234.329.234.516v.75a.776.776 0 01-.234.563c-.141.14-.328.187-.516.187H13.5V5.25a.776.776 0 01-.234.563c-.141.14-.329.187-.516.187h-1.5c-.234 0-.422-.047-.563-.188-.14-.14-.187-.328-.187-.562V4.125H.75c-.234 0-.422-.047-.563-.188C.047 3.797 0 3.61 0 3.375v-.75c0-.188.047-.375.188-.516a.776.776 0 01.562-.234h9.75V.75c0-.188.047-.375.188-.516A.776.776 0 0111.25 0h1.5c.188 0 .375.094.516.234.14.141.234.328.234.516v1.125h9.75zm0 15c.188 0 .375.094.516.234.14.141.234.328.234.516v.75a.776.776 0 01-.234.563c-.141.14-.328.187-.516.187H7.5v1.125a.776.776 0 01-.234.563c-.141.14-.329.187-.516.187h-1.5c-.234 0-.422-.047-.563-.188-.14-.14-.187-.328-.187-.562v-1.125H.75c-.234 0-.422-.047-.563-.188-.14-.14-.187-.328-.187-.562v-.75c0-.188.047-.375.188-.516a.776.776 0 01.562-.234H4.5V15.75c0-.188.047-.375.188-.516A.776.776 0 015.25 15h1.5c.188 0 .375.094.516.234.14.141.234.329.234.516v1.125h15.75zm0-7.5c.188 0 .375.094.516.234.14.141.234.329.234.516v.75a.776.776 0 01-.234.563c-.141.14-.328.187-.516.187H19.5v1.125a.776.776 0 01-.234.563c-.141.14-.328.187-.516.187h-1.5c-.234 0-.422-.047-.563-.188-.14-.14-.187-.328-.187-.562v-1.125H.75c-.234 0-.422-.047-.563-.188-.14-.14-.187-.328-.187-.562v-.75c0-.188.047-.375.188-.516a.776.776 0 01.562-.234H16.5V8.25c0-.188.047-.375.188-.516a.776.776 0 01.562-.234h1.5c.188 0 .375.094.516.234.14.141.234.329.234.516v1.125h3.75z" fill="#FFD500"/></svg><svg fill="none" viewBox="0 0 24 24" id="at24-4" xmlns="http://www.w3.org/2000/svg"><path d="M23.438 18H3V3.562c0-.14-.094-.28-.188-.374C2.72 3.094 2.579 3 2.438 3H.562a.594.594 0 00-.421.188.532.532 0 00-.141.374v16.875c0 .188.047.329.14.422.094.094.235.141.422.141h22.875c.141 0 .282-.047.375-.14a.595.595 0 00.188-.422v-1.875c0-.141-.094-.282-.188-.375-.093-.094-.234-.188-.375-.188zM17.483 7.453V7.5c.094-.094.235-.14.422-.094.188.047.282.14.375.282L22.5 16.5h-18v-4.875l4.078-6.797A.492.492 0 019 4.594c.188 0 .375.047.516.187l3.984 5.344 3.984-2.672z" fill="#FFD500"/></svg><svg fill="none" viewBox="0 0 24 24" id="at24-5" xmlns="http://www.w3.org/2000/svg"><path d="M16.875 6.75H1.125c-.313 0-.578.11-.797.328A1.085 1.085 0 000 7.875v3.75c0 .313.11.578.328.797.219.219.484.328.797.328H1.5c0 1.219.281 2.375.844 3.469a7.443 7.443 0 002.297 2.625 7.546 7.546 0 003.234 1.312V24h2.25v-3.844a7.547 7.547 0 003.234-1.312 7.442 7.442 0 002.297-2.625 7.48 7.48 0 00.844-3.469h.375c.313 0 .578-.11.797-.328.219-.219.328-.485.328-.797v-3.75c0-.313-.11-.578-.328-.797a1.085 1.085 0 00-.797-.328zM15.75 10.5h-1.5v2.25c0 .938-.234 1.813-.703 2.625a5.157 5.157 0 01-1.922 1.922A5.166 5.166 0 019 18a5.166 5.166 0 01-2.625-.703 5.157 5.157 0 01-1.922-1.922 5.165 5.165 0 01-.703-2.625V10.5h-1.5V9h13.5v1.5zM12.375 6V1.125c0-.313.11-.578.328-.797C12.922.11 13.188 0 13.5 0c.313 0 .578.11.797.328.219.219.328.484.328.797V6h-2.25zm-9 0V1.125c0-.313.11-.578.328-.797C3.922.11 4.188 0 4.5 0c.313 0 .578.11.797.328.219.219.328.484.328.797V6h-2.25z" fill="#FFD500"/></svg><svg fill="none" viewBox="0 0 27 24" id="at24-6" xmlns="http://www.w3.org/2000/svg"><path d="M15.75 21c.188 0 .375.094.516.234.14.141.234.328.234.516v1.5a.776.776 0 01-.234.563c-.141.14-.328.187-.516.187h-15c-.234 0-.422-.047-.563-.188-.14-.14-.187-.328-.187-.562v-1.5c0-.188.047-.375.188-.516A.776.776 0 01.75 21h15zM25.5 6h.75c.188 0 .375.094.516.234.14.141.234.329.234.516v1.5c0 .844-.281 1.547-.75 2.203a3.624 3.624 0 01-1.875 1.36v5.624c0 1.032-.422 1.922-1.172 2.625-.797.75-1.734 1.032-2.765.938-.938-.094-1.688-.469-2.297-1.219-.61-.703-.891-1.547-.891-2.484v-1.172c0-.516-.188-.938-.563-1.313-.375-.374-.796-.562-1.312-.562H15v5.25H1.5V3c0-.844.281-1.547.844-2.11A3.01 3.01 0 014.5 0H12c.844 0 1.547.328 2.11.89.562.563.89 1.266.89 2.11v9h.375c1.125 0 2.063.422 2.906 1.219.797.844 1.219 1.781 1.219 2.906v1.313c0 .421.14.75.469 1.03.281.282.656.376 1.078.282.281-.047.562-.188.75-.469.187-.281.328-.562.328-.937v-5.532a3.56 3.56 0 01-1.922-1.359A3.634 3.634 0 0119.5 8.25v-1.5c0-.188.047-.375.188-.516A.776.776 0 0120.25 6H21V3.75c0-.188.047-.375.188-.516A.776.776 0 0121.75 3c.188 0 .375.094.516.234.14.141.234.329.234.516V6H24V3.75c0-.188.047-.375.188-.516A.776.776 0 0124.75 3c.188 0 .375.094.516.234.14.141.234.329.234.516V6zM12.187 8.25c.094-.14.094-.281 0-.469a.516.516 0 00-.468-.281H9l.563-2.39a.756.756 0 00-.141-.423A.594.594 0 009 4.5H5.812c-.187 0-.28.047-.375.14-.093.094-.187.188-.187.282L4.5 9.938c-.047.187 0 .328.14.421.094.094.235.141.423.141h2.765L6.75 14.39c-.047.188 0 .329.094.422.093.141.281.188.468.188.188 0 .375-.047.47-.234l4.405-6.516z" fill="#FFD500"/></svg><svg fill="none" viewBox="0 0 24 18" id="at27-1" xmlns="http://www.w3.org/2000/svg"><path d="M23.438 15.75c.156 0 .28.063.375.188a.445.445 0 01.187.374v1.125a.583.583 0 01-.188.422.507.507 0 01-.375.141H.563a.686.686 0 01-.421-.14.686.686 0 01-.141-.422V.563C0 .405.047.28.14.188A.583.583 0 01.563 0h1.125c.157 0 .282.063.375.188a.445.445 0 01.188.374V15.75h21.188zm-1.5-14.25h-6.375c-.25 0-.422.125-.516.375-.094.219-.063.406.094.563l2.484 2.437L13.5 9l-3-3-6.797 6.656 1.594 1.594L10.5 9.094l3 2.906 5.672-5.531 2.39 2.343c.157.188.344.235.563.141.25-.094.375-.265.375-.515V2.061a.445.445 0 00-.188-.374.445.445 0 00-.375-.188z" fill="red"/></svg><svg fill="none" viewBox="0 0 30 21" id="at27-2" xmlns="http://www.w3.org/2000/svg"><path d="M15 6.047c1.031 0 1.875.469 2.625 1.312.75.891 1.125 1.97 1.125 3.188 0 1.265-.375 2.344-1.125 3.187-.75.891-1.594 1.313-2.625 1.313s-1.922-.422-2.672-1.313c-.75-.843-1.078-1.921-1.078-3.187 0-1.219.328-2.297 1.078-3.188.75-.843 1.64-1.312 2.672-1.312zM29.11 1.03c.28.14.468.328.656.563.14.281.234.562.234.843v14.86c0 .469-.188.797-.469 1.078a1.454 1.454 0 01-1.031.422c-.188 0-.328 0-.516-.094a16.242 16.242 0 00-4.312-.61c-1.313 0-2.766.141-4.36.423-.937.187-2.39.562-4.312 1.03-1.969.47-3.375.798-4.313.985-1.64.328-3.093.469-4.359.469-1.969 0-3.797-.328-5.437-1.031a1.109 1.109 0 01-.657-.563C.047 19.172 0 18.891 0 18.563V3.703c0-.422.14-.797.422-1.078.281-.281.656-.422 1.078-.422.14 0 .328.047.516.094 1.312.422 2.765.61 4.312.61 1.266 0 2.719-.141 4.36-.423.937-.187 2.343-.515 4.312-.984 1.922-.469 3.375-.844 4.313-1.031C20.905.188 22.358 0 23.672 0c1.969 0 3.75.375 5.437 1.031zm-1.36 15.281V2.954c-1.266-.469-2.625-.703-4.078-.703-1.172 0-2.485.14-3.985.422-.937.187-2.296.515-4.125.984-2.015.516-3.515.844-4.546 1.031a25.618 25.618 0 01-4.735.47c-1.406 0-2.765-.141-4.031-.47v13.36c1.219.469 2.578.703 4.078.703 1.125 0 2.484-.14 3.984-.422.891-.187 2.25-.515 4.126-.984 1.968-.469 3.515-.844 4.546-1.032 1.688-.28 3.282-.468 4.688-.468 1.406 0 2.765.187 4.078.469z" fill="red"/></svg><svg fill="none" viewBox="0 0 24 21" id="at27-3" xmlns="http://www.w3.org/2000/svg"><path d="M23.25 1.875c.188 0 .375.094.516.234.14.141.234.329.234.516v.75a.776.776 0 01-.234.563c-.141.14-.328.187-.516.187H13.5V5.25a.776.776 0 01-.234.563c-.141.14-.329.187-.516.187h-1.5c-.234 0-.422-.047-.563-.188-.14-.14-.187-.328-.187-.562V4.125H.75c-.234 0-.422-.047-.563-.188C.047 3.797 0 3.61 0 3.375v-.75c0-.188.047-.375.188-.516a.776.776 0 01.562-.234h9.75V.75c0-.188.047-.375.188-.516A.776.776 0 0111.25 0h1.5c.188 0 .375.094.516.234.14.141.234.328.234.516v1.125h9.75zm0 15c.188 0 .375.094.516.234.14.141.234.328.234.516v.75a.776.776 0 01-.234.563c-.141.14-.328.187-.516.187H7.5v1.125a.776.776 0 01-.234.563c-.141.14-.329.187-.516.187h-1.5c-.234 0-.422-.047-.563-.188-.14-.14-.187-.328-.187-.562v-1.125H.75c-.234 0-.422-.047-.563-.188-.14-.14-.187-.328-.187-.562v-.75c0-.188.047-.375.188-.516a.776.776 0 01.562-.234H4.5V15.75c0-.188.047-.375.188-.516A.776.776 0 015.25 15h1.5c.188 0 .375.094.516.234.14.141.234.329.234.516v1.125h15.75zm0-7.5c.188 0 .375.094.516.234.14.141.234.329.234.516v.75a.776.776 0 01-.234.563c-.141.14-.328.187-.516.187H19.5v1.125a.776.776 0 01-.234.563c-.141.14-.328.187-.516.187h-1.5c-.234 0-.422-.047-.563-.188-.14-.14-.187-.328-.187-.562v-1.125H.75c-.234 0-.422-.047-.563-.188-.14-.14-.187-.328-.187-.562v-.75c0-.188.047-.375.188-.516a.776.776 0 01.562-.234H16.5V8.25c0-.188.047-.375.188-.516a.776.776 0 01.562-.234h1.5c.188 0 .375.094.516.234.14.141.234.329.234.516v1.125h3.75z" fill="red"/></svg><svg fill="none" viewBox="0 0 24 24" id="at27-4" xmlns="http://www.w3.org/2000/svg"><path d="M16.875 6.75H1.125c-.313 0-.578.11-.797.328A1.085 1.085 0 000 7.875v3.75c0 .313.11.578.328.797.219.219.484.328.797.328H1.5c0 1.219.281 2.375.844 3.469a7.443 7.443 0 002.297 2.625 7.546 7.546 0 003.234 1.312V24h2.25v-3.844a7.547 7.547 0 003.234-1.312 7.442 7.442 0 002.297-2.625 7.48 7.48 0 00.844-3.469h.375c.313 0 .578-.11.797-.328.219-.219.328-.485.328-.797v-3.75c0-.313-.11-.578-.328-.797a1.085 1.085 0 00-.797-.328zM15.75 10.5h-1.5v2.25c0 .938-.234 1.813-.703 2.625a5.157 5.157 0 01-1.922 1.922A5.166 5.166 0 019 18a5.166 5.166 0 01-2.625-.703 5.157 5.157 0 01-1.922-1.922 5.165 5.165 0 01-.703-2.625V10.5h-1.5V9h13.5v1.5zM12.375 6V1.125c0-.313.11-.578.328-.797C12.922.11 13.188 0 13.5 0c.313 0 .578.11.797.328.219.219.328.484.328.797V6h-2.25zm-9 0V1.125c0-.313.11-.578.328-.797C3.922.11 4.188 0 4.5 0c.313 0 .578.11.797.328.219.219.328.484.328.797V6h-2.25z" fill="red"/></svg><svg fill="none" viewBox="0 0 48 48" id="certif-logo" xmlns="http://www.w3.org/2000/svg"><path fill-rule="evenodd" clip-rule="evenodd" d="M24 0c13.218 0 24 10.781 24 24S37.218 48 24 48C10.78 48 0 37.218 0 24 0 10.78 10.781 0 24 0zm0 4.328c10.835 0 19.672 8.837 19.672 19.672S34.835 43.672 24 43.672 4.328 34.835 4.328 24 13.165 4.328 24 4.328z" fill="#000"/><path fill-rule="evenodd" clip-rule="evenodd" d="M35.485 36.957h-9.592V18.015h4.584v15.083h5.008v3.86zm-11.43-12.152c0 3.454-2.285 5.334-5.556 5.334h-.672c-3.245 0-5.606-1.677-5.606-5.183v-14.06h4.584v14.301c0 1.002.399 1.503 1.196 1.503h.25c1.02 0 1.22-.981 1.22-1.804v-14h4.584v13.909zm-8.61 9.198c0 1.484 1.2 2.691 2.675 2.691a2.676 2.676 0 002.675-2.69 2.676 2.676 0 00-2.675-2.691 2.686 2.686 0 00-2.676 2.69zm.504 0c0-1.268.978-2.282 2.17-2.282 1.2 0 2.171 1.014 2.171 2.282 0 1.261-.963 2.283-2.17 2.283-1.193 0-2.171-1.022-2.171-2.283zm1.192 1.323h.497V34.21h.405c.566 0 .581.254.588.5.016.446.008.507.1.615h.512c-.107-.146-.084-.223-.107-.638-.016-.27-.039-.577-.382-.646v-.016c.397-.16.45-.43.45-.615 0-.699-.596-.776-.878-.776H17.14v2.69zm.497-2.322h.52c.32 0 .542.085.542.407 0 .193-.076.431-.489.431h-.573v-.838z" fill="#000"/></svg><svg fill="none" viewBox="0 0 24 18" id="ep01-1" xmlns="http://www.w3.org/2000/svg"><path d="M23.438 15.75c.156 0 .28.063.375.188a.445.445 0 01.187.374v1.125a.583.583 0 01-.188.422.507.507 0 01-.375.141H.563a.686.686 0 01-.421-.14.686.686 0 01-.141-.422V.563C0 .405.047.28.14.188A.583.583 0 01.563 0h1.125c.157 0 .282.063.375.188a.445.445 0 01.188.374V15.75h21.188zm-1.5-14.25h-6.375c-.25 0-.422.125-.516.375-.094.219-.063.406.094.563l2.484 2.437L13.5 9l-3-3-6.797 6.656 1.594 1.594L10.5 9.094l3 2.906 5.672-5.531 2.39 2.343c.157.188.344.235.563.141.25-.094.375-.265.375-.515V2.061a.445.445 0 00-.188-.374.445.445 0 00-.375-.188z" fill="#FB33FF"/></svg><svg fill="none" viewBox="0 0 18 24" id="ep01-2" xmlns="http://www.w3.org/2000/svg"><path d="M16.875 6.75H1.125c-.313 0-.578.11-.797.328A1.085 1.085 0 000 7.875v3.75c0 .313.11.578.328.797.219.219.484.328.797.328H1.5c0 1.219.281 2.375.844 3.469a7.443 7.443 0 002.296 2.625 7.546 7.546 0 003.235 1.312V24h2.25v-3.844a7.547 7.547 0 003.234-1.312 7.442 7.442 0 002.297-2.625 7.48 7.48 0 00.844-3.469h.375c.312 0 .578-.11.797-.328.218-.219.328-.485.328-.797v-3.75c0-.313-.11-.578-.328-.797a1.085 1.085 0 00-.797-.328zM15.75 10.5h-1.5v2.25c0 .938-.235 1.813-.703 2.625a5.157 5.157 0 01-1.922 1.922A5.166 5.166 0 019 18a5.166 5.166 0 01-2.625-.703 5.157 5.157 0 01-1.922-1.922 5.165 5.165 0 01-.703-2.625V10.5h-1.5V9h13.5v1.5zM12.375 6V1.125c0-.313.11-.578.328-.797C12.922.11 13.187 0 13.5 0c.312 0 .578.11.797.328.218.219.328.484.328.797V6h-2.25zm-9 0V1.125c0-.313.11-.578.328-.797C3.922.11 4.187 0 4.5 0c.312 0 .578.11.797.328.218.219.328.484.328.797V6h-2.25z" fill="#FF33F7"/></svg><svg fill="none" viewBox="0 0 20 20" id="facebook" xmlns="http://www.w3.org/2000/svg"><path d="M17.5 0h-15A2.503 2.503 0 000 2.5v15C0 18.879 1.121 20 2.5 20h15c1.379 0 2.5-1.121 2.5-2.5v-15C20 1.121 18.879 0 17.5 0z" fill="#0075FB"/><path d="M16.875 10H13.75V7.5c0-.69.56-.625 1.25-.625h1.25V3.75h-2.5A3.75 3.75 0 0010 7.5V10H7.5v3.125H10V20h3.75v-6.875h1.875L16.875 10z" fill="#FAFAFA"/></svg><svg fill="none" viewBox="0 0 11 11" id="footer-facebook" xmlns="http://www.w3.org/2000/svg"><path d="M10.75 1.375c0-.305-.117-.563-.328-.797C10.187.368 9.93.25 9.625.25h-8.25C1.047.25.789.367.578.578a1.062 1.062 0 00-.328.797v8.25c0 .328.094.586.328.797.211.234.469.328.797.328h4.617V6.602h-1.43V5.008h1.43V3.836c0-.656.164-1.148.54-1.523.374-.376.866-.563 1.5-.563.468 0 .89.023 1.218.07v1.407h-.844c-.304 0-.515.07-.633.21-.093.141-.14.329-.14.563v1.008H9.25l-.21 1.594H7.632v4.148h1.992c.305 0 .563-.094.797-.328.21-.211.328-.469.328-.797v-8.25z" fill="#fff"/></svg><svg fill="none" viewBox="0 0 11 11" id="footer-instagram" xmlns="http://www.w3.org/2000/svg"><path d="M10.967 3.232c-.027-.585-.12-.985-.256-1.335a2.695 2.695 0 00-.634-.974A2.696 2.696 0 009.103.29c-.35-.136-.75-.23-1.335-.256C7.18.006 6.994 0 5.5 0 4.006 0 3.819.006 3.232.033c-.585.027-.985.12-1.335.256-.367.138-.7.354-.974.634-.28.275-.496.607-.634.974-.136.35-.23.75-.256 1.335C.006 3.82 0 4.006 0 5.5 0 6.994.006 7.18.033 7.768c.027.585.12.985.256 1.335.138.367.354.7.634.974.275.28.607.496.974.634.35.136.75.23 1.335.256.587.027.774.033 2.268.033 1.494 0 1.681-.006 2.268-.033.585-.027.985-.12 1.335-.256a2.812 2.812 0 001.608-1.608c.136-.35.23-.75.256-1.335.027-.587.033-.774.033-2.268 0-1.494-.006-1.681-.033-2.268zm-.99 4.49c-.025.537-.114.828-.19 1.022-.184.48-.564.859-1.043 1.044-.194.075-.485.165-1.022.189-.58.027-.753.032-2.222.032-1.469 0-1.643-.005-2.223-.032-.536-.024-.827-.114-1.02-.19a1.704 1.704 0 01-.633-.41 1.704 1.704 0 01-.412-.633c-.075-.194-.165-.485-.189-1.021C.997 7.143.991 6.969.991 5.5c0-1.469.006-1.642.032-2.222.025-.537.114-.828.19-1.022.088-.239.228-.455.41-.632.178-.183.394-.323.633-.412.194-.075.485-.164 1.022-.189C3.858.997 4.03.991 5.5.991c1.468 0 1.642.006 2.222.032.537.025.828.114 1.022.19.239.088.455.228.632.41.183.178.323.394.411.633.076.194.165.485.19 1.022.026.58.032.753.032 2.222 0 1.469-.006 1.643-.032 2.223z" fill="#fff"/><path d="M5.5 2.676a2.824 2.824 0 100 5.648 2.824 2.824 0 000-5.648zm0 4.657a1.833 1.833 0 110-3.666 1.833 1.833 0 010 3.666zM9.096 2.564a.66.66 0 11-1.32 0 .66.66 0 011.32 0z" fill="#fff"/></svg><svg fill="none" viewBox="0 0 11 11" id="footer-link" xmlns="http://www.w3.org/2000/svg"><path d="M10 .25c.188 0 .375.094.516.234.14.141.234.329.234.516v9a.763.763 0 01-.75.75H1a.743.743 0 01-.54-.21.743.743 0 01-.21-.54V1C.25.812.32.625.46.484A.763.763 0 011 .25h9zm-6.586 9h.023V4.234h-1.57V9.25h1.547zm-.773-5.695c.234 0 .445-.07.632-.258a.874.874 0 00.282-.633.874.874 0 00-.282-.633.874.874 0 00-.632-.281.803.803 0 00-.633.281.849.849 0 00-.258.633c0 .234.07.445.258.633.164.187.375.258.633.258zM9.25 9.25V6.508c0-.774-.117-1.336-.328-1.711-.305-.445-.82-.68-1.524-.68-.375 0-.68.094-.96.258-.235.14-.422.328-.516.54h-.024v-.68h-1.5V9.25h1.547V6.766c0-.375.047-.68.164-.891.141-.258.399-.398.774-.398.351 0 .586.164.703.445.07.187.117.492.117.89V9.25H9.25z" fill="#fff"/></svg><svg fill="none" viewBox="0 0 14 9" id="footer-youtube" xmlns="http://www.w3.org/2000/svg"><path d="M13.14 1.406c.094.422.188 1.078.235 1.922l.023 1.172-.023 1.172c-.047.89-.14 1.523-.234 1.945a1.766 1.766 0 01-.422.703 1.53 1.53 0 01-.727.422c-.422.117-1.36.188-2.86.235L7 9l-2.133-.023c-1.5-.047-2.46-.118-2.86-.235-.28-.07-.538-.21-.726-.422a1.36 1.36 0 01-.422-.703C.742 7.195.672 6.563.625 5.672L.602 4.5c0-.328 0-.727.023-1.172.047-.844.117-1.5.234-1.922.07-.281.211-.515.422-.726.188-.188.446-.328.727-.422.398-.094 1.36-.188 2.86-.235L7 0l2.133.023c1.5.047 2.437.141 2.86.235.28.094.515.234.726.422.187.21.328.445.422.726zM5.688 6.422L9.04 4.5 5.688 2.602v3.82z" fill="#fff"/></svg><svg fill="none" viewBox="0 0 20 20" id="gmail" xmlns="http://www.w3.org/2000/svg"><path d="M18.944 4.797l-1.277 12.82H2.332L1.304 5.046 10 9.915l8.944-5.118z" fill="#F2F2F2"/><path d="M18.511 2.382L10 10.377 1.489 2.382H18.51z" fill="#F2F2F2"/><path d="M2.333 6.074v11.544H.943A.943.943 0 010 16.675V4.374l1.523.041.81 1.659z" fill="#F14336"/><path d="M20 4.374v12.301c0 .52-.422.943-.944.943h-1.389V6.074l.77-1.817L20 4.374z" fill="#D32E2A"/><path d="M20 3.325v1.049l-2.332 1.7L10 11.663 2.332 6.074 0 4.374V3.325c0-.52.422-.943.943-.943h.546L10 8.586l8.511-6.204h.546c.52 0 .943.423.943.943z" fill="#F14336"/><path d="M2.333 6.074L0 5.712V4.374l2.333 1.7z" fill="#D32E2A"/></svg><svg fill="none" viewBox="0 0 162 39" id="googleplay" xmlns="http://www.w3.org/2000/svg"><path d="M52.342 5.285c0 1.12-.28 2.1-.98 2.799-.84.84-1.82 1.26-3.079 1.26-1.26 0-2.239-.42-3.079-1.26-.84-.84-1.26-1.82-1.26-3.079 0-1.26.42-2.24 1.26-3.079.84-.84 1.82-1.26 3.08-1.26.56 0 1.119.14 1.679.42.56.28.98.56 1.26.98l-.7.7c-.56-.7-1.26-.98-2.24-.98-.84 0-1.68.28-2.239.98-.7.56-.98 1.4-.98 2.379 0 .98.28 1.82.98 2.38.7.559 1.4.979 2.24.979.979 0 1.679-.28 2.379-.98.42-.42.7-.98.7-1.68h-3.08V4.726h4.059v.56zm6.438-3.499H55v2.66h3.5v.979H55v2.659h3.78v1.12H53.88V.806h4.899v.98zm4.618 7.418h-1.12V1.786H59.9v-.98h5.878v.98h-2.379v7.418zm6.438 0V.806h1.12v8.398h-1.12zm5.878 0h-1.12V1.786h-2.38v-.98h5.739v.98h-2.38v7.418h.14zm13.295-1.12c-.84.84-1.82 1.26-3.079 1.26-1.26 0-2.24-.42-3.079-1.26-.84-.84-1.26-1.82-1.26-3.079 0-1.26.42-2.24 1.26-3.079.84-.84 1.82-1.26 3.08-1.26 1.259 0 2.238.42 3.078 1.26.84.84 1.26 1.82 1.26 3.079 0 1.26-.42 2.24-1.26 3.079zm-5.318-.7c.56.56 1.4.98 2.24.98.839 0 1.678-.28 2.238-.98.56-.56.98-1.4.98-2.379 0-.98-.28-1.82-.98-2.38-.56-.559-1.4-.979-2.239-.979-.84 0-1.68.28-2.24.98-.559.56-.979 1.4-.979 2.379 0 .98.28 1.82.98 2.38zm8.117 1.82V.806h1.26l4.058 6.578V.806h1.12v8.398h-1.12l-4.338-6.858v6.858h-.98zM81.311 21.52c-3.359 0-6.018 2.518-6.018 6.017a5.973 5.973 0 006.018 6.018c3.36 0 6.018-2.52 6.018-6.018 0-3.639-2.659-6.018-6.018-6.018zm0 9.516c-1.82 0-3.359-1.54-3.359-3.639 0-2.1 1.54-3.639 3.36-3.639 1.819 0 3.358 1.4 3.358 3.639 0 2.1-1.54 3.639-3.359 3.639zm-13.015-9.517c-3.36 0-6.018 2.52-6.018 6.018a5.973 5.973 0 006.018 6.018c3.359 0 6.018-2.52 6.018-6.018 0-3.639-2.66-6.018-6.018-6.018zm0 9.517c-1.82 0-3.36-1.54-3.36-3.639 0-2.1 1.54-3.639 3.36-3.639 1.82 0 3.359 1.4 3.359 3.639 0 2.1-1.54 3.639-3.36 3.639zM52.76 23.338v2.52h6.018c-.14 1.4-.7 2.519-1.4 3.218-.84.84-2.239 1.82-4.618 1.82-3.779 0-6.578-2.94-6.578-6.718 0-3.779 2.94-6.718 6.578-6.718 1.96 0 3.499.84 4.619 1.82l1.819-1.82c-1.54-1.399-3.499-2.519-6.298-2.519-5.038 0-9.377 4.199-9.377 9.237s4.339 9.237 9.377 9.237c2.8 0 4.758-.84 6.438-2.66 1.68-1.678 2.24-4.058 2.24-5.877 0-.56 0-1.12-.14-1.54H52.76zm63.538 1.96c-.56-1.4-1.959-3.779-5.038-3.779s-5.598 2.38-5.598 6.018c0 3.359 2.519 6.018 5.878 6.018 2.659 0 4.338-1.68 4.898-2.66l-1.959-1.399c-.7.98-1.54 1.68-2.939 1.68-1.4 0-2.24-.56-2.939-1.82l7.977-3.359-.28-.7zm-8.117 1.96c0-2.24 1.819-3.5 3.079-3.5.979 0 1.959.56 2.239 1.26l-5.318 2.24zm-6.578 5.737h2.659V15.501h-2.659v17.494zM97.406 22.78c-.7-.7-1.82-1.4-3.22-1.4-2.938 0-5.737 2.66-5.737 6.018 0 3.359 2.659 5.878 5.738 5.878 1.4 0 2.519-.7 3.079-1.4h.14v.84c0 2.24-1.26 3.499-3.22 3.499-1.539 0-2.658-1.12-2.938-2.1l-2.24.98c.7 1.54 2.38 3.5 5.319 3.5 3.079 0 5.598-1.82 5.598-6.159V21.8h-2.52v.98zm-3.08 8.257c-1.819 0-3.358-1.54-3.358-3.639 0-2.1 1.54-3.639 3.359-3.639s3.219 1.54 3.219 3.639c0 2.1-1.4 3.639-3.22 3.639zM128.476 15.5h-6.298v17.494h2.659v-6.578h3.639c2.939 0 5.738-2.099 5.738-5.458 0-3.358-2.799-5.458-5.738-5.458zm.14 8.397h-3.779V17.88h3.779c1.959 0 3.079 1.68 3.079 2.94-.14 1.539-1.26 3.078-3.079 3.078zm16.094-2.519c-1.959 0-3.919.84-4.618 2.66l2.379.979c.56-.98 1.399-1.26 2.379-1.26 1.4 0 2.659.84 2.799 2.24v.14c-.42-.28-1.539-.7-2.659-.7-2.519 0-5.038 1.4-5.038 3.918 0 2.38 2.099 3.919 4.338 3.919 1.82 0 2.659-.84 3.359-1.68h.14v1.4h2.519v-6.718c-.28-3.079-2.659-4.898-5.598-4.898zm-.28 9.657c-.84 0-2.099-.42-2.099-1.54 0-1.4 1.539-1.819 2.799-1.819 1.12 0 1.679.28 2.379.56-.28 1.68-1.679 2.799-3.079 2.799zm14.695-9.237l-2.939 7.557h-.14l-3.079-7.557h-2.799l4.619 10.636-2.659 5.878h2.659l7.137-16.514h-2.799zm-23.512 11.196h2.659V15.501h-2.659v17.494z" fill="#000"/><path d="M.56 1.506c-.42.42-.56 1.12-.56 1.96v30.928c0 .84.28 1.54.7 1.96l.14.14L18.194 19.14v-.28L.56 1.506z" fill="url(#bapaint0_linear)"/><path d="M23.792 25.018l-5.738-5.738v-.42l5.738-5.738.14.14 6.857 3.919c1.96 1.12 1.96 2.939 0 4.058l-6.997 3.779z" fill="url(#bapaint1_linear)"/><path d="M23.931 24.878L18.053 19 .56 36.494c.7.7 1.679.7 2.939.14L23.93 24.878z" fill="url(#bapaint2_linear)"/><path d="M23.931 13.122L3.5 1.506c-1.26-.7-2.24-.56-2.94.14L18.054 19l5.878-5.878z" fill="url(#bapaint3_linear)"/><path opacity=".2" d="M23.791 24.738L3.5 36.214c-1.12.7-2.1.56-2.8 0l-.14.14.14.14c.7.56 1.68.7 2.8 0L23.79 24.738z" fill="#000"/><path opacity=".2" d="M.56 36.214c-.42-.42-.56-1.12-.56-1.96v.14c0 .84.28 1.54.7 1.96v-.14H.56zm30.23-15.395l-6.998 3.919.14.14 6.857-3.919c.98-.56 1.4-1.26 1.4-1.959 0 .7-.56 1.26-1.4 1.82z" fill="#000"/><path opacity=".2" d="M3.499 1.646l27.29 15.534c.84.56 1.4 1.12 1.4 1.82 0-.7-.42-1.4-1.4-1.96L3.5 1.507C1.539.386 0 1.226 0 3.466v.14c0-2.1 1.54-3.08 3.499-1.96z" fill="#fff"/><defs><linearGradient id="bapaint0_linear" x1="16.514" y1="3.199" x2="-6.974" y2="26.686" gradientUnits="userSpaceOnUse"><stop stop-color="#00A0FF"/><stop offset=".007" stop-color="#00A1FF"/><stop offset=".26" stop-color="#00BEFF"/><stop offset=".512" stop-color="#00D2FF"/><stop offset=".76" stop-color="#00DFFF"/><stop offset="1" stop-color="#00E3FF"/></linearGradient><linearGradient id="bapaint1_linear" x1="33.356" y1="19.001" x2="-.508" y2="19.001" gradientUnits="userSpaceOnUse"><stop stop-color="#FFE000"/><stop offset=".409" stop-color="#FFBD00"/><stop offset=".775" stop-color="orange"/><stop offset="1" stop-color="#FF9C00"/></linearGradient><linearGradient id="bapaint2_linear" x1="20.75" y1="22.213" x2="-11.1" y2="54.063" gradientUnits="userSpaceOnUse"><stop stop-color="#FF3A44"/><stop offset="1" stop-color="#C31162"/></linearGradient><linearGradient id="bapaint3_linear" x1="-3.783" y1="-8.744" x2="10.44" y2="5.479" gradientUnits="userSpaceOnUse"><stop stop-color="#32A071"/><stop offset=".069" stop-color="#2DA771"/><stop offset=".476" stop-color="#15CF74"/><stop offset=".801" stop-color="#06E775"/><stop offset="1" stop-color="#00F076"/></linearGradient></defs></svg><svg fill="none" viewBox="0 0 20 20" id="link" xmlns="http://www.w3.org/2000/svg"><path d="M17.875.125c.344 0 .688.172.945.43.258.257.43.601.43.945V18c0 .387-.172.73-.43.988a1.333 1.333 0 01-.945.387h-16.5c-.387 0-.73-.129-.988-.387S0 18.387 0 18V1.5C0 1.156.129.812.387.555c.258-.258.601-.43.988-.43h16.5zm-12.074 16.5h.043V7.43h-2.88v9.195h2.837zM4.383 6.184c.43 0 .816-.13 1.16-.473.344-.344.516-.73.516-1.16 0-.43-.172-.817-.516-1.16-.344-.344-.73-.516-1.16-.516-.473 0-.86.172-1.16.516-.344.343-.473.73-.473 1.16 0 .43.129.816.473 1.16.3.344.687.473 1.16.473zM16.5 16.625v-5.027c0-1.418-.215-2.45-.602-3.137-.558-.816-1.503-1.246-2.793-1.246-.687 0-1.246.172-1.761.473-.43.257-.774.601-.946.988h-.043V7.43h-2.75v9.195h2.836V12.07c0-.687.086-1.246.301-1.633.258-.472.73-.73 1.418-.73.645 0 1.074.3 1.29.816.128.344.214.903.214 1.633v4.469H16.5z" fill="#0177B4"/></svg><svg fill="none" viewBox="0 0 73 14" id="logo-footer" xmlns="http://www.w3.org/2000/svg"><path d="M14.934.618c.13-.274.34-.36.637-.36 3.472.009 6.943.005 10.419.005.499 0 .669.177.669.69v2.023c0 .497-.178.678-.661.678h-2.775c-.083 0-.162.008-.265.012v9.383c0 .093 0 .186-.004.279-.016.262-.202.448-.46.448-1.128.004-2.256.004-3.38 0-.265 0-.467-.206-.495-.5-.008-.07-.004-.142-.004-.215V3.93v-.275h-.245c-.927 0-1.853-.008-2.775.004-.301.004-.523-.076-.657-.359-.004-.892-.004-1.789-.004-2.68zM53.58 0c1.244.008 2.44.133 3.587.573 1.888.723 3.052 2.1 3.5 4.098.36 1.607.356 3.218-.036 4.817-.535 2.172-1.916 3.504-3.99 4.11-1.461.428-2.953.48-4.458.315-.95-.105-1.872-.323-2.731-.751-1.536-.763-2.478-2.023-2.874-3.694-.416-1.744-.412-3.5.08-5.225.573-2.014 1.927-3.25 3.878-3.84C51.53.098 52.563.009 53.581 0zm-2.968 7.005c.023.262.031.525.07.783.163 1.01.698 1.712 1.667 2.023.769.246 1.56.25 2.34.048.918-.238 1.536-.815 1.777-1.764a4.294 4.294 0 000-2.16c-.233-.908-.807-1.49-1.698-1.744a4.217 4.217 0 00-2.419.02c-.653.198-1.151.61-1.444 1.252-.218.48-.285 1.005-.293 1.542zM37.6 7.676c.08.056.131.096.187.137.593.404 1.076.904 1.413 1.554.613 1.18 1.255 2.346 1.876 3.52.075.142.123.32.123.477a.418.418 0 01-.42.412 668.67 668.67 0 01-4.006 0c-.241 0-.36-.182-.455-.38-.598-1.235-1.2-2.47-1.797-3.702-.044-.089-.083-.177-.13-.266-.163-.299-.424-.412-.745-.412h-2.003v4.126c0 .448-.178.634-.614.634-1.084 0-2.169-.012-3.258.008a.55.55 0 01-.55-.537v-.15V.942c0-.113.008-.23.04-.335.067-.202.202-.335.427-.343.064-.004.127-.004.186-.004h7.494c.887 0 1.761.089 2.573.492 1.065.53 1.817 1.333 2.019 2.556.19 1.147.09 2.265-.642 3.23-.372.489-.898.771-1.44 1.021-.08.037-.163.07-.278.118zm-6.036-4.373v2.6c.645 0 1.278.012 1.908-.004a8.02 8.02 0 001.076-.093c.353-.056.697-.165.93-.464.57-.719.195-1.789-.74-1.898-1.045-.12-2.105-.097-3.174-.141zM65.916 9.779H71.652c.431 0 .617.19.617.634v2.81c0 .351-.193.557-.534.557h-9.6c-.308 0-.47-.141-.53-.452a1.513 1.513 0 01-.016-.234V.96c0-.105.008-.214.032-.315.055-.242.194-.367.44-.371 1.128-.004 2.252-.004 3.38 0 .27 0 .463.21.479.488.004.057 0 .113 0 .17 0 2.858-.004 5.72-.004 8.58v.266zM41.903 7.01V.984c0-.1 0-.197.008-.298.024-.259.178-.424.432-.424.938-.004 1.876-.004 2.818 0 .246 0 .396.153.428.404.012.092.016.185.016.274v12.153c0 .1 0 .197-.016.299-.036.254-.186.387-.436.387H42.36c-.254 0-.412-.15-.44-.408-.012-.097-.008-.197-.008-.299-.008-2.022-.008-4.04-.008-6.064zM6.79.259c.1.016.203.032.302.044a3.912 3.912 0 011.86.775c.752.578 1.227 1.349 1.493 2.257.118.404.182.816.217 1.232.036.391.04.783.012 1.17a8.317 8.317 0 01-.451 2.173c-.325.92-.768 1.776-1.334 2.567-.044.061-.075.07-.143.04-.475-.189-.938-.403-1.35-.722-.114-.089-.217-.19-.332-.278-.055-.045-.06-.085-.024-.15.368-.654.661-1.34.89-2.055.18-.557.318-1.126.405-1.708.079-.508.118-1.025.107-1.542-.02-.727-.123-1.441-.392-2.12C7.769 1.228 7.33.65 6.652.287 6.636.28 6.63.263 6.617.251c.063.008.118.008.174.008z" fill="#737373"/><path d="M4.903 7.283c.178.303.337.606.527.885.76 1.142 1.741 2.022 2.988 2.58.46.201.935.339 1.433.395.392.049.784.045 1.18.024a3.525 3.525 0 001.65-.512c.009-.004.017-.004.036-.008-.04.129-.075.25-.115.367-.19.533-.45 1.026-.827 1.445a3.335 3.335 0 01-1.825 1.07 4.03 4.03 0 01-1.373.06 5.68 5.68 0 01-2.985-1.295c-.732-.61-1.31-1.349-1.805-2.164-.285-.473-.539-.961-.768-1.466-.008-.02-.008-.064.008-.076.447-.424.922-.808 1.464-1.103.131-.072.278-.137.412-.202z" fill="#737373"/><path d="M.643 11.842c-.107-.218-.221-.432-.316-.654a4.303 4.303 0 01-.321-1.906 5.487 5.487 0 011.128-3.137c.677-.896 1.552-1.502 2.597-1.87a8.609 8.609 0 011.746-.42 8.48 8.48 0 011.599-.076c.336.016.669.069 1.005.105.048.004.056.028.052.073-.028.35-.04.702-.08 1.053-.039.352-.11.703-.162 1.054-.008.06-.031.069-.083.069-1.2.004-2.316.327-3.365.904A8.793 8.793 0 002.75 8.27c-.51.468-.97.985-1.362 1.562a4.07 4.07 0 00-.68 1.712c-.012.093-.016.19-.024.287-.02.004-.028.008-.04.012z" fill="#737373"/><path d="M4.827 12.79c-.139.09-.273.186-.42.267-.38.206-.783.315-1.21.351-.46.036-.896-.032-1.303-.266-.4-.23-.665-.578-.832-1.006a.57.57 0 01-.027-.185 3.82 3.82 0 01.736-2.302l.032-.032c.063.315.146.614.269.896.34.792.843 1.442 1.583 1.882.357.21.737.339 1.148.367.012.012.02.02.024.028zM3.43 2.912a3.072 3.072 0 01.06-.735c.09-.416.269-.78.577-1.07.384-.363.836-.59 1.358-.662.661-.093 1.24.093 1.734.54.182.166.309.376.416.594.11.222.21.457.313.683-.008.004-.012.012-.02.016-.087-.036-.174-.077-.266-.11a4.321 4.321 0 00-1.21-.27 4.046 4.046 0 00-1.976.32c-.34.149-.641.363-.907.63-.023.023-.04.052-.055.08-.008-.004-.016-.012-.024-.016zM11.783 6.803c.237.157.431.36.593.59.281.403.448.855.535 1.34.043.25.06.505.04.755a2.416 2.416 0 01-.088.472c-.02.069-.083.13-.138.182-.36.355-.804.545-1.287.642a4.946 4.946 0 01-.942.097h-.067c1.092-1.139 1.536-2.5 1.354-4.078zM3.2 3.989c-.352.185-.692.367-1.037.549-.142-.646.606-2.576 1.113-2.85-.155.766-.277 1.53-.076 2.3zM11.11 6.092c.015-.258.039-.496.047-.738.008-.239 0-.477 0-.731.697.642 1.085 1.453 1.302 2.374-.372-.436-.847-.71-1.35-.905zM5.334 12.706c.344.214.677.416 1.009.622-.467.323-1.805.589-2.716.391a.863.863 0 01.091-.032c.321-.105.642-.206.935-.376.257-.145.475-.33.653-.569.012-.016.028-.032.028-.036z" fill="#737373"/></svg><svg fill="none" viewBox="0 0 96 96" id="successfully-changed" xmlns="http://www.w3.org/2000/svg"><circle cx="48" cy="48" r="48" fill="#4C0" fill-opacity=".05"/><path fill-rule="evenodd" clip-rule="evenodd" d="M52 34c0 2.2-1.78 4-4 4-2.2 0-4-1.8-4-4 0-.76.2-1.46.58-2.06L48 26l3.42 5.94c.38.6.58 1.3.58 2.06zm-2 10h10c3.32 0 6 2.68 6 6v18c0 1.1-.9 2-2 2H32c-1.1 0-2-.9-2-2V50c0-3.32 2.68-6 6-6h10v-4h4v4zM34 66v-6c1.8-.02 3.52-.74 4.8-2.02l2.18-2.14 2.14 2.14c2.62 2.62 7.18 2.6 9.78 0l2.16-2.14 2.14 2.14c1.28 1.28 3 2 4.8 2.02v6H34zm25.3-10.14c.72.74 1.68 1.12 2.7 1.14v-7c0-1.1-.9-2-2-2H36c-1.1 0-2 .9-2 2v7c1.02-.02 1.98-.42 2.68-1.14l4.28-4.26 4.26 4.26c1.48 1.48 4.06 1.48 5.54 0l4.28-4.26 4.26 4.26z" fill="#4C0"/></svg><svg fill="none" viewBox="0 0 96 96" id="successfully-created" xmlns="http://www.w3.org/2000/svg"><circle cx="48" cy="48" r="48" fill="#4C0" fill-opacity=".05"/><path fill-rule="evenodd" clip-rule="evenodd" d="M52 34c0 2.2-1.78 4-4 4-2.2 0-4-1.8-4-4 0-.76.2-1.46.58-2.06L48 26l3.42 5.94c.38.6.58 1.3.58 2.06zm-2 10h10c3.32 0 6 2.68 6 6v18c0 1.1-.9 2-2 2H32c-1.1 0-2-.9-2-2V50c0-3.32 2.68-6 6-6h10v-4h4v4zM34 66v-6c1.8-.02 3.52-.74 4.8-2.02l2.18-2.14 2.14 2.14c2.62 2.62 7.18 2.6 9.78 0l2.16-2.14 2.14 2.14c1.28 1.28 3 2 4.8 2.02v6H34zm25.3-10.14c.72.74 1.68 1.12 2.7 1.14v-7c0-1.1-.9-2-2-2H36c-1.1 0-2 .9-2 2v7c1.02-.02 1.98-.42 2.68-1.14l4.28-4.26 4.26 4.26c1.48 1.48 4.06 1.48 5.54 0l4.28-4.26 4.26 4.26z" fill="#4C0"/></svg><svg fill="none" viewBox="0 0 600 102" id="teasier" xmlns="http://www.w3.org/2000/svg"><path d="M31.63 100.577h14.587v-66.72H31.63v66.72zM0 .996V14.51h77.847V.997H0zM97.1 86.92v13.657h71.398V86.921H97.099zm65.717-42.82H97.099v13.23h65.718V44.1zm4.76-43.104H97.099V14.51h70.478V.997zM235.784.996h-14.279l-38.54 99.581h16.122l29.634-79.238 29.635 79.238h16.122L235.784.996zM330.789 43.247c-17.197-4.552-24.72-7.967-24.72-15.506 0-6.971 6.141-14.084 21.803-14.084 14.587 0 20.729 6.26 23.493 13.088l13.972-4.41C360.27 9.958 347.526 0 327.411 0c-22.264 0-36.39 11.096-37.004 27.172-.614 17.355 13.512 23.472 35.162 29.163 18.272 4.837 27.792 8.25 27.792 17.213 0 9.105-10.134 14.653-23.032 14.653-15.201 0-25.182-7.113-28.867-14.226L287.49 79.38C293.324 91.615 308.525 102 330.789 102c24.721 0 38.08-13.372 38.08-28.879 0-18.067-16.276-24.184-38.08-29.874zM389.669.996v99.581h14.587V.996h-14.587zM428.763 86.92v13.657h71.399V86.921h-71.399zm65.718-42.82h-65.718v13.23h65.718V44.1zm4.76-43.104h-70.478V14.51h70.478V.997zM583.264 100.577H600l-23.185-38.125c12.744-4.98 20.114-16.218 20.114-29.306 0-17.782-13.358-32.15-35.162-32.15h-40.229V14.51h40.229c12.898 0 20.115 8.82 20.115 18.636 0 9.674-7.217 18.494-20.115 18.494h-40.229v48.937h14.741V65.155h25.335l21.65 35.422z" fill="#fff"/></svg><svg fill="none" viewBox="0 0 24 19" id="tm01-1" xmlns="http://www.w3.org/2000/svg"><path d="M23.437 15.759c.157 0 .282.062.375.187a.445.445 0 01.188.375v1.125a.583.583 0 01-.188.422.507.507 0 01-.375.14H.562a.686.686 0 01-.421-.14.686.686 0 01-.141-.422V.571C0 .415.047.29.14.196A.583.583 0 01.563.01h1.125c.157 0 .282.062.375.187a.445.445 0 01.188.375V15.76h21.187zm-1.5-14.25h-6.375c-.25 0-.421.125-.515.375-.094.219-.063.406.093.562l2.485 2.438L13.5 9.009l-3-3-6.797 6.656 1.594 1.594L10.5 9.103l3 2.906 5.672-5.531 2.39 2.343c.157.188.344.235.563.14.25-.093.375-.265.375-.515V2.071a.445.445 0 00-.188-.375.445.445 0 00-.375-.187z" fill="#B3F"/></svg><svg fill="none" viewBox="0 0 26 25" id="tm01-2" xmlns="http://www.w3.org/2000/svg"><path d="M12.094 6.759c-.563-.14-.985-.422-1.36-.797a2.202 2.202 0 01-.656-1.406c-.094-.75.047-1.407.516-1.97.468-.562 1.03-.89 1.78-.983V.759c0-.188.048-.375.188-.516a.776.776 0 01.563-.234h.75c.187 0 .375.094.515.234.141.14.235.328.235.516v.844c.562.093 1.031.234 1.5.515a.594.594 0 01.187.422c0 .188-.047.375-.14.469l-.797.797c-.188.187-.422.234-.656.093-.188-.046-.329-.093-.516-.093h-1.5a.426.426 0 00-.328.14c-.094.094-.094.14-.094.235 0 .234.094.375.281.375l2.344.703c.516.187.984.469 1.36.844.375.375.562.843.656 1.359.093.75-.094 1.453-.563 2.016-.469.562-1.031.89-1.734.937v.844a.776.776 0 01-.235.562c-.14.14-.328.188-.515.188h-.75c-.235 0-.422-.047-.563-.188-.14-.14-.187-.328-.187-.562v-.844a3.183 3.183 0 01-1.5-.516c-.188-.093-.235-.234-.235-.421 0-.188.047-.329.188-.47l.797-.796c.187-.188.375-.188.656-.094.14.094.328.094.516.094h1.5c.093 0 .187 0 .281-.094.094-.094.14-.187.14-.281 0-.188-.093-.328-.28-.375l-2.344-.703zm12.937 8.625c.281.328.422.703.422 1.172 0 .468-.188.843-.469 1.125l-6.703 5.672c-.562.468-1.125.656-1.781.656H.703c-.187 0-.375-.047-.516-.188-.14-.14-.187-.328-.187-.562v-4.5c0-.188.047-.375.187-.516a.753.753 0 01.516-.234h2.484l2.016-1.781a4.992 4.992 0 013.281-1.22h7.078c.422 0 .797.188 1.079.563.28.375.421.75.328 1.172-.094.375-.235.703-.516.938-.281.234-.61.328-.938.328h-3.468a.753.753 0 00-.516.234c-.14.14-.187.328-.187.516 0 .234.046.422.187.562.14.14.328.188.516.188h5.25c.656 0 1.218-.188 1.734-.656l4.125-3.47c.281-.234.563-.374.938-.374s.656.14.937.375z" fill="#B3F"/></svg><svg fill="none" viewBox="0 0 30 21" id="tm01-3" xmlns="http://www.w3.org/2000/svg"><path d="M15 6.046c1.031 0 1.875.469 2.625 1.313.75.89 1.125 1.968 1.125 3.187 0 1.266-.375 2.344-1.125 3.188-.75.89-1.594 1.312-2.625 1.312s-1.922-.422-2.672-1.312c-.75-.844-1.078-1.922-1.078-3.188 0-1.219.328-2.297 1.078-3.187.75-.844 1.64-1.313 2.672-1.313zm14.11-5.015c.28.14.468.328.655.562.141.281.235.563.235.844v14.86c0 .468-.188.796-.469 1.077a1.454 1.454 0 01-1.031.422c-.188 0-.328 0-.516-.094a16.242 16.242 0 00-4.312-.609c-1.313 0-2.766.14-4.36.422-.937.187-2.39.562-4.312 1.031-1.969.469-3.375.797-4.313.985-1.64.328-3.093.468-4.359.468-1.969 0-3.797-.328-5.437-1.03a1.109 1.109 0 01-.657-.564C.047 19.171 0 18.89 0 18.563V3.702c0-.421.14-.796.422-1.078.281-.281.656-.422 1.078-.422.14 0 .328.047.515.094 1.313.422 2.766.61 4.313.61 1.266 0 2.719-.141 4.36-.422.937-.188 2.343-.516 4.312-.985 1.922-.468 3.375-.843 4.312-1.031 1.594-.281 3.047-.469 4.36-.469 1.968 0 3.75.375 5.437 1.032zm-1.36 15.28V2.953c-1.266-.468-2.625-.703-4.078-.703-1.172 0-2.485.14-3.985.422-.937.188-2.297.516-4.125.985-2.015.515-3.515.843-4.546 1.03a25.619 25.619 0 01-4.735.47c-1.406 0-2.765-.141-4.031-.47v13.36c1.219.469 2.578.703 4.078.703 1.125 0 2.484-.14 3.984-.422.891-.187 2.25-.515 4.125-.984 1.97-.469 3.516-.844 4.547-1.031 1.688-.282 3.281-.469 4.688-.469 1.406 0 2.765.188 4.078.469z" fill="#B3F"/></svg><svg fill="none" viewBox="0 0 107 33" id="triol-logo" xmlns="http://www.w3.org/2000/svg"><path d="M21.661.897c.19-.399.494-.522.925-.522 5.036.012 10.071.006 15.113.006.723 0 .97.258.97 1.002v2.934c0 .72-.258.984-.959.984h-4.025c-.12 0-.235.011-.385.017V18.928c0 .135 0 .27-.005.404-.023.381-.293.65-.666.65-1.637.006-3.273.006-4.904 0-.385 0-.678-.298-.718-.726-.011-.1-.006-.205-.006-.31V5.699 5.3h-.356c-1.343 0-2.687-.012-4.025.005-.436.006-.758-.11-.953-.52-.006-1.295-.006-2.595-.006-3.89zM77.72 0c1.803.012 3.537.193 5.202.832 2.739 1.048 4.427 3.045 5.076 5.944.522 2.33.517 4.667-.052 6.986-.775 3.151-2.779 5.084-5.788 5.962-2.118.62-4.283.697-6.465.457-1.378-.152-2.716-.469-3.962-1.09-2.228-1.106-3.594-2.933-4.169-5.358-.603-2.53-.597-5.077.115-7.578.833-2.922 2.796-4.714 5.627-5.57C74.746.142 76.244.013 77.72 0zm-4.307 10.16c.035.381.046.762.104 1.137.235 1.464 1.01 2.483 2.417 2.934 1.114.357 2.262.363 3.394.07 1.332-.345 2.227-1.183 2.578-2.56a6.228 6.228 0 000-3.132c-.34-1.318-1.172-2.161-2.464-2.53a6.116 6.116 0 00-3.508.03c-.947.286-1.67.883-2.096 1.815-.316.696-.413 1.458-.425 2.237zM54.54 11.133c.115.083.19.141.27.2.861.585 1.562 1.312 2.05 2.254.89 1.71 1.82 3.403 2.721 5.107.11.205.178.463.178.691 0 .34-.281.592-.608.597-1.935.006-3.876.006-5.811 0-.35 0-.523-.263-.66-.55-.867-1.792-1.74-3.584-2.607-5.37-.063-.13-.12-.258-.19-.387-.235-.433-.614-.597-1.08-.597h-2.905V19.063c0 .65-.258.92-.89.92-1.573 0-3.146-.018-4.725.011-.465.006-.781-.375-.798-.779V19 1.365c0-.164.011-.334.057-.486.098-.293.293-.486.62-.498.092-.006.184-.006.27-.006h10.87c1.286 0 2.555.13 3.732.715 1.544.767 2.635 1.933 2.928 3.707.276 1.663.132 3.285-.93 4.685-.54.709-1.303 1.119-2.09 1.482-.115.052-.236.1-.402.17zm-8.757-6.342v3.772c.936 0 1.855.017 2.768-.006a11.63 11.63 0 001.562-.135c.51-.082 1.01-.24 1.35-.673.826-1.043.28-2.595-1.075-2.753-1.515-.176-3.054-.14-4.605-.205zM95.612 14.184h8.32c.626 0 .896.276.896.92v4.076c0 .51-.282.808-.776.808H90.128c-.448 0-.683-.205-.77-.656a2.204 2.204 0 01-.022-.34V1.395c0-.152.011-.31.046-.456.08-.352.281-.533.637-.54 1.637-.005 3.267-.005 4.904 0 .39 0 .672.305.695.71.005.081 0 .163 0 .245 0 4.147-.006 8.299-.006 12.445v.386zM60.78 10.167V1.43c0-.146 0-.287.012-.433.035-.375.259-.615.626-.615 1.361-.006 2.722-.006 4.088 0 .356 0 .575.223.62.586.018.134.023.27.023.398v17.627c0 .147 0 .287-.023.434-.051.369-.27.562-.631.562H61.44c-.367 0-.597-.217-.637-.591-.018-.14-.012-.287-.012-.434-.011-2.934-.011-5.862-.011-8.796z" fill="#fff"/><path d="M9.85.375c.144.024.293.047.437.065.993.14 1.894.51 2.698 1.124 1.091.838 1.78 1.956 2.165 3.274.172.585.264 1.183.316 1.786.052.568.057 1.136.017 1.698a12.063 12.063 0 01-.655 3.151 14.859 14.859 0 01-1.934 3.725c-.064.087-.11.1-.207.058-.69-.275-1.361-.585-1.958-1.048-.167-.129-.316-.275-.482-.404-.08-.065-.087-.123-.035-.217.534-.949.959-1.944 1.292-2.98.258-.809.46-1.635.586-2.478.114-.738.172-1.487.155-2.237-.029-1.054-.178-2.09-.569-3.075C11.27 1.781 10.631.943 9.65.417 9.626.404 9.615.38 9.598.363c.092.011.172.011.252.011z" fill="#FFCB00"/><path d="M7.111 10.565c.259.439.488.878.764 1.282 1.102 1.658 2.526 2.934 4.335 3.742a7.136 7.136 0 002.079.574c.568.07 1.136.065 1.71.036.862-.041 1.654-.305 2.395-.744.012-.006.023-.006.052-.012-.058.188-.11.363-.167.533-.275.773-.654 1.488-1.2 2.097a4.84 4.84 0 01-2.647 1.552c-.66.146-1.326.17-1.992.087a8.239 8.239 0 01-4.33-1.88c-1.062-.884-1.9-1.956-2.618-3.139a20.678 20.678 0 01-1.114-2.125c-.011-.03-.011-.094.012-.112.648-.614 1.337-1.17 2.124-1.598.19-.106.402-.2.597-.293z" fill="#00407F"/><path d="M.933 17.177c-.155-.317-.322-.627-.46-.95-.373-.884-.51-1.809-.464-2.763a7.96 7.96 0 011.636-4.55c.982-1.3 2.25-2.18 3.767-2.712a12.486 12.486 0 012.532-.61c.77-.105 1.544-.152 2.32-.11.488.023.97.099 1.458.152.069.006.08.04.075.105-.04.51-.058 1.02-.115 1.529-.058.51-.16 1.019-.236 1.528-.011.088-.046.1-.12.1-1.74.005-3.36.474-4.88 1.311a12.754 12.754 0 00-2.458 1.787c-.741.679-1.407 1.429-1.976 2.266-.51.755-.855 1.575-.987 2.483-.017.135-.023.275-.035.416-.028.006-.04.012-.057.018z" fill="#D51030"/><path d="M7.002 18.553c-.201.128-.396.269-.609.386a4.415 4.415 0 01-1.757.51c-.666.052-1.297-.047-1.889-.387-.58-.334-.964-.837-1.206-1.458a.826.826 0 01-.04-.27 5.54 5.54 0 011.068-3.338l.046-.046c.092.456.213.89.39 1.3.494 1.148 1.224 2.09 2.297 2.729a3.75 3.75 0 001.665.533c.018.017.03.029.035.04z" fill="#902329"/><path d="M4.975 4.223a4.455 4.455 0 01.086-1.065c.132-.604.39-1.13.839-1.552a3.514 3.514 0 011.97-.96c.958-.135 1.796.134 2.514.784.264.24.448.545.603.86.16.323.304.663.454.99-.012.006-.018.018-.03.024-.125-.053-.252-.111-.384-.158a6.267 6.267 0 00-1.757-.392c-.993-.077-1.946.058-2.865.462-.494.217-.93.527-1.315.914-.034.035-.057.076-.08.117-.012-.006-.023-.018-.035-.024z" fill="#E49A00"/><path d="M17.09 9.868c.345.228.627.521.862.855.408.585.65 1.241.775 1.944.064.363.087.732.058 1.095a3.51 3.51 0 01-.127.685c-.028.1-.12.188-.2.264-.523.515-1.166.79-1.867.931a7.163 7.163 0 01-1.366.14h-.098c1.585-1.65 2.228-3.624 1.964-5.914z" fill="#212B59"/><path d="M4.642 5.786l-1.504.796c-.207-.937.878-3.736 1.613-4.134-.224 1.112-.402 2.22-.109 3.338z" fill="#00407F"/><path d="M16.114 8.837c.023-.375.058-.72.07-1.072.01-.345 0-.69 0-1.06 1.01.931 1.573 2.109 1.889 3.444-.54-.633-1.23-1.03-1.959-1.312z" fill="#D51030"/><path d="M7.737 18.43c.5.31.982.603 1.464.901-.677.469-2.618.855-3.939.569.058-.024.092-.036.132-.047.465-.153.93-.299 1.355-.545.374-.21.69-.48.948-.826.017-.023.04-.046.04-.052z" fill="#FFCB00"/><path d="M2.927 30.096H1.175v1.312h2.048V32H.433v-4.266h2.77v.598H1.174v1.178h1.752v.586zm2.882.975l1.084-3.337h.815L6.172 32h-.717l-1.53-4.266h.812l1.072 3.337zm5.355-.975H9.412v1.312h2.048V32H8.67v-4.266h2.77v.598H9.412v1.178h1.752v.586zm2.947.26h-.826V32h-.742v-4.266h1.5c.493 0 .873.11 1.14.331.268.221.402.54.402.958a1.2 1.2 0 01-.209.718 1.308 1.308 0 01-.574.443l.958 1.778V32h-.794l-.855-1.644zm-.826-.594h.761c.25 0 .446-.063.586-.188.141-.127.211-.3.211-.518 0-.229-.065-.406-.196-.53-.129-.126-.322-.19-.58-.194h-.782v1.43zm4.734-.006L19 27.734h.82l-1.43 2.696V32h-.743v-1.57l-1.433-2.696h.823l.982 2.022zm5.879-1.424h-1.33V32h-.735v-3.668h-1.319v-.598h3.384v.598zM28.328 32h-.739v-1.895h-1.907V32h-.741v-4.266h.74v1.776h1.908v-1.776h.738V32zm2.14 0h-.738v-4.266h.738V32zm4.775 0h-.74L32.6 28.974V32h-.741v-4.266h.74l1.908 3.038v-3.038h.735V32zm4.626-.554a1.417 1.417 0 01-.642.457 2.618 2.618 0 01-.931.156c-.358 0-.674-.081-.95-.244a1.63 1.63 0 01-.638-.694 2.46 2.46 0 01-.232-1.057v-.334c0-.645.154-1.148.463-1.51.309-.363.74-.544 1.292-.544.475 0 .852.117 1.131.351.28.235.447.573.504 1.014h-.727c-.082-.514-.38-.77-.893-.77-.332 0-.585.12-.759.36-.172.238-.26.589-.267 1.052v.328c0 .46.097.82.29 1.075.196.254.466.38.812.38.379 0 .648-.085.808-.257v-.835h-.878v-.563h1.617v1.635zM46.52 32h-.741l-1.901-3.026V32h-.742v-4.266h.742l1.907 3.038v-3.038h.735V32zm3.85-1.904h-1.753v1.312h2.048V32h-2.789v-4.266h2.769v.598h-2.028v1.178h1.752v.586zm4.724.85l.657-3.212h.735L55.503 32h-.71l-.81-3.114-.83 3.114h-.712l-.984-4.266h.735l.662 3.205.815-3.205h.62l.806 3.211zm6.881-.85h-1.752v1.312h2.048V32h-2.789v-4.266h2.769v.598h-2.028v1.178h1.752v.586zm2.34-2.362l1.231 3.27 1.228-3.27h.958V32h-.739v-1.406l.074-1.881L65.808 32h-.53l-1.257-3.284.073 1.878V32h-.738v-4.266h.96zm7.269 2.362h-1.752v1.312h2.048V32h-2.79v-4.266h2.77v.598h-2.028v1.178h1.752v.586zm2.947.26h-.827V32h-.74v-4.266h1.5c.491 0 .871.11 1.139.331.267.221.401.54.401.958a1.2 1.2 0 01-.208.718 1.308 1.308 0 01-.574.443l.958 1.778V32h-.794l-.855-1.644zm-.827-.594h.762c.25 0 .445-.063.586-.188.14-.127.211-.3.211-.518 0-.229-.065-.406-.196-.53-.13-.126-.322-.19-.58-.194h-.783v1.43zm6.753 1.684a1.417 1.417 0 01-.642.457 2.618 2.618 0 01-.931.156c-.358 0-.674-.081-.95-.244a1.63 1.63 0 01-.638-.694 2.458 2.458 0 01-.232-1.057v-.334c0-.645.155-1.148.463-1.51.309-.363.74-.544 1.292-.544.475 0 .852.117 1.131.351.28.235.447.573.504 1.014h-.727c-.082-.514-.38-.77-.893-.77-.332 0-.585.12-.759.36-.172.238-.26.589-.266 1.052v.328c0 .46.096.82.29 1.075.195.254.465.38.811.38.379 0 .648-.085.809-.257v-.835h-.88v-.563h1.618v1.635zm3.788-1.35h-1.752v1.312h2.047V32h-2.789v-4.266h2.769v.598h-2.027v1.178h1.752v.586zm3.608.805a.514.514 0 00-.199-.433c-.13-.102-.368-.204-.712-.308a3.449 3.449 0 01-.82-.346c-.389-.244-.583-.562-.583-.955 0-.343.14-.627.419-.85.281-.222.645-.333 1.093-.333.297 0 .561.055.794.164a1.3 1.3 0 01.547.469c.133.2.2.424.2.67h-.739c0-.222-.07-.396-.21-.521-.14-.127-.338-.19-.598-.19-.242 0-.43.051-.566.155a.518.518 0 00-.199.433c0 .157.072.288.217.393.144.104.383.205.715.305.332.097.598.21.8.337.2.125.348.27.442.433.094.162.14.353.14.571 0 .356-.136.64-.41.85-.271.21-.64.314-1.107.314a2.11 2.11 0 01-.853-.17 1.453 1.453 0 01-.603-.475 1.185 1.185 0 01-.214-.703h.741c0 .242.08.43.24.562.16.133.39.2.689.2.258 0 .451-.052.58-.156a.508.508 0 00.196-.416zM95.084 32h-.741l-1.902-3.026V32h-.74v-4.266h.74l1.908 3.038v-3.038h.735V32zm4.76-2.021c0 .418-.072.785-.217 1.101a1.646 1.646 0 01-.62.727 1.704 1.704 0 01-.927.252c-.345 0-.654-.084-.925-.252a1.686 1.686 0 01-.627-.724 2.548 2.548 0 01-.223-1.081v-.24c0-.416.073-.784.22-1.102.148-.318.356-.561.624-.73.27-.17.578-.254.926-.254a1.7 1.7 0 01.922.252c.27.166.478.406.625.72.146.313.22.677.222 1.093v.238zm-.741-.223c0-.473-.09-.835-.27-1.087-.177-.252-.43-.378-.758-.378a.877.877 0 00-.753.378c-.18.25-.272.604-.276 1.063v.247c0 .468.091.83.273 1.086a.886.886 0 00.761.384c.329 0 .58-.125.756-.375.178-.25.267-.615.267-1.096v-.222zm5.305 1.19l.656-3.212h.736L104.815 32h-.709l-.811-3.114-.829 3.114h-.712l-.984-4.266h.735l.662 3.205.814-3.205h.622l.805 3.211z" fill="#fff"/></svg><svg fill="none" viewBox="0 0 24 25" id="win" xmlns="http://www.w3.org/2000/svg"><path d="M0 3.41l9.808-1.336.004 9.461-9.803.056L0 3.41zm9.803 9.215l.008 9.469-9.803-1.348-.001-8.185 9.796.064zm1.19-10.726L23.996.001v11.414l-13.005.103V1.9zM24 12.714l-.003 11.362-13.005-1.836-.018-9.547L24 12.714z" fill="#fff"/></svg></svg>